G75*
G70*
%OFA0B0*%
%FSLAX24Y24*%
%IPPOS*%
%LPD*%
%AMOC8*
5,1,8,0,0,1.08239X$1,22.5*
%
%ADD10C,0.0000*%
%ADD11OC8,0.0600*%
%ADD12OC8,0.1250*%
%ADD13C,0.0160*%
%ADD14OC8,0.0240*%
D10*
X000637Y000574D02*
X030165Y000574D01*
X030165Y030101D01*
X000637Y030101D01*
X000637Y000574D01*
X001976Y002542D02*
X001978Y002592D01*
X001984Y002642D01*
X001994Y002691D01*
X002008Y002739D01*
X002025Y002786D01*
X002046Y002831D01*
X002071Y002875D01*
X002099Y002916D01*
X002131Y002955D01*
X002165Y002992D01*
X002202Y003026D01*
X002242Y003056D01*
X002284Y003083D01*
X002328Y003107D01*
X002374Y003128D01*
X002421Y003144D01*
X002469Y003157D01*
X002519Y003166D01*
X002568Y003171D01*
X002619Y003172D01*
X002669Y003169D01*
X002718Y003162D01*
X002767Y003151D01*
X002815Y003136D01*
X002861Y003118D01*
X002906Y003096D01*
X002949Y003070D01*
X002990Y003041D01*
X003029Y003009D01*
X003065Y002974D01*
X003097Y002936D01*
X003127Y002896D01*
X003154Y002853D01*
X003177Y002809D01*
X003196Y002763D01*
X003212Y002715D01*
X003224Y002666D01*
X003232Y002617D01*
X003236Y002567D01*
X003236Y002517D01*
X003232Y002467D01*
X003224Y002418D01*
X003212Y002369D01*
X003196Y002321D01*
X003177Y002275D01*
X003154Y002231D01*
X003127Y002188D01*
X003097Y002148D01*
X003065Y002110D01*
X003029Y002075D01*
X002990Y002043D01*
X002949Y002014D01*
X002906Y001988D01*
X002861Y001966D01*
X002815Y001948D01*
X002767Y001933D01*
X002718Y001922D01*
X002669Y001915D01*
X002619Y001912D01*
X002568Y001913D01*
X002519Y001918D01*
X002469Y001927D01*
X002421Y001940D01*
X002374Y001956D01*
X002328Y001977D01*
X002284Y002001D01*
X002242Y002028D01*
X002202Y002058D01*
X002165Y002092D01*
X002131Y002129D01*
X002099Y002168D01*
X002071Y002209D01*
X002046Y002253D01*
X002025Y002298D01*
X002008Y002345D01*
X001994Y002393D01*
X001984Y002442D01*
X001978Y002492D01*
X001976Y002542D01*
X001976Y028133D02*
X001978Y028183D01*
X001984Y028233D01*
X001994Y028282D01*
X002008Y028330D01*
X002025Y028377D01*
X002046Y028422D01*
X002071Y028466D01*
X002099Y028507D01*
X002131Y028546D01*
X002165Y028583D01*
X002202Y028617D01*
X002242Y028647D01*
X002284Y028674D01*
X002328Y028698D01*
X002374Y028719D01*
X002421Y028735D01*
X002469Y028748D01*
X002519Y028757D01*
X002568Y028762D01*
X002619Y028763D01*
X002669Y028760D01*
X002718Y028753D01*
X002767Y028742D01*
X002815Y028727D01*
X002861Y028709D01*
X002906Y028687D01*
X002949Y028661D01*
X002990Y028632D01*
X003029Y028600D01*
X003065Y028565D01*
X003097Y028527D01*
X003127Y028487D01*
X003154Y028444D01*
X003177Y028400D01*
X003196Y028354D01*
X003212Y028306D01*
X003224Y028257D01*
X003232Y028208D01*
X003236Y028158D01*
X003236Y028108D01*
X003232Y028058D01*
X003224Y028009D01*
X003212Y027960D01*
X003196Y027912D01*
X003177Y027866D01*
X003154Y027822D01*
X003127Y027779D01*
X003097Y027739D01*
X003065Y027701D01*
X003029Y027666D01*
X002990Y027634D01*
X002949Y027605D01*
X002906Y027579D01*
X002861Y027557D01*
X002815Y027539D01*
X002767Y027524D01*
X002718Y027513D01*
X002669Y027506D01*
X002619Y027503D01*
X002568Y027504D01*
X002519Y027509D01*
X002469Y027518D01*
X002421Y027531D01*
X002374Y027547D01*
X002328Y027568D01*
X002284Y027592D01*
X002242Y027619D01*
X002202Y027649D01*
X002165Y027683D01*
X002131Y027720D01*
X002099Y027759D01*
X002071Y027800D01*
X002046Y027844D01*
X002025Y027889D01*
X002008Y027936D01*
X001994Y027984D01*
X001984Y028033D01*
X001978Y028083D01*
X001976Y028133D01*
X027566Y028133D02*
X027568Y028183D01*
X027574Y028233D01*
X027584Y028282D01*
X027598Y028330D01*
X027615Y028377D01*
X027636Y028422D01*
X027661Y028466D01*
X027689Y028507D01*
X027721Y028546D01*
X027755Y028583D01*
X027792Y028617D01*
X027832Y028647D01*
X027874Y028674D01*
X027918Y028698D01*
X027964Y028719D01*
X028011Y028735D01*
X028059Y028748D01*
X028109Y028757D01*
X028158Y028762D01*
X028209Y028763D01*
X028259Y028760D01*
X028308Y028753D01*
X028357Y028742D01*
X028405Y028727D01*
X028451Y028709D01*
X028496Y028687D01*
X028539Y028661D01*
X028580Y028632D01*
X028619Y028600D01*
X028655Y028565D01*
X028687Y028527D01*
X028717Y028487D01*
X028744Y028444D01*
X028767Y028400D01*
X028786Y028354D01*
X028802Y028306D01*
X028814Y028257D01*
X028822Y028208D01*
X028826Y028158D01*
X028826Y028108D01*
X028822Y028058D01*
X028814Y028009D01*
X028802Y027960D01*
X028786Y027912D01*
X028767Y027866D01*
X028744Y027822D01*
X028717Y027779D01*
X028687Y027739D01*
X028655Y027701D01*
X028619Y027666D01*
X028580Y027634D01*
X028539Y027605D01*
X028496Y027579D01*
X028451Y027557D01*
X028405Y027539D01*
X028357Y027524D01*
X028308Y027513D01*
X028259Y027506D01*
X028209Y027503D01*
X028158Y027504D01*
X028109Y027509D01*
X028059Y027518D01*
X028011Y027531D01*
X027964Y027547D01*
X027918Y027568D01*
X027874Y027592D01*
X027832Y027619D01*
X027792Y027649D01*
X027755Y027683D01*
X027721Y027720D01*
X027689Y027759D01*
X027661Y027800D01*
X027636Y027844D01*
X027615Y027889D01*
X027598Y027936D01*
X027584Y027984D01*
X027574Y028033D01*
X027568Y028083D01*
X027566Y028133D01*
X027566Y002542D02*
X027568Y002592D01*
X027574Y002642D01*
X027584Y002691D01*
X027598Y002739D01*
X027615Y002786D01*
X027636Y002831D01*
X027661Y002875D01*
X027689Y002916D01*
X027721Y002955D01*
X027755Y002992D01*
X027792Y003026D01*
X027832Y003056D01*
X027874Y003083D01*
X027918Y003107D01*
X027964Y003128D01*
X028011Y003144D01*
X028059Y003157D01*
X028109Y003166D01*
X028158Y003171D01*
X028209Y003172D01*
X028259Y003169D01*
X028308Y003162D01*
X028357Y003151D01*
X028405Y003136D01*
X028451Y003118D01*
X028496Y003096D01*
X028539Y003070D01*
X028580Y003041D01*
X028619Y003009D01*
X028655Y002974D01*
X028687Y002936D01*
X028717Y002896D01*
X028744Y002853D01*
X028767Y002809D01*
X028786Y002763D01*
X028802Y002715D01*
X028814Y002666D01*
X028822Y002617D01*
X028826Y002567D01*
X028826Y002517D01*
X028822Y002467D01*
X028814Y002418D01*
X028802Y002369D01*
X028786Y002321D01*
X028767Y002275D01*
X028744Y002231D01*
X028717Y002188D01*
X028687Y002148D01*
X028655Y002110D01*
X028619Y002075D01*
X028580Y002043D01*
X028539Y002014D01*
X028496Y001988D01*
X028451Y001966D01*
X028405Y001948D01*
X028357Y001933D01*
X028308Y001922D01*
X028259Y001915D01*
X028209Y001912D01*
X028158Y001913D01*
X028109Y001918D01*
X028059Y001927D01*
X028011Y001940D01*
X027964Y001956D01*
X027918Y001977D01*
X027874Y002001D01*
X027832Y002028D01*
X027792Y002058D01*
X027755Y002092D01*
X027721Y002129D01*
X027689Y002168D01*
X027661Y002209D01*
X027636Y002253D01*
X027615Y002298D01*
X027598Y002345D01*
X027584Y002393D01*
X027574Y002442D01*
X027568Y002492D01*
X027566Y002542D01*
D11*
X016401Y004798D03*
X016401Y005798D03*
X015401Y005798D03*
X015401Y004798D03*
X014401Y004798D03*
X014401Y005798D03*
D12*
X027802Y011400D03*
D13*
X027245Y010876D02*
X025955Y010876D01*
X025955Y010718D02*
X027403Y010718D01*
X027485Y010635D02*
X028119Y010635D01*
X028567Y011084D01*
X028567Y011717D01*
X028119Y012165D01*
X027485Y012165D01*
X027037Y011717D01*
X027037Y011084D01*
X027485Y010635D01*
X027086Y011035D02*
X025955Y011035D01*
X025955Y011193D02*
X027037Y011193D01*
X027037Y011352D02*
X025955Y011352D01*
X025955Y011510D02*
X027037Y011510D01*
X027037Y011669D02*
X025955Y011669D01*
X025955Y011827D02*
X027147Y011827D01*
X027306Y011986D02*
X025955Y011986D01*
X025955Y012144D02*
X027464Y012144D01*
X028140Y012144D02*
X029985Y012144D01*
X029985Y011986D02*
X028299Y011986D01*
X028457Y011827D02*
X029985Y011827D01*
X029985Y011669D02*
X028567Y011669D01*
X028567Y011510D02*
X029985Y011510D01*
X029985Y011352D02*
X028567Y011352D01*
X028567Y011193D02*
X029985Y011193D01*
X029985Y011035D02*
X028518Y011035D01*
X028360Y010876D02*
X029985Y010876D01*
X029985Y010718D02*
X028201Y010718D01*
X029985Y010559D02*
X025955Y010559D01*
X025955Y010401D02*
X029985Y010401D01*
X029985Y010242D02*
X025955Y010242D01*
X025955Y010084D02*
X029985Y010084D01*
X029985Y009925D02*
X025955Y009925D01*
X025955Y009767D02*
X029985Y009767D01*
X029985Y009608D02*
X025955Y009608D01*
X025955Y009450D02*
X029985Y009450D01*
X029985Y009291D02*
X025955Y009291D01*
X025955Y009133D02*
X029985Y009133D01*
X029985Y008974D02*
X025955Y008974D01*
X025955Y008816D02*
X029985Y008816D01*
X029985Y008657D02*
X025955Y008657D01*
X025955Y008499D02*
X029985Y008499D01*
X029985Y008340D02*
X025955Y008340D01*
X025955Y008182D02*
X029985Y008182D01*
X029985Y008023D02*
X025917Y008023D01*
X025955Y008061D02*
X025955Y016083D01*
X026525Y016652D01*
X026581Y016652D01*
X026734Y016805D01*
X026734Y017020D01*
X026581Y017172D01*
X026366Y017172D01*
X026214Y017020D01*
X026214Y016963D01*
X025644Y016394D01*
X025515Y016265D01*
X025515Y008244D01*
X024906Y007634D01*
X017123Y007634D01*
X017083Y007674D01*
X016868Y007674D01*
X016716Y007522D01*
X016716Y007465D01*
X015488Y006238D01*
X015219Y006238D01*
X014961Y005980D01*
X014961Y005616D01*
X015219Y005358D01*
X015583Y005358D01*
X015841Y005616D01*
X015841Y005968D01*
X017027Y007154D01*
X017083Y007154D01*
X017123Y007194D01*
X025088Y007194D01*
X025955Y008061D01*
X025735Y008152D02*
X024997Y007414D01*
X016976Y007414D01*
X015401Y005839D01*
X015401Y005798D01*
X015712Y005487D02*
X016089Y005487D01*
X015961Y005616D02*
X016219Y005358D01*
X016583Y005358D01*
X016841Y005616D01*
X016841Y005980D01*
X016583Y006238D01*
X016219Y006238D01*
X015961Y005980D01*
X015961Y005616D01*
X015961Y005646D02*
X015841Y005646D01*
X015841Y005804D02*
X015961Y005804D01*
X015961Y005963D02*
X015841Y005963D01*
X015994Y006121D02*
X016102Y006121D01*
X016152Y006280D02*
X017571Y006280D01*
X017730Y006438D02*
X016311Y006438D01*
X016469Y006597D02*
X017888Y006597D01*
X018047Y006755D02*
X016628Y006755D01*
X016786Y006914D02*
X018205Y006914D01*
X018364Y007072D02*
X016945Y007072D01*
X016639Y007389D02*
X000817Y007389D01*
X000817Y007231D02*
X016481Y007231D01*
X016322Y007072D02*
X000817Y007072D01*
X000817Y006914D02*
X016164Y006914D01*
X016005Y006755D02*
X000817Y006755D01*
X000817Y006597D02*
X015847Y006597D01*
X015688Y006438D02*
X000817Y006438D01*
X000817Y006280D02*
X015530Y006280D01*
X015102Y006121D02*
X014700Y006121D01*
X014583Y006238D02*
X014219Y006238D01*
X013961Y005980D01*
X013961Y005616D01*
X014219Y005358D01*
X014583Y005358D01*
X014841Y005616D01*
X014841Y005980D01*
X014583Y006238D01*
X014841Y005963D02*
X014961Y005963D01*
X014961Y005804D02*
X014841Y005804D01*
X014841Y005646D02*
X014961Y005646D01*
X015089Y005487D02*
X014712Y005487D01*
X014600Y005278D02*
X014421Y005278D01*
X014421Y004818D01*
X014881Y004818D01*
X014881Y004997D01*
X014600Y005278D01*
X014707Y005170D02*
X015151Y005170D01*
X015219Y005238D02*
X014961Y004980D01*
X014961Y004616D01*
X015219Y004358D01*
X015583Y004358D01*
X015841Y004616D01*
X015841Y004980D01*
X015583Y005238D01*
X015219Y005238D01*
X014992Y005012D02*
X014866Y005012D01*
X014881Y004853D02*
X014961Y004853D01*
X014881Y004778D02*
X014421Y004778D01*
X014421Y004818D01*
X014381Y004818D01*
X014381Y005278D01*
X014202Y005278D01*
X013921Y004997D01*
X013921Y004818D01*
X014381Y004818D01*
X014381Y004778D01*
X014421Y004778D01*
X014421Y004318D01*
X014600Y004318D01*
X014881Y004599D01*
X014881Y004778D01*
X014881Y004695D02*
X014961Y004695D01*
X015040Y004536D02*
X014818Y004536D01*
X014659Y004378D02*
X015199Y004378D01*
X015603Y004378D02*
X016199Y004378D01*
X016219Y004358D02*
X016583Y004358D01*
X016841Y004616D01*
X016841Y004927D01*
X018567Y006653D01*
X023521Y006653D01*
X023561Y006613D01*
X023776Y006613D01*
X023928Y006765D01*
X023928Y006981D01*
X023776Y007133D01*
X023561Y007133D01*
X023521Y007093D01*
X018384Y007093D01*
X016530Y005238D01*
X016219Y005238D01*
X015961Y004980D01*
X015961Y004616D01*
X016219Y004358D01*
X016040Y004536D02*
X015761Y004536D01*
X015841Y004695D02*
X015961Y004695D01*
X015961Y004853D02*
X015841Y004853D01*
X015809Y005012D02*
X015992Y005012D01*
X016151Y005170D02*
X015651Y005170D01*
X016401Y004798D02*
X018476Y006873D01*
X023668Y006873D01*
X023837Y007072D02*
X029985Y007072D01*
X029985Y006914D02*
X023928Y006914D01*
X023918Y006755D02*
X029985Y006755D01*
X029985Y006597D02*
X018511Y006597D01*
X018352Y006438D02*
X029985Y006438D01*
X029985Y006280D02*
X018194Y006280D01*
X018035Y006121D02*
X029985Y006121D01*
X029985Y005963D02*
X017877Y005963D01*
X017718Y005804D02*
X029985Y005804D01*
X029985Y005646D02*
X017560Y005646D01*
X017401Y005487D02*
X029985Y005487D01*
X029985Y005329D02*
X017243Y005329D01*
X017084Y005170D02*
X029985Y005170D01*
X029985Y005012D02*
X016926Y005012D01*
X016841Y004853D02*
X029985Y004853D01*
X029985Y004695D02*
X016841Y004695D01*
X016761Y004536D02*
X029985Y004536D01*
X029985Y004378D02*
X016603Y004378D01*
X016620Y005329D02*
X000817Y005329D01*
X000817Y005487D02*
X014089Y005487D01*
X013961Y005646D02*
X000817Y005646D01*
X000817Y005804D02*
X013961Y005804D01*
X013961Y005963D02*
X000817Y005963D01*
X000817Y006121D02*
X014102Y006121D01*
X014094Y005170D02*
X000817Y005170D01*
X000817Y005012D02*
X013936Y005012D01*
X013921Y004853D02*
X000817Y004853D01*
X000817Y004695D02*
X013921Y004695D01*
X013921Y004778D02*
X013921Y004599D01*
X014202Y004318D01*
X014381Y004318D01*
X014381Y004778D01*
X013921Y004778D01*
X013984Y004536D02*
X000817Y004536D01*
X000817Y004378D02*
X014142Y004378D01*
X014381Y004378D02*
X014421Y004378D01*
X014421Y004536D02*
X014381Y004536D01*
X014381Y004695D02*
X014421Y004695D01*
X014421Y004853D02*
X014381Y004853D01*
X014381Y005012D02*
X014421Y005012D01*
X014421Y005170D02*
X014381Y005170D01*
X016712Y005487D02*
X016779Y005487D01*
X016841Y005646D02*
X016937Y005646D01*
X016841Y005804D02*
X017096Y005804D01*
X017254Y005963D02*
X016841Y005963D01*
X016700Y006121D02*
X017413Y006121D01*
X016741Y007548D02*
X000817Y007548D01*
X000817Y007706D02*
X024978Y007706D01*
X025137Y007865D02*
X000817Y007865D01*
X000817Y008023D02*
X025295Y008023D01*
X025454Y008182D02*
X000817Y008182D01*
X000817Y008340D02*
X025515Y008340D01*
X025515Y008499D02*
X000817Y008499D01*
X000817Y008657D02*
X025515Y008657D01*
X025515Y008816D02*
X000817Y008816D01*
X000817Y008974D02*
X025515Y008974D01*
X025515Y009133D02*
X000817Y009133D01*
X000817Y009291D02*
X025515Y009291D01*
X025515Y009450D02*
X000817Y009450D01*
X000817Y009608D02*
X025515Y009608D01*
X025515Y009767D02*
X000817Y009767D01*
X000817Y009925D02*
X025515Y009925D01*
X025515Y010084D02*
X000817Y010084D01*
X000817Y010242D02*
X025515Y010242D01*
X025515Y010401D02*
X000817Y010401D01*
X000817Y010559D02*
X025515Y010559D01*
X025515Y010718D02*
X000817Y010718D01*
X000817Y010876D02*
X025515Y010876D01*
X025515Y011035D02*
X000817Y011035D01*
X000817Y011193D02*
X025515Y011193D01*
X025515Y011352D02*
X000817Y011352D01*
X000817Y011510D02*
X025515Y011510D01*
X025515Y011669D02*
X000817Y011669D01*
X000817Y011827D02*
X025515Y011827D01*
X025515Y011986D02*
X000817Y011986D01*
X000817Y012144D02*
X025515Y012144D01*
X025515Y012303D02*
X000817Y012303D01*
X000817Y012461D02*
X014169Y012461D01*
X014157Y012474D02*
X014309Y012322D01*
X014524Y012322D01*
X014564Y012362D01*
X019190Y012362D01*
X019230Y012322D01*
X019445Y012322D01*
X019598Y012474D01*
X019598Y012689D01*
X019445Y012842D01*
X019230Y012842D01*
X019190Y012802D01*
X017900Y012802D01*
X017983Y012884D01*
X019429Y014330D01*
X020371Y014330D01*
X020411Y014290D01*
X020627Y014290D01*
X020779Y014442D01*
X020779Y014658D01*
X020627Y014810D01*
X020411Y014810D01*
X020371Y014770D01*
X019247Y014770D01*
X017672Y013195D01*
X016533Y013195D01*
X016493Y013235D01*
X016277Y013235D01*
X016125Y013083D01*
X016125Y012868D01*
X016191Y012802D01*
X014564Y012802D01*
X014524Y012842D01*
X014309Y012842D01*
X014157Y012689D01*
X014157Y012474D01*
X014157Y012620D02*
X000817Y012620D01*
X000817Y012778D02*
X014245Y012778D01*
X014417Y012582D02*
X019338Y012582D01*
X019509Y012778D02*
X025515Y012778D01*
X025515Y012620D02*
X019598Y012620D01*
X019585Y012461D02*
X025515Y012461D01*
X025955Y012461D02*
X029985Y012461D01*
X029985Y012303D02*
X025955Y012303D01*
X025955Y012620D02*
X029985Y012620D01*
X029985Y012778D02*
X025955Y012778D01*
X025955Y012937D02*
X029985Y012937D01*
X029985Y013095D02*
X025955Y013095D01*
X025955Y013254D02*
X029985Y013254D01*
X029985Y013412D02*
X025955Y013412D01*
X025955Y013571D02*
X029985Y013571D01*
X029985Y013729D02*
X025955Y013729D01*
X025955Y013888D02*
X029985Y013888D01*
X029985Y014046D02*
X025955Y014046D01*
X025955Y014205D02*
X029985Y014205D01*
X029985Y014363D02*
X025955Y014363D01*
X025955Y014522D02*
X029985Y014522D01*
X029985Y014680D02*
X025955Y014680D01*
X025955Y014839D02*
X029985Y014839D01*
X029985Y014997D02*
X025955Y014997D01*
X025955Y015156D02*
X029985Y015156D01*
X029985Y015314D02*
X025955Y015314D01*
X025955Y015473D02*
X029985Y015473D01*
X029985Y015631D02*
X025955Y015631D01*
X025955Y015790D02*
X029985Y015790D01*
X029985Y015948D02*
X025955Y015948D01*
X025979Y016107D02*
X029985Y016107D01*
X029985Y016265D02*
X026138Y016265D01*
X026296Y016424D02*
X029985Y016424D01*
X029985Y016582D02*
X026455Y016582D01*
X026670Y016741D02*
X029985Y016741D01*
X029985Y016899D02*
X026734Y016899D01*
X026696Y017058D02*
X029985Y017058D01*
X029985Y017216D02*
X020937Y017216D01*
X020823Y017025D02*
X020746Y017025D01*
X021791Y018070D01*
X023914Y018070D01*
X023954Y018030D01*
X024170Y018030D01*
X024210Y018070D01*
X027064Y018070D01*
X027104Y018030D01*
X027319Y018030D01*
X027472Y018183D01*
X027472Y018398D01*
X027319Y018550D01*
X027104Y018550D01*
X027064Y018510D01*
X024210Y018510D01*
X024170Y018550D01*
X023954Y018550D01*
X023914Y018510D01*
X021609Y018510D01*
X019050Y015951D01*
X017911Y015951D01*
X017871Y015991D01*
X017800Y015991D01*
X017826Y016017D01*
X017826Y016233D01*
X017674Y016385D01*
X017458Y016385D01*
X017306Y016233D01*
X017306Y016176D01*
X017229Y016099D01*
X017100Y015970D01*
X017100Y015542D01*
X017749Y014893D01*
X017749Y014836D01*
X017815Y014770D01*
X014712Y014770D01*
X014672Y014810D01*
X014456Y014810D01*
X014304Y014658D01*
X014304Y014442D01*
X014456Y014290D01*
X014672Y014290D01*
X014712Y014330D01*
X018592Y014330D01*
X020767Y016505D01*
X020823Y016505D01*
X020976Y016657D01*
X020976Y016872D01*
X020823Y017025D01*
X020779Y017058D02*
X026251Y017058D01*
X026149Y016899D02*
X020949Y016899D01*
X020976Y016741D02*
X025991Y016741D01*
X025832Y016582D02*
X020901Y016582D01*
X020716Y016765D02*
X018501Y014550D01*
X014564Y014550D01*
X014383Y014363D02*
X000817Y014363D01*
X000817Y014205D02*
X018681Y014205D01*
X018625Y014363D02*
X018840Y014363D01*
X018784Y014522D02*
X018998Y014522D01*
X018942Y014680D02*
X019157Y014680D01*
X019101Y014839D02*
X025515Y014839D01*
X025515Y014997D02*
X019259Y014997D01*
X019418Y015156D02*
X025515Y015156D01*
X025515Y015314D02*
X019576Y015314D01*
X019735Y015473D02*
X025515Y015473D01*
X025515Y015631D02*
X019893Y015631D01*
X020052Y015790D02*
X025515Y015790D01*
X025515Y015948D02*
X020210Y015948D01*
X020369Y016107D02*
X025515Y016107D01*
X025515Y016265D02*
X020527Y016265D01*
X020686Y016424D02*
X025674Y016424D01*
X025644Y016394D02*
X025644Y016394D01*
X025735Y016174D02*
X025735Y008152D01*
X025759Y007865D02*
X029985Y007865D01*
X029985Y007706D02*
X025600Y007706D01*
X025442Y007548D02*
X029985Y007548D01*
X029985Y007389D02*
X025283Y007389D01*
X025125Y007231D02*
X029985Y007231D01*
X029985Y004219D02*
X000817Y004219D01*
X000817Y004061D02*
X029985Y004061D01*
X029985Y003902D02*
X000817Y003902D01*
X000817Y003744D02*
X029985Y003744D01*
X029985Y003585D02*
X000817Y003585D01*
X000817Y003427D02*
X029985Y003427D01*
X029985Y003268D02*
X028560Y003268D01*
X028655Y003229D02*
X028357Y003352D01*
X028035Y003352D01*
X027737Y003229D01*
X027509Y003001D01*
X027386Y002703D01*
X027386Y002381D01*
X027509Y002083D01*
X027737Y001856D01*
X028035Y001732D01*
X028357Y001732D01*
X028655Y001856D01*
X028883Y002083D01*
X029006Y002381D01*
X029006Y002703D01*
X028883Y003001D01*
X028655Y003229D01*
X028774Y003110D02*
X029985Y003110D01*
X029985Y002951D02*
X028903Y002951D01*
X028969Y002793D02*
X029985Y002793D01*
X029985Y002634D02*
X029006Y002634D01*
X029006Y002476D02*
X029985Y002476D01*
X029985Y002317D02*
X028980Y002317D01*
X028914Y002159D02*
X029985Y002159D01*
X029985Y002000D02*
X028799Y002000D01*
X028621Y001842D02*
X029985Y001842D01*
X029985Y001683D02*
X000817Y001683D01*
X000817Y001525D02*
X029985Y001525D01*
X029985Y001366D02*
X000817Y001366D01*
X000817Y001208D02*
X029985Y001208D01*
X029985Y001049D02*
X000817Y001049D01*
X000817Y000891D02*
X029985Y000891D01*
X029985Y000754D02*
X000817Y000754D01*
X000817Y029921D01*
X029985Y029921D01*
X029985Y000754D01*
X027771Y001842D02*
X003031Y001842D01*
X003064Y001856D02*
X003292Y002083D01*
X003415Y002381D01*
X003415Y002703D01*
X003292Y003001D01*
X003064Y003229D01*
X002767Y003352D01*
X002444Y003352D01*
X002147Y003229D01*
X001919Y003001D01*
X001796Y002703D01*
X001796Y002381D01*
X001919Y002083D01*
X002147Y001856D01*
X002444Y001732D01*
X002767Y001732D01*
X003064Y001856D01*
X003209Y002000D02*
X027593Y002000D01*
X027478Y002159D02*
X003323Y002159D01*
X003389Y002317D02*
X027413Y002317D01*
X027386Y002476D02*
X003415Y002476D01*
X003415Y002634D02*
X027386Y002634D01*
X027423Y002793D02*
X003378Y002793D01*
X003313Y002951D02*
X027489Y002951D01*
X027618Y003110D02*
X003183Y003110D01*
X002969Y003268D02*
X027832Y003268D01*
X025515Y012937D02*
X018036Y012937D01*
X018194Y013095D02*
X025515Y013095D01*
X025515Y013254D02*
X018353Y013254D01*
X018511Y013412D02*
X025515Y013412D01*
X025515Y013571D02*
X018670Y013571D01*
X018828Y013729D02*
X025515Y013729D01*
X025515Y013888D02*
X018987Y013888D01*
X019145Y014046D02*
X025515Y014046D01*
X025515Y014205D02*
X019304Y014205D01*
X019338Y014550D02*
X017763Y012975D01*
X016385Y012975D01*
X016125Y012937D02*
X000817Y012937D01*
X000817Y013095D02*
X016137Y013095D01*
X017730Y013254D02*
X000817Y013254D01*
X000817Y013412D02*
X017889Y013412D01*
X018047Y013571D02*
X000817Y013571D01*
X000817Y013729D02*
X018206Y013729D01*
X018364Y013888D02*
X000817Y013888D01*
X000817Y014046D02*
X018523Y014046D01*
X019338Y014550D02*
X020519Y014550D01*
X020700Y014363D02*
X025515Y014363D01*
X025515Y014522D02*
X020779Y014522D01*
X020756Y014680D02*
X025515Y014680D01*
X025735Y016174D02*
X026474Y016912D01*
X027212Y018290D02*
X024062Y018290D01*
X021700Y018290D01*
X019141Y015731D01*
X017763Y015731D01*
X017826Y016107D02*
X019205Y016107D01*
X019364Y016265D02*
X017793Y016265D01*
X017566Y016125D02*
X017320Y015879D01*
X017320Y015633D01*
X018009Y014944D01*
X017749Y014839D02*
X000817Y014839D01*
X000817Y014997D02*
X017644Y014997D01*
X017486Y015156D02*
X000817Y015156D01*
X000817Y015314D02*
X017327Y015314D01*
X017169Y015473D02*
X000817Y015473D01*
X000817Y015631D02*
X017100Y015631D01*
X017100Y015790D02*
X000817Y015790D01*
X000817Y015948D02*
X017100Y015948D01*
X017237Y016107D02*
X013332Y016107D01*
X013327Y016102D02*
X014665Y017440D01*
X014721Y017440D01*
X014761Y017480D01*
X016040Y017480D01*
X016080Y017440D01*
X016296Y017440D01*
X016448Y017592D01*
X016448Y017649D01*
X017067Y018267D01*
X019239Y018267D01*
X019279Y018227D01*
X019495Y018227D01*
X019647Y018379D01*
X019647Y018595D01*
X019495Y018747D01*
X019279Y018747D01*
X019239Y018707D01*
X016884Y018707D01*
X016137Y017960D01*
X016080Y017960D01*
X016040Y017920D01*
X014761Y017920D01*
X014721Y017960D01*
X014506Y017960D01*
X014353Y017807D01*
X014353Y017751D01*
X013144Y016542D01*
X012497Y016542D01*
X012457Y016582D01*
X012242Y016582D01*
X012202Y016542D01*
X010824Y016542D01*
X010784Y016582D01*
X010569Y016582D01*
X010416Y016429D01*
X010416Y016214D01*
X010569Y016062D01*
X010784Y016062D01*
X010824Y016102D01*
X012202Y016102D01*
X012242Y016062D01*
X012457Y016062D01*
X012497Y016102D01*
X013327Y016102D01*
X013490Y016265D02*
X017339Y016265D01*
X017655Y017440D02*
X017871Y017440D01*
X017911Y017480D01*
X019781Y017480D01*
X019821Y017440D01*
X020036Y017440D01*
X020188Y017592D01*
X020188Y017807D01*
X020036Y017960D01*
X019821Y017960D01*
X019781Y017920D01*
X017911Y017920D01*
X017871Y017960D01*
X017655Y017960D01*
X017503Y017807D01*
X017503Y017592D01*
X017655Y017440D01*
X017562Y017533D02*
X016389Y017533D01*
X016491Y017692D02*
X017503Y017692D01*
X017546Y017850D02*
X016650Y017850D01*
X016808Y018009D02*
X021107Y018009D01*
X020949Y017850D02*
X020145Y017850D01*
X020188Y017692D02*
X020790Y017692D01*
X020632Y017533D02*
X020130Y017533D01*
X019928Y017700D02*
X017763Y017700D01*
X016967Y018167D02*
X021266Y018167D01*
X021424Y018326D02*
X019593Y018326D01*
X019647Y018484D02*
X021583Y018484D01*
X021730Y018009D02*
X029985Y018009D01*
X029985Y018167D02*
X027456Y018167D01*
X027472Y018326D02*
X029985Y018326D01*
X029985Y018484D02*
X027386Y018484D01*
X029985Y018643D02*
X019599Y018643D01*
X019387Y018487D02*
X016976Y018487D01*
X016188Y017700D01*
X014613Y017700D01*
X013235Y016322D01*
X012350Y016322D01*
X010676Y016322D01*
X010524Y016107D02*
X000817Y016107D01*
X000817Y016265D02*
X010416Y016265D01*
X010416Y016424D02*
X000817Y016424D01*
X000817Y016582D02*
X013185Y016582D01*
X013343Y016741D02*
X000817Y016741D01*
X000817Y016899D02*
X013502Y016899D01*
X013660Y017058D02*
X000817Y017058D01*
X000817Y017216D02*
X013819Y017216D01*
X013977Y017375D02*
X000817Y017375D01*
X000817Y017533D02*
X014136Y017533D01*
X014294Y017692D02*
X000817Y017692D01*
X000817Y017850D02*
X014396Y017850D01*
X014600Y017375D02*
X020473Y017375D01*
X020315Y017216D02*
X014441Y017216D01*
X014283Y017058D02*
X020156Y017058D01*
X019998Y016899D02*
X014124Y016899D01*
X013966Y016741D02*
X019839Y016741D01*
X019681Y016582D02*
X013807Y016582D01*
X013649Y016424D02*
X019522Y016424D01*
X021096Y017375D02*
X029985Y017375D01*
X029985Y017533D02*
X021254Y017533D01*
X021413Y017692D02*
X029985Y017692D01*
X029985Y017850D02*
X021571Y017850D01*
X016820Y018643D02*
X000817Y018643D01*
X000817Y018801D02*
X029985Y018801D01*
X029985Y018960D02*
X000817Y018960D01*
X000817Y019118D02*
X029985Y019118D01*
X029985Y019277D02*
X000817Y019277D01*
X000817Y019435D02*
X029985Y019435D01*
X029985Y019594D02*
X000817Y019594D01*
X000817Y019752D02*
X029985Y019752D01*
X029985Y019911D02*
X000817Y019911D01*
X000817Y020069D02*
X029985Y020069D01*
X029985Y020228D02*
X000817Y020228D01*
X000817Y020386D02*
X029985Y020386D01*
X029985Y020545D02*
X000817Y020545D01*
X000817Y020703D02*
X029985Y020703D01*
X029985Y020862D02*
X000817Y020862D01*
X000817Y021020D02*
X029985Y021020D01*
X029985Y021179D02*
X000817Y021179D01*
X000817Y021337D02*
X029985Y021337D01*
X029985Y021496D02*
X000817Y021496D01*
X000817Y021654D02*
X029985Y021654D01*
X029985Y021813D02*
X000817Y021813D01*
X000817Y021971D02*
X029985Y021971D01*
X029985Y022130D02*
X000817Y022130D01*
X000817Y022288D02*
X029985Y022288D01*
X029985Y022447D02*
X000817Y022447D01*
X000817Y022605D02*
X029985Y022605D01*
X029985Y022764D02*
X000817Y022764D01*
X000817Y022922D02*
X029985Y022922D01*
X029985Y023081D02*
X000817Y023081D01*
X000817Y023239D02*
X029985Y023239D01*
X029985Y023398D02*
X000817Y023398D01*
X000817Y023556D02*
X029985Y023556D01*
X029985Y023715D02*
X000817Y023715D01*
X000817Y023873D02*
X029985Y023873D01*
X029985Y024032D02*
X000817Y024032D01*
X000817Y024190D02*
X029985Y024190D01*
X029985Y024349D02*
X000817Y024349D01*
X000817Y024507D02*
X029985Y024507D01*
X029985Y024666D02*
X000817Y024666D01*
X000817Y024824D02*
X029985Y024824D01*
X029985Y024983D02*
X000817Y024983D01*
X000817Y025141D02*
X029985Y025141D01*
X029985Y025300D02*
X000817Y025300D01*
X000817Y025458D02*
X029985Y025458D01*
X029985Y025617D02*
X000817Y025617D01*
X000817Y025775D02*
X029985Y025775D01*
X029985Y025934D02*
X000817Y025934D01*
X000817Y026092D02*
X029985Y026092D01*
X029985Y026251D02*
X000817Y026251D01*
X000817Y026409D02*
X029985Y026409D01*
X029985Y026568D02*
X000817Y026568D01*
X000817Y026726D02*
X029985Y026726D01*
X029985Y026885D02*
X000817Y026885D01*
X000817Y027043D02*
X029985Y027043D01*
X029985Y027202D02*
X000817Y027202D01*
X000817Y027360D02*
X002354Y027360D01*
X002444Y027323D02*
X002767Y027323D01*
X003064Y027446D01*
X003292Y027674D01*
X003415Y027972D01*
X003415Y028294D01*
X003292Y028592D01*
X003064Y028819D01*
X002767Y028943D01*
X002444Y028943D01*
X002147Y028819D01*
X001919Y028592D01*
X001796Y028294D01*
X001796Y027972D01*
X001919Y027674D01*
X002147Y027446D01*
X002444Y027323D01*
X002074Y027519D02*
X000817Y027519D01*
X000817Y027677D02*
X001918Y027677D01*
X001852Y027836D02*
X000817Y027836D01*
X000817Y027994D02*
X001796Y027994D01*
X001796Y028153D02*
X000817Y028153D01*
X000817Y028311D02*
X001803Y028311D01*
X001868Y028470D02*
X000817Y028470D01*
X000817Y028628D02*
X001956Y028628D01*
X002114Y028787D02*
X000817Y028787D01*
X000817Y028945D02*
X029985Y028945D01*
X029985Y028787D02*
X028687Y028787D01*
X028655Y028819D02*
X028357Y028943D01*
X028035Y028943D01*
X027737Y028819D01*
X027509Y028592D01*
X027386Y028294D01*
X027386Y027972D01*
X027509Y027674D01*
X027737Y027446D01*
X028035Y027323D01*
X028357Y027323D01*
X028655Y027446D01*
X028883Y027674D01*
X029006Y027972D01*
X029006Y028294D01*
X028883Y028592D01*
X028655Y028819D01*
X028846Y028628D02*
X029985Y028628D01*
X029985Y028470D02*
X028933Y028470D01*
X028999Y028311D02*
X029985Y028311D01*
X029985Y028153D02*
X029006Y028153D01*
X029006Y027994D02*
X029985Y027994D01*
X029985Y027836D02*
X028950Y027836D01*
X028884Y027677D02*
X029985Y027677D01*
X029985Y027519D02*
X028727Y027519D01*
X028447Y027360D02*
X029985Y027360D01*
X029985Y029104D02*
X000817Y029104D01*
X000817Y029262D02*
X029985Y029262D01*
X029985Y029421D02*
X000817Y029421D01*
X000817Y029579D02*
X029985Y029579D01*
X029985Y029738D02*
X000817Y029738D01*
X000817Y029896D02*
X029985Y029896D01*
X027705Y028787D02*
X003097Y028787D01*
X003255Y028628D02*
X027546Y028628D01*
X027459Y028470D02*
X003343Y028470D01*
X003408Y028311D02*
X027393Y028311D01*
X027386Y028153D02*
X003415Y028153D01*
X003415Y027994D02*
X027386Y027994D01*
X027442Y027836D02*
X003359Y027836D01*
X003293Y027677D02*
X027508Y027677D01*
X027665Y027519D02*
X003137Y027519D01*
X002857Y027360D02*
X027945Y027360D01*
X016662Y018484D02*
X000817Y018484D01*
X000817Y018326D02*
X016503Y018326D01*
X016345Y018167D02*
X000817Y018167D01*
X000817Y018009D02*
X016186Y018009D01*
X014327Y014680D02*
X000817Y014680D01*
X000817Y014522D02*
X014304Y014522D01*
X002242Y003268D02*
X000817Y003268D01*
X000817Y003110D02*
X002028Y003110D01*
X001898Y002951D02*
X000817Y002951D01*
X000817Y002793D02*
X001833Y002793D01*
X001796Y002634D02*
X000817Y002634D01*
X000817Y002476D02*
X001796Y002476D01*
X001822Y002317D02*
X000817Y002317D01*
X000817Y002159D02*
X001888Y002159D01*
X002002Y002000D02*
X000817Y002000D01*
X000817Y001842D02*
X002180Y001842D01*
D14*
X014417Y012582D03*
X014564Y014550D03*
X015401Y015337D03*
X017566Y016125D03*
X017763Y015731D03*
X018009Y014944D03*
X016385Y012975D03*
X019338Y012582D03*
X020125Y012975D03*
X020519Y014550D03*
X020716Y016765D03*
X019928Y017700D03*
X019387Y018487D03*
X017763Y017700D03*
X016188Y017700D03*
X014613Y017700D03*
X012350Y016322D03*
X010676Y016322D03*
X015401Y021046D03*
X024062Y018290D03*
X026474Y016912D03*
X027212Y018290D03*
X016976Y007414D03*
X023668Y006873D03*
X003983Y015141D03*
M02*
