G75*
G70*
%OFA0B0*%
%FSLAX24Y24*%
%IPPOS*%
%LPD*%
%AMOC8*
5,1,8,0,0,1.08239X$1,22.5*
%
%ADD10C,0.0000*%
%ADD11OC8,0.0600*%
%ADD12R,0.0394X0.0433*%
%ADD13R,0.0220X0.0500*%
%ADD14R,0.0500X0.0220*%
%ADD15R,0.1181X0.0591*%
%ADD16R,0.0433X0.0394*%
%ADD17R,0.0551X0.0138*%
%ADD18R,0.0748X0.0709*%
%ADD19R,0.0472X0.0787*%
%ADD20OC8,0.1250*%
%ADD21R,0.0390X0.0120*%
%ADD22R,0.1575X0.1575*%
%ADD23R,0.0236X0.1575*%
%ADD24C,0.0160*%
%ADD25OC8,0.0240*%
%ADD26C,0.1000*%
%ADD27C,0.0120*%
%ADD28C,0.0100*%
D10*
X000637Y000574D02*
X030165Y000574D01*
X030165Y030101D01*
X000637Y030101D01*
X000637Y000574D01*
X001976Y002542D02*
X001978Y002592D01*
X001984Y002642D01*
X001994Y002691D01*
X002008Y002739D01*
X002025Y002786D01*
X002046Y002831D01*
X002071Y002875D01*
X002099Y002916D01*
X002131Y002955D01*
X002165Y002992D01*
X002202Y003026D01*
X002242Y003056D01*
X002284Y003083D01*
X002328Y003107D01*
X002374Y003128D01*
X002421Y003144D01*
X002469Y003157D01*
X002519Y003166D01*
X002568Y003171D01*
X002619Y003172D01*
X002669Y003169D01*
X002718Y003162D01*
X002767Y003151D01*
X002815Y003136D01*
X002861Y003118D01*
X002906Y003096D01*
X002949Y003070D01*
X002990Y003041D01*
X003029Y003009D01*
X003065Y002974D01*
X003097Y002936D01*
X003127Y002896D01*
X003154Y002853D01*
X003177Y002809D01*
X003196Y002763D01*
X003212Y002715D01*
X003224Y002666D01*
X003232Y002617D01*
X003236Y002567D01*
X003236Y002517D01*
X003232Y002467D01*
X003224Y002418D01*
X003212Y002369D01*
X003196Y002321D01*
X003177Y002275D01*
X003154Y002231D01*
X003127Y002188D01*
X003097Y002148D01*
X003065Y002110D01*
X003029Y002075D01*
X002990Y002043D01*
X002949Y002014D01*
X002906Y001988D01*
X002861Y001966D01*
X002815Y001948D01*
X002767Y001933D01*
X002718Y001922D01*
X002669Y001915D01*
X002619Y001912D01*
X002568Y001913D01*
X002519Y001918D01*
X002469Y001927D01*
X002421Y001940D01*
X002374Y001956D01*
X002328Y001977D01*
X002284Y002001D01*
X002242Y002028D01*
X002202Y002058D01*
X002165Y002092D01*
X002131Y002129D01*
X002099Y002168D01*
X002071Y002209D01*
X002046Y002253D01*
X002025Y002298D01*
X002008Y002345D01*
X001994Y002393D01*
X001984Y002442D01*
X001978Y002492D01*
X001976Y002542D01*
X001976Y028133D02*
X001978Y028183D01*
X001984Y028233D01*
X001994Y028282D01*
X002008Y028330D01*
X002025Y028377D01*
X002046Y028422D01*
X002071Y028466D01*
X002099Y028507D01*
X002131Y028546D01*
X002165Y028583D01*
X002202Y028617D01*
X002242Y028647D01*
X002284Y028674D01*
X002328Y028698D01*
X002374Y028719D01*
X002421Y028735D01*
X002469Y028748D01*
X002519Y028757D01*
X002568Y028762D01*
X002619Y028763D01*
X002669Y028760D01*
X002718Y028753D01*
X002767Y028742D01*
X002815Y028727D01*
X002861Y028709D01*
X002906Y028687D01*
X002949Y028661D01*
X002990Y028632D01*
X003029Y028600D01*
X003065Y028565D01*
X003097Y028527D01*
X003127Y028487D01*
X003154Y028444D01*
X003177Y028400D01*
X003196Y028354D01*
X003212Y028306D01*
X003224Y028257D01*
X003232Y028208D01*
X003236Y028158D01*
X003236Y028108D01*
X003232Y028058D01*
X003224Y028009D01*
X003212Y027960D01*
X003196Y027912D01*
X003177Y027866D01*
X003154Y027822D01*
X003127Y027779D01*
X003097Y027739D01*
X003065Y027701D01*
X003029Y027666D01*
X002990Y027634D01*
X002949Y027605D01*
X002906Y027579D01*
X002861Y027557D01*
X002815Y027539D01*
X002767Y027524D01*
X002718Y027513D01*
X002669Y027506D01*
X002619Y027503D01*
X002568Y027504D01*
X002519Y027509D01*
X002469Y027518D01*
X002421Y027531D01*
X002374Y027547D01*
X002328Y027568D01*
X002284Y027592D01*
X002242Y027619D01*
X002202Y027649D01*
X002165Y027683D01*
X002131Y027720D01*
X002099Y027759D01*
X002071Y027800D01*
X002046Y027844D01*
X002025Y027889D01*
X002008Y027936D01*
X001994Y027984D01*
X001984Y028033D01*
X001978Y028083D01*
X001976Y028133D01*
X027566Y028133D02*
X027568Y028183D01*
X027574Y028233D01*
X027584Y028282D01*
X027598Y028330D01*
X027615Y028377D01*
X027636Y028422D01*
X027661Y028466D01*
X027689Y028507D01*
X027721Y028546D01*
X027755Y028583D01*
X027792Y028617D01*
X027832Y028647D01*
X027874Y028674D01*
X027918Y028698D01*
X027964Y028719D01*
X028011Y028735D01*
X028059Y028748D01*
X028109Y028757D01*
X028158Y028762D01*
X028209Y028763D01*
X028259Y028760D01*
X028308Y028753D01*
X028357Y028742D01*
X028405Y028727D01*
X028451Y028709D01*
X028496Y028687D01*
X028539Y028661D01*
X028580Y028632D01*
X028619Y028600D01*
X028655Y028565D01*
X028687Y028527D01*
X028717Y028487D01*
X028744Y028444D01*
X028767Y028400D01*
X028786Y028354D01*
X028802Y028306D01*
X028814Y028257D01*
X028822Y028208D01*
X028826Y028158D01*
X028826Y028108D01*
X028822Y028058D01*
X028814Y028009D01*
X028802Y027960D01*
X028786Y027912D01*
X028767Y027866D01*
X028744Y027822D01*
X028717Y027779D01*
X028687Y027739D01*
X028655Y027701D01*
X028619Y027666D01*
X028580Y027634D01*
X028539Y027605D01*
X028496Y027579D01*
X028451Y027557D01*
X028405Y027539D01*
X028357Y027524D01*
X028308Y027513D01*
X028259Y027506D01*
X028209Y027503D01*
X028158Y027504D01*
X028109Y027509D01*
X028059Y027518D01*
X028011Y027531D01*
X027964Y027547D01*
X027918Y027568D01*
X027874Y027592D01*
X027832Y027619D01*
X027792Y027649D01*
X027755Y027683D01*
X027721Y027720D01*
X027689Y027759D01*
X027661Y027800D01*
X027636Y027844D01*
X027615Y027889D01*
X027598Y027936D01*
X027584Y027984D01*
X027574Y028033D01*
X027568Y028083D01*
X027566Y028133D01*
X027566Y002542D02*
X027568Y002592D01*
X027574Y002642D01*
X027584Y002691D01*
X027598Y002739D01*
X027615Y002786D01*
X027636Y002831D01*
X027661Y002875D01*
X027689Y002916D01*
X027721Y002955D01*
X027755Y002992D01*
X027792Y003026D01*
X027832Y003056D01*
X027874Y003083D01*
X027918Y003107D01*
X027964Y003128D01*
X028011Y003144D01*
X028059Y003157D01*
X028109Y003166D01*
X028158Y003171D01*
X028209Y003172D01*
X028259Y003169D01*
X028308Y003162D01*
X028357Y003151D01*
X028405Y003136D01*
X028451Y003118D01*
X028496Y003096D01*
X028539Y003070D01*
X028580Y003041D01*
X028619Y003009D01*
X028655Y002974D01*
X028687Y002936D01*
X028717Y002896D01*
X028744Y002853D01*
X028767Y002809D01*
X028786Y002763D01*
X028802Y002715D01*
X028814Y002666D01*
X028822Y002617D01*
X028826Y002567D01*
X028826Y002517D01*
X028822Y002467D01*
X028814Y002418D01*
X028802Y002369D01*
X028786Y002321D01*
X028767Y002275D01*
X028744Y002231D01*
X028717Y002188D01*
X028687Y002148D01*
X028655Y002110D01*
X028619Y002075D01*
X028580Y002043D01*
X028539Y002014D01*
X028496Y001988D01*
X028451Y001966D01*
X028405Y001948D01*
X028357Y001933D01*
X028308Y001922D01*
X028259Y001915D01*
X028209Y001912D01*
X028158Y001913D01*
X028109Y001918D01*
X028059Y001927D01*
X028011Y001940D01*
X027964Y001956D01*
X027918Y001977D01*
X027874Y002001D01*
X027832Y002028D01*
X027792Y002058D01*
X027755Y002092D01*
X027721Y002129D01*
X027689Y002168D01*
X027661Y002209D01*
X027636Y002253D01*
X027615Y002298D01*
X027598Y002345D01*
X027584Y002393D01*
X027574Y002442D01*
X027568Y002492D01*
X027566Y002542D01*
D11*
X016401Y004798D03*
X016401Y005798D03*
X015401Y005798D03*
X015401Y004798D03*
X014401Y004798D03*
X014401Y005798D03*
D12*
X006483Y008448D03*
X005814Y008448D03*
X005814Y009432D03*
X006483Y009432D03*
X006483Y010416D03*
X005814Y010416D03*
X006543Y015003D03*
X006543Y015672D03*
X006483Y020259D03*
X005814Y020259D03*
X005814Y021243D03*
X006483Y021243D03*
X006483Y022227D03*
X005814Y022227D03*
X019397Y016125D03*
X020066Y016125D03*
X020066Y013763D03*
X019397Y013763D03*
X024318Y010416D03*
X024987Y010416D03*
X024987Y009432D03*
X024318Y009432D03*
X024318Y008448D03*
X024987Y008448D03*
X024987Y019274D03*
X024318Y019274D03*
X024318Y020259D03*
X024987Y020259D03*
X024987Y021243D03*
X024318Y021243D03*
X024318Y022227D03*
X024987Y022227D03*
D13*
X016503Y017027D03*
X016188Y017027D03*
X015873Y017027D03*
X015558Y017027D03*
X015243Y017027D03*
X014928Y017027D03*
X014613Y017027D03*
X014298Y017027D03*
X014298Y013647D03*
X014613Y013647D03*
X014928Y013647D03*
X015243Y013647D03*
X015558Y013647D03*
X015873Y013647D03*
X016188Y013647D03*
X016503Y013647D03*
D14*
X017091Y014235D03*
X017091Y014550D03*
X017091Y014865D03*
X017091Y015180D03*
X017091Y015495D03*
X017091Y015810D03*
X017091Y016125D03*
X017091Y016440D03*
X013711Y016440D03*
X013711Y016125D03*
X013711Y015810D03*
X013711Y015495D03*
X013711Y015180D03*
X013711Y014865D03*
X013711Y014550D03*
X013711Y014235D03*
D15*
X021503Y014550D03*
X021503Y013763D03*
X021503Y012975D03*
X021503Y015337D03*
X021503Y016125D03*
X021503Y016912D03*
X021503Y017700D03*
X027802Y017700D03*
X027802Y016912D03*
X027802Y016125D03*
X027802Y015337D03*
X027802Y014550D03*
X027802Y013763D03*
X027802Y012975D03*
D16*
X024987Y011400D03*
X024318Y011400D03*
X015735Y012582D03*
X015066Y012582D03*
X012350Y015003D03*
X012350Y015672D03*
X012350Y017070D03*
X012350Y017739D03*
X013629Y017857D03*
X013629Y018526D03*
X015066Y018290D03*
X015735Y018290D03*
D17*
X002271Y015849D03*
X002271Y015593D03*
X002271Y015337D03*
X002271Y015082D03*
X002271Y014826D03*
D18*
X001228Y013763D03*
X001228Y016912D03*
D19*
X005361Y015889D03*
X005361Y014786D03*
D20*
X027802Y011400D03*
D21*
X016550Y019150D03*
X016550Y019406D03*
X016550Y019662D03*
X016550Y019918D03*
X016550Y020174D03*
X016550Y020430D03*
X016550Y020686D03*
X016550Y020942D03*
X016550Y021198D03*
X016550Y021454D03*
X016550Y021710D03*
X016550Y021965D03*
X016550Y022221D03*
X016550Y022477D03*
X014252Y022477D03*
X014252Y022221D03*
X014252Y021965D03*
X014252Y021710D03*
X014252Y021454D03*
X014252Y021198D03*
X014252Y020942D03*
X014252Y020686D03*
X014252Y020430D03*
X014252Y020174D03*
X014252Y019918D03*
X014252Y019662D03*
X014252Y019406D03*
X014252Y019150D03*
D22*
X010539Y020180D03*
X008452Y020180D03*
X008452Y022306D03*
X010539Y022306D03*
X020263Y022306D03*
X022350Y022306D03*
X022350Y020180D03*
X020263Y020180D03*
X020263Y010495D03*
X022350Y010495D03*
X022350Y008369D03*
X020263Y008369D03*
X010539Y008369D03*
X008452Y008369D03*
X008452Y010495D03*
X010539Y010495D03*
D23*
X009495Y010495D03*
X009495Y008369D03*
X009495Y020180D03*
X009495Y022306D03*
X021306Y022306D03*
X021306Y020180D03*
X021306Y010495D03*
X021306Y008369D03*
D24*
X022350Y008369D02*
X023413Y009432D01*
X024318Y009432D01*
X024987Y009432D02*
X024987Y010416D01*
X024987Y011400D01*
X025046Y011460D01*
X025046Y011991D01*
X026818Y013763D01*
X027802Y013763D01*
X027072Y013983D02*
X027072Y014116D01*
X027084Y014128D01*
X027068Y014144D01*
X027044Y014185D01*
X027032Y014231D01*
X027032Y014482D01*
X027735Y014482D01*
X027735Y014618D01*
X027032Y014618D01*
X027032Y014869D01*
X027044Y014915D01*
X027068Y014956D01*
X027084Y014972D01*
X027072Y014984D01*
X027072Y015691D01*
X027112Y015731D01*
X027072Y015772D01*
X027072Y016478D01*
X027112Y016519D01*
X027072Y016559D01*
X027072Y016692D01*
X026621Y016692D01*
X026581Y016652D01*
X026366Y016652D01*
X026214Y016805D01*
X026214Y017020D01*
X026366Y017172D01*
X026581Y017172D01*
X026621Y017132D01*
X027072Y017132D01*
X027072Y017266D01*
X027112Y017306D01*
X027072Y017346D01*
X027072Y018053D01*
X027077Y018058D01*
X026952Y018183D01*
X026952Y018398D01*
X027104Y018550D01*
X027319Y018550D01*
X027472Y018398D01*
X027472Y018341D01*
X027678Y018135D01*
X028451Y018135D01*
X028533Y018053D01*
X028533Y017346D01*
X028492Y017306D01*
X028533Y017266D01*
X028533Y016559D01*
X028492Y016519D01*
X028533Y016478D01*
X028533Y016345D01*
X028681Y016345D01*
X029203Y015822D01*
X029203Y010620D01*
X024842Y006259D01*
X019429Y006259D01*
X018229Y005059D01*
X018229Y005059D01*
X018100Y004930D01*
X018100Y004930D01*
X017196Y004026D01*
X017196Y004026D01*
X017067Y003897D01*
X015802Y003897D01*
X015673Y004026D01*
X015341Y004358D01*
X015219Y004358D01*
X014961Y004616D01*
X014961Y004980D01*
X015219Y005238D01*
X015583Y005238D01*
X015841Y004980D01*
X015841Y004616D01*
X015773Y004548D01*
X015984Y004337D01*
X016884Y004337D01*
X017789Y005242D01*
X017789Y014796D01*
X017749Y014836D01*
X017749Y014865D01*
X017737Y014853D01*
X017737Y006823D01*
X016841Y005927D01*
X016841Y005616D01*
X016583Y005358D01*
X016219Y005358D01*
X016113Y005464D01*
X016113Y005397D01*
X016272Y005238D01*
X016583Y005238D01*
X016841Y004980D01*
X016841Y004616D01*
X016583Y004358D01*
X016219Y004358D01*
X015961Y004616D01*
X015961Y004927D01*
X015810Y005078D01*
X015802Y005078D01*
X015673Y005207D01*
X015673Y005448D01*
X015583Y005358D01*
X015219Y005358D01*
X014961Y005616D01*
X014961Y005980D01*
X015219Y006238D01*
X015583Y006238D01*
X015673Y006148D01*
X015673Y012245D01*
X015461Y012245D01*
X015428Y012277D01*
X015427Y012274D01*
X015393Y012241D01*
X015352Y012217D01*
X015306Y012205D01*
X015085Y012205D01*
X015085Y012563D01*
X015048Y012563D01*
X015048Y012205D01*
X014826Y012205D01*
X014780Y012217D01*
X014739Y012241D01*
X014706Y012274D01*
X014682Y012315D01*
X014670Y012361D01*
X014670Y012467D01*
X014524Y012322D01*
X014309Y012322D01*
X014157Y012474D01*
X014157Y012530D01*
X014078Y012609D01*
X014078Y013309D01*
X014048Y013339D01*
X014048Y013955D01*
X014108Y014015D01*
X014049Y014015D01*
X014019Y013985D01*
X013403Y013985D01*
X013357Y014031D01*
X013357Y013165D01*
X014492Y012030D01*
X014621Y011901D01*
X014621Y006200D01*
X014841Y005980D01*
X014841Y005616D01*
X014583Y005358D01*
X014219Y005358D01*
X013961Y005616D01*
X013961Y005980D01*
X014181Y006200D01*
X014181Y011719D01*
X012943Y012956D01*
X012943Y009152D01*
X012077Y008286D01*
X011960Y008169D01*
X011466Y008169D01*
X011466Y007524D01*
X011384Y007442D01*
X009693Y007442D01*
X009682Y007452D01*
X009671Y007442D01*
X009319Y007442D01*
X009308Y007452D01*
X009297Y007442D01*
X007607Y007442D01*
X007525Y007524D01*
X007525Y008228D01*
X006820Y008228D01*
X006820Y008173D01*
X006738Y008091D01*
X006229Y008091D01*
X006149Y008171D01*
X006069Y008091D01*
X005559Y008091D01*
X005477Y008173D01*
X005477Y008722D01*
X005559Y008804D01*
X005594Y008804D01*
X005594Y009075D01*
X005559Y009075D01*
X005477Y009157D01*
X005477Y009706D01*
X005559Y009789D01*
X005594Y009789D01*
X005594Y010060D01*
X005559Y010060D01*
X005477Y010142D01*
X005477Y010691D01*
X005559Y010773D01*
X005594Y010773D01*
X005594Y013372D01*
X005723Y013500D01*
X005723Y013500D01*
X006765Y014543D01*
X006765Y014607D01*
X006763Y014606D01*
X006561Y014606D01*
X006561Y014984D01*
X006524Y014984D01*
X006524Y014606D01*
X006322Y014606D01*
X006276Y014619D01*
X006235Y014642D01*
X006202Y014676D01*
X006178Y014717D01*
X006166Y014763D01*
X006166Y014984D01*
X006524Y014984D01*
X006524Y015021D01*
X006166Y015021D01*
X006166Y015243D01*
X006178Y015289D01*
X006202Y015330D01*
X006235Y015363D01*
X006238Y015365D01*
X006206Y015398D01*
X006206Y015669D01*
X005738Y015669D01*
X005738Y015437D01*
X005656Y015355D01*
X005640Y015355D01*
X005667Y015348D01*
X005708Y015324D01*
X005742Y015291D01*
X005765Y015249D01*
X005778Y015204D01*
X005778Y014824D01*
X005400Y014824D01*
X005400Y014748D01*
X005778Y014748D01*
X005778Y014369D01*
X005765Y014323D01*
X005742Y014282D01*
X005708Y014249D01*
X005667Y014225D01*
X005621Y014213D01*
X005400Y014213D01*
X005400Y014748D01*
X005323Y014748D01*
X004945Y014748D01*
X004945Y014369D01*
X004957Y014323D01*
X004981Y014282D01*
X005015Y014249D01*
X005056Y014225D01*
X005101Y014213D01*
X005323Y014213D01*
X005323Y014748D01*
X005323Y014824D01*
X004945Y014824D01*
X004945Y015204D01*
X004957Y015249D01*
X004981Y015291D01*
X005015Y015324D01*
X005056Y015348D01*
X005083Y015355D01*
X005067Y015355D01*
X004985Y015437D01*
X004985Y015669D01*
X002686Y015669D01*
X002686Y015466D01*
X002685Y015465D01*
X002686Y015464D01*
X002686Y015211D01*
X002685Y015210D01*
X002686Y015208D01*
X002686Y015009D01*
X002690Y015005D01*
X002714Y014964D01*
X002726Y014918D01*
X002726Y014826D01*
X002271Y014826D01*
X002271Y014826D01*
X002310Y014786D01*
X005361Y014786D01*
X005263Y014688D01*
X005263Y007562D01*
X007527Y005298D01*
X013826Y005298D01*
X014810Y005298D01*
X014909Y005397D01*
X014909Y012424D01*
X015066Y012582D01*
X014958Y012473D01*
X015048Y012461D02*
X015085Y012461D01*
X015066Y012582D02*
X014928Y012719D01*
X014928Y013647D01*
X014928Y013647D01*
X014928Y013217D01*
X014795Y013217D01*
X014749Y013230D01*
X014708Y013253D01*
X014704Y013257D01*
X014518Y013257D01*
X014518Y012842D01*
X014524Y012842D01*
X014670Y012696D01*
X014670Y012802D01*
X014682Y012848D01*
X014706Y012889D01*
X014739Y012922D01*
X014780Y012946D01*
X014826Y012958D01*
X015048Y012958D01*
X015048Y012600D01*
X015085Y012600D01*
X015085Y012958D01*
X015303Y012958D01*
X015181Y013081D01*
X015044Y013217D01*
X014928Y013217D01*
X014928Y013647D01*
X014928Y014127D01*
X015253Y014452D01*
X015558Y014147D01*
X015558Y013647D01*
X015558Y014077D01*
X015425Y014077D01*
X015379Y014065D01*
X015338Y014042D01*
X015334Y014037D01*
X015153Y014037D01*
X015149Y014042D01*
X015108Y014065D01*
X015062Y014077D01*
X014928Y014077D01*
X014795Y014077D01*
X014749Y014065D01*
X014708Y014042D01*
X014704Y014037D01*
X014363Y014037D01*
X014469Y014144D01*
X014615Y014290D01*
X014672Y014290D01*
X014824Y014442D01*
X014824Y014658D01*
X014672Y014810D01*
X014456Y014810D01*
X014304Y014658D01*
X014304Y014601D01*
X014158Y014455D01*
X014101Y014455D01*
X014101Y016608D01*
X014019Y016690D01*
X013403Y016690D01*
X013321Y016608D01*
X013321Y016126D01*
X013239Y016208D01*
X013239Y018109D01*
X013337Y018207D01*
X013352Y018192D01*
X013273Y018112D01*
X013273Y017602D01*
X013355Y017520D01*
X013904Y017520D01*
X013986Y017602D01*
X013986Y017637D01*
X014107Y017637D01*
X014236Y017766D01*
X014353Y017649D01*
X014353Y017592D01*
X014506Y017440D01*
X014721Y017440D01*
X014873Y017592D01*
X014873Y017807D01*
X014721Y017960D01*
X014665Y017960D01*
X014554Y018070D01*
X014710Y018070D01*
X014710Y018035D01*
X014792Y017953D01*
X015341Y017953D01*
X015373Y017986D01*
X015375Y017983D01*
X015408Y017949D01*
X015449Y017926D01*
X015495Y017913D01*
X015717Y017913D01*
X015717Y018272D01*
X015754Y018272D01*
X015754Y018309D01*
X015717Y018309D01*
X015717Y018667D01*
X015495Y018667D01*
X015449Y018655D01*
X015408Y018631D01*
X015375Y018598D01*
X015373Y018595D01*
X015341Y018627D01*
X014792Y018627D01*
X014710Y018545D01*
X014710Y018510D01*
X014705Y018510D01*
X014472Y018743D01*
X014472Y018950D01*
X014505Y018950D01*
X014587Y019032D01*
X014587Y019268D01*
X014577Y019278D01*
X014587Y019288D01*
X014587Y019524D01*
X014577Y019534D01*
X014587Y019544D01*
X014587Y019744D01*
X014591Y019748D01*
X014615Y019789D01*
X014627Y019834D01*
X014627Y019918D01*
X014252Y019918D01*
X013877Y019918D01*
X013877Y019868D01*
X013349Y019868D01*
X012759Y019278D01*
X012648Y019167D01*
X012648Y019782D01*
X013608Y020742D01*
X013917Y020742D01*
X013917Y020605D01*
X013913Y020601D01*
X013889Y020559D01*
X013877Y020514D01*
X013877Y020430D01*
X013877Y020346D01*
X013889Y020302D01*
X013877Y020258D01*
X013877Y020174D01*
X013877Y020090D01*
X013889Y020046D01*
X013877Y020002D01*
X013877Y019918D01*
X014252Y019918D01*
X014252Y019918D01*
X014252Y019918D01*
X014252Y020174D01*
X013877Y020174D01*
X014252Y020174D01*
X014252Y020174D01*
X014252Y020174D01*
X014627Y020174D01*
X014627Y020090D01*
X014615Y020046D01*
X014627Y020002D01*
X014627Y019918D01*
X014252Y019918D01*
X014252Y020174D02*
X014252Y020430D01*
X013877Y020430D01*
X014252Y020430D01*
X014252Y020430D01*
X015769Y020430D01*
X015991Y020652D01*
X015991Y022227D01*
X016241Y022477D01*
X016550Y022477D01*
X016550Y022477D01*
X016925Y022477D01*
X016925Y022394D01*
X016912Y022348D01*
X016889Y022307D01*
X016885Y022303D01*
X016885Y022165D01*
X019336Y022165D01*
X019336Y023151D01*
X019418Y023233D01*
X021108Y023233D01*
X021119Y023222D01*
X021130Y023233D01*
X021482Y023233D01*
X021493Y023222D01*
X021504Y023233D01*
X023195Y023233D01*
X023277Y023151D01*
X023277Y022447D01*
X023981Y022447D01*
X023981Y022502D01*
X024063Y022584D01*
X024573Y022584D01*
X024653Y022504D01*
X024733Y022584D01*
X025242Y022584D01*
X025324Y022502D01*
X025324Y021953D01*
X025242Y021871D01*
X025207Y021871D01*
X025207Y021600D01*
X025242Y021600D01*
X025324Y021518D01*
X025324Y020968D01*
X025242Y020886D01*
X025207Y020886D01*
X025207Y020615D01*
X025242Y020615D01*
X025324Y020533D01*
X025324Y019984D01*
X025242Y019902D01*
X025207Y019902D01*
X025207Y019631D01*
X025242Y019631D01*
X025324Y019549D01*
X025324Y019000D01*
X025242Y018918D01*
X025207Y018918D01*
X025207Y017746D01*
X024744Y017283D01*
X023381Y017283D01*
X023252Y017412D01*
X023252Y017412D01*
X022421Y018242D01*
X020044Y018242D01*
X019656Y017855D01*
X019656Y016477D01*
X019731Y016402D01*
X019811Y016481D01*
X020321Y016481D01*
X020403Y016399D01*
X020403Y016345D01*
X020773Y016345D01*
X020773Y016478D01*
X020799Y016505D01*
X020608Y016505D01*
X020456Y016657D01*
X020456Y016872D01*
X020608Y017025D01*
X020773Y017025D01*
X020773Y017266D01*
X020813Y017306D01*
X020773Y017346D01*
X020773Y017480D01*
X020076Y017480D01*
X020036Y017440D01*
X019821Y017440D01*
X019668Y017592D01*
X019668Y017807D01*
X019821Y017960D01*
X020036Y017960D01*
X020076Y017920D01*
X020773Y017920D01*
X020773Y018053D01*
X020855Y018135D01*
X022152Y018135D01*
X022234Y018053D01*
X022234Y017346D01*
X022193Y017306D01*
X022234Y017266D01*
X022234Y016559D01*
X022193Y016519D01*
X022234Y016478D01*
X022234Y015772D01*
X022193Y015731D01*
X022234Y015691D01*
X022234Y014984D01*
X022193Y014944D01*
X022234Y014903D01*
X022234Y014197D01*
X022193Y014156D01*
X022234Y014116D01*
X022234Y013409D01*
X022222Y013397D01*
X022238Y013381D01*
X022261Y013340D01*
X022274Y013294D01*
X022274Y013043D01*
X021571Y013043D01*
X021571Y012908D01*
X022274Y012908D01*
X022274Y012656D01*
X022261Y012611D01*
X022238Y012569D01*
X022204Y012536D01*
X022163Y012512D01*
X022117Y012500D01*
X021571Y012500D01*
X021571Y012908D01*
X021435Y012908D01*
X020733Y012908D01*
X020733Y012656D01*
X020745Y012611D01*
X020769Y012569D01*
X020802Y012536D01*
X020843Y012512D01*
X020889Y012500D01*
X021435Y012500D01*
X021435Y012908D01*
X021435Y013043D01*
X020733Y013043D01*
X020733Y013294D01*
X020745Y013340D01*
X020769Y013381D01*
X020785Y013397D01*
X020773Y013409D01*
X020773Y013543D01*
X020403Y013543D01*
X020403Y013488D01*
X020321Y013406D01*
X019811Y013406D01*
X019731Y013486D01*
X019652Y013406D01*
X019558Y013406D01*
X019558Y012729D01*
X019598Y012689D01*
X019598Y012474D01*
X019445Y012322D01*
X019230Y012322D01*
X019144Y012408D01*
X019144Y011090D01*
X019336Y010898D01*
X019336Y011340D01*
X019418Y011422D01*
X021108Y011422D01*
X021119Y011411D01*
X021130Y011422D01*
X021482Y011422D01*
X021493Y011411D01*
X021504Y011422D01*
X023195Y011422D01*
X023277Y011340D01*
X023277Y010636D01*
X023981Y010636D01*
X023981Y010691D01*
X024063Y010773D01*
X024573Y010773D01*
X024653Y010693D01*
X024733Y010773D01*
X024767Y010773D01*
X024767Y011064D01*
X024713Y011064D01*
X024680Y011096D01*
X024679Y011093D01*
X024645Y011060D01*
X024604Y011036D01*
X024558Y011024D01*
X024337Y011024D01*
X024337Y011382D01*
X024300Y011382D01*
X024300Y011024D01*
X024078Y011024D01*
X024032Y011036D01*
X023991Y011060D01*
X023958Y011093D01*
X023934Y011134D01*
X023922Y011180D01*
X023922Y011382D01*
X024300Y011382D01*
X024300Y011419D01*
X024300Y011777D01*
X024078Y011777D01*
X024032Y011765D01*
X023991Y011741D01*
X023958Y011708D01*
X023934Y011667D01*
X023922Y011621D01*
X023922Y011419D01*
X024300Y011419D01*
X024337Y011419D01*
X024337Y011777D01*
X024558Y011777D01*
X024604Y011765D01*
X024645Y011741D01*
X024679Y011708D01*
X024680Y011705D01*
X024713Y011737D01*
X024826Y011737D01*
X024826Y012082D01*
X024955Y012211D01*
X024955Y012211D01*
X026727Y013983D01*
X027072Y013983D01*
X027072Y014046D02*
X022234Y014046D01*
X022234Y013888D02*
X026632Y013888D01*
X026474Y013729D02*
X022234Y013729D01*
X022234Y013571D02*
X026315Y013571D01*
X026157Y013412D02*
X022234Y013412D01*
X022274Y013254D02*
X025998Y013254D01*
X025840Y013095D02*
X022274Y013095D01*
X022274Y012778D02*
X025523Y012778D01*
X025681Y012937D02*
X021571Y012937D01*
X021503Y012975D02*
X022291Y012188D01*
X024259Y012188D01*
X024259Y011400D01*
X024318Y011400D01*
X024259Y011460D01*
X024300Y011510D02*
X024337Y011510D01*
X024337Y011352D02*
X024300Y011352D01*
X024300Y011193D02*
X024337Y011193D01*
X024337Y011035D02*
X024300Y011035D01*
X024036Y011035D02*
X023277Y011035D01*
X023277Y011193D02*
X023922Y011193D01*
X023922Y011352D02*
X023266Y011352D01*
X023277Y010876D02*
X024767Y010876D01*
X024767Y011035D02*
X024600Y011035D01*
X024628Y010718D02*
X024678Y010718D01*
X024318Y010416D02*
X022428Y010416D01*
X022350Y010495D01*
X023277Y010718D02*
X024008Y010718D01*
X023922Y011510D02*
X019144Y011510D01*
X019144Y011352D02*
X019347Y011352D01*
X019336Y011193D02*
X019144Y011193D01*
X019199Y011035D02*
X019336Y011035D01*
X019144Y011669D02*
X023935Y011669D01*
X024259Y012188D02*
X026621Y014550D01*
X025735Y015436D01*
X025735Y022719D01*
X024850Y023605D01*
X017763Y023605D01*
X016635Y022477D01*
X016550Y022477D01*
X016925Y022477D01*
X016925Y022561D01*
X016912Y022607D01*
X016889Y022648D01*
X016855Y022681D01*
X016814Y022705D01*
X016768Y022717D01*
X016550Y022717D01*
X016550Y022477D01*
X016550Y022477D01*
X016175Y022477D01*
X016175Y022394D01*
X016187Y022348D01*
X016210Y022307D01*
X016215Y022303D01*
X016215Y022103D01*
X016224Y022093D01*
X016215Y022083D01*
X016215Y021847D01*
X016224Y021837D01*
X016215Y021828D01*
X016215Y021592D01*
X016224Y021582D01*
X016215Y021572D01*
X016215Y021336D01*
X016224Y021326D01*
X016215Y021316D01*
X016215Y021080D01*
X016224Y021070D01*
X016215Y021060D01*
X016215Y020824D01*
X016224Y020814D01*
X016215Y020804D01*
X016215Y020568D01*
X016224Y020558D01*
X016215Y020548D01*
X016215Y020349D01*
X016210Y020345D01*
X016187Y020304D01*
X016175Y020258D01*
X016175Y020174D01*
X016175Y020090D01*
X016186Y020046D01*
X016175Y020002D01*
X016175Y019918D01*
X016175Y019834D01*
X016186Y019790D01*
X016175Y019746D01*
X016175Y019662D01*
X016175Y019579D01*
X016186Y019534D01*
X016175Y019490D01*
X016175Y019406D01*
X016175Y019323D01*
X016186Y019278D01*
X016175Y019234D01*
X016175Y019150D01*
X016175Y019067D01*
X016187Y019021D01*
X016210Y018980D01*
X016244Y018946D01*
X016285Y018923D01*
X016331Y018910D01*
X016550Y018910D01*
X016768Y018910D01*
X016814Y018923D01*
X016855Y018946D01*
X016889Y018980D01*
X016912Y019021D01*
X016925Y019067D01*
X016925Y019150D01*
X016550Y019150D01*
X016550Y019150D01*
X016550Y018910D01*
X016550Y019150D01*
X016550Y019150D01*
X016925Y019150D01*
X016925Y019234D01*
X016913Y019278D01*
X016925Y019323D01*
X016925Y019406D01*
X016550Y019406D01*
X016550Y019406D01*
X016925Y019406D01*
X016925Y019490D01*
X016913Y019534D01*
X016925Y019579D01*
X016925Y019662D01*
X016550Y019662D01*
X016550Y019662D01*
X016925Y019662D01*
X016925Y019746D01*
X016913Y019790D01*
X016925Y019834D01*
X016925Y019918D01*
X016550Y019918D01*
X016550Y019918D01*
X016925Y019918D01*
X016925Y020002D01*
X016913Y020046D01*
X016925Y020090D01*
X016925Y020174D01*
X016550Y020174D01*
X016550Y020174D01*
X016925Y020174D01*
X016925Y020230D01*
X017706Y020230D01*
X018326Y019610D01*
X018326Y016267D01*
X018297Y016296D01*
X018081Y016511D01*
X017953Y016640D01*
X017448Y016640D01*
X017399Y016690D01*
X017311Y016690D01*
X017311Y016936D01*
X017814Y017440D01*
X017871Y017440D01*
X018023Y017592D01*
X018023Y017807D01*
X017871Y017960D01*
X017655Y017960D01*
X017503Y017807D01*
X017503Y017751D01*
X017000Y017247D01*
X016871Y017119D01*
X016871Y016690D01*
X016783Y016690D01*
X016723Y016630D01*
X016723Y016689D01*
X016753Y016719D01*
X016753Y017335D01*
X016671Y017417D01*
X016408Y017417D01*
X016408Y017552D01*
X016448Y017592D01*
X016448Y017807D01*
X016296Y017960D01*
X016080Y017960D01*
X015928Y017807D01*
X015928Y017592D01*
X015968Y017552D01*
X015968Y017417D01*
X015468Y017417D01*
X015464Y017422D01*
X015423Y017445D01*
X015377Y017457D01*
X015243Y017457D01*
X015110Y017457D01*
X015064Y017445D01*
X015023Y017422D01*
X015019Y017417D01*
X014130Y017417D01*
X014048Y017335D01*
X014048Y016719D01*
X014130Y016637D01*
X015019Y016637D01*
X015023Y016633D01*
X015064Y016610D01*
X015110Y016597D01*
X015243Y016597D01*
X015243Y017027D01*
X015243Y017027D01*
X015243Y016597D01*
X015377Y016597D01*
X015423Y016610D01*
X015464Y016633D01*
X015468Y016637D01*
X015968Y016637D01*
X015968Y014494D01*
X015782Y014307D01*
X015653Y014179D01*
X015653Y014077D01*
X015558Y014077D01*
X015558Y013647D01*
X015558Y013647D01*
X015558Y013729D02*
X015558Y013729D01*
X015558Y013888D02*
X015558Y013888D01*
X015558Y014046D02*
X015558Y014046D01*
X015679Y014205D02*
X014530Y014205D01*
X014371Y014046D02*
X014716Y014046D01*
X014928Y014046D02*
X014928Y014046D01*
X014928Y014077D02*
X014928Y013647D01*
X014928Y014077D01*
X014928Y013888D02*
X014928Y013888D01*
X014928Y013729D02*
X014928Y013729D01*
X014928Y013647D02*
X014928Y013647D01*
X014928Y013571D02*
X014928Y013571D01*
X014928Y013412D02*
X014928Y013412D01*
X014928Y013254D02*
X014928Y013254D01*
X014708Y013254D02*
X014518Y013254D01*
X014518Y013095D02*
X015167Y013095D01*
X015085Y012937D02*
X015048Y012937D01*
X015048Y012778D02*
X015085Y012778D01*
X015085Y012620D02*
X015048Y012620D01*
X015056Y012582D02*
X015066Y012582D01*
X015048Y012303D02*
X015085Y012303D01*
X015673Y012144D02*
X014378Y012144D01*
X014536Y011986D02*
X015673Y011986D01*
X015673Y011827D02*
X014621Y011827D01*
X014621Y011669D02*
X015673Y011669D01*
X015673Y011510D02*
X014621Y011510D01*
X014621Y011352D02*
X015673Y011352D01*
X015673Y011193D02*
X014621Y011193D01*
X014621Y011035D02*
X015673Y011035D01*
X015673Y010876D02*
X014621Y010876D01*
X014621Y010718D02*
X015673Y010718D01*
X015673Y010559D02*
X014621Y010559D01*
X014621Y010401D02*
X015673Y010401D01*
X015673Y010242D02*
X014621Y010242D01*
X014621Y010084D02*
X015673Y010084D01*
X015673Y009925D02*
X014621Y009925D01*
X014621Y009767D02*
X015673Y009767D01*
X015673Y009608D02*
X014621Y009608D01*
X014621Y009450D02*
X015673Y009450D01*
X015673Y009291D02*
X014621Y009291D01*
X014621Y009133D02*
X015673Y009133D01*
X015673Y008974D02*
X014621Y008974D01*
X014621Y008816D02*
X015673Y008816D01*
X015673Y008657D02*
X014621Y008657D01*
X014621Y008499D02*
X015673Y008499D01*
X015673Y008340D02*
X014621Y008340D01*
X014621Y008182D02*
X015673Y008182D01*
X015673Y008023D02*
X014621Y008023D01*
X014621Y007865D02*
X015673Y007865D01*
X015673Y007706D02*
X014621Y007706D01*
X014621Y007548D02*
X015673Y007548D01*
X015673Y007389D02*
X014621Y007389D01*
X014621Y007231D02*
X015673Y007231D01*
X015673Y007072D02*
X014621Y007072D01*
X014621Y006914D02*
X015673Y006914D01*
X015673Y006755D02*
X014621Y006755D01*
X014621Y006597D02*
X015673Y006597D01*
X015673Y006438D02*
X014621Y006438D01*
X014621Y006280D02*
X015673Y006280D01*
X015102Y006121D02*
X014700Y006121D01*
X014841Y005963D02*
X014961Y005963D01*
X014961Y005804D02*
X014841Y005804D01*
X014841Y005646D02*
X014961Y005646D01*
X015089Y005487D02*
X014712Y005487D01*
X014600Y005278D02*
X014421Y005278D01*
X014421Y004818D01*
X014881Y004818D01*
X014881Y004997D01*
X014600Y005278D01*
X014707Y005170D02*
X015151Y005170D01*
X014992Y005012D02*
X014866Y005012D01*
X014881Y004853D02*
X014961Y004853D01*
X014881Y004778D02*
X014421Y004778D01*
X014421Y004818D01*
X014381Y004818D01*
X014381Y005278D01*
X014202Y005278D01*
X013921Y004997D01*
X013921Y004818D01*
X014381Y004818D01*
X014381Y004778D01*
X014421Y004778D01*
X014421Y004318D01*
X014600Y004318D01*
X014881Y004599D01*
X014881Y004778D01*
X014881Y004695D02*
X014961Y004695D01*
X015040Y004536D02*
X014818Y004536D01*
X014659Y004378D02*
X015199Y004378D01*
X015401Y004609D02*
X015893Y004117D01*
X016976Y004117D01*
X018009Y005150D01*
X019338Y006479D01*
X024751Y006479D01*
X028983Y010711D01*
X028983Y015731D01*
X028590Y016125D01*
X027802Y016125D01*
X027072Y016107D02*
X022234Y016107D01*
X022234Y016265D02*
X027072Y016265D01*
X027072Y016424D02*
X022234Y016424D01*
X022234Y016582D02*
X027072Y016582D01*
X027072Y017216D02*
X022234Y017216D01*
X022234Y017058D02*
X026251Y017058D01*
X026214Y016899D02*
X022234Y016899D01*
X022234Y016741D02*
X026277Y016741D01*
X026474Y016912D02*
X027802Y016912D01*
X028533Y016899D02*
X029985Y016899D01*
X029985Y016741D02*
X028533Y016741D01*
X028533Y016582D02*
X029985Y016582D01*
X029985Y016424D02*
X028533Y016424D01*
X028761Y016265D02*
X029985Y016265D01*
X029985Y016107D02*
X028919Y016107D01*
X029078Y015948D02*
X029985Y015948D01*
X029985Y015790D02*
X029203Y015790D01*
X029203Y015631D02*
X029985Y015631D01*
X029985Y015473D02*
X029203Y015473D01*
X029203Y015314D02*
X029985Y015314D01*
X029985Y015156D02*
X029203Y015156D01*
X029203Y014997D02*
X029985Y014997D01*
X029985Y014839D02*
X029203Y014839D01*
X029203Y014680D02*
X029985Y014680D01*
X029985Y014522D02*
X029203Y014522D01*
X029203Y014363D02*
X029985Y014363D01*
X029985Y014205D02*
X029203Y014205D01*
X029203Y014046D02*
X029985Y014046D01*
X029985Y013888D02*
X029203Y013888D01*
X029203Y013729D02*
X029985Y013729D01*
X029985Y013571D02*
X029203Y013571D01*
X029203Y013412D02*
X029985Y013412D01*
X029985Y013254D02*
X029203Y013254D01*
X029203Y013095D02*
X029985Y013095D01*
X029985Y012937D02*
X029203Y012937D01*
X029203Y012778D02*
X029985Y012778D01*
X029985Y012620D02*
X029203Y012620D01*
X029203Y012461D02*
X029985Y012461D01*
X029985Y012303D02*
X029203Y012303D01*
X029203Y012144D02*
X029985Y012144D01*
X029985Y011986D02*
X029203Y011986D01*
X029203Y011827D02*
X029985Y011827D01*
X029985Y011669D02*
X029203Y011669D01*
X029203Y011510D02*
X029985Y011510D01*
X029985Y011352D02*
X029203Y011352D01*
X029203Y011193D02*
X029985Y011193D01*
X029985Y011035D02*
X029203Y011035D01*
X029203Y010876D02*
X029985Y010876D01*
X029985Y010718D02*
X029203Y010718D01*
X029142Y010559D02*
X029985Y010559D01*
X029985Y010401D02*
X028984Y010401D01*
X028825Y010242D02*
X029985Y010242D01*
X029985Y010084D02*
X028667Y010084D01*
X028508Y009925D02*
X029985Y009925D01*
X029985Y009767D02*
X028350Y009767D01*
X028191Y009608D02*
X029985Y009608D01*
X029985Y009450D02*
X028033Y009450D01*
X027874Y009291D02*
X029985Y009291D01*
X029985Y009133D02*
X027716Y009133D01*
X027557Y008974D02*
X029985Y008974D01*
X029985Y008816D02*
X027399Y008816D01*
X027240Y008657D02*
X029985Y008657D01*
X029985Y008499D02*
X027082Y008499D01*
X026923Y008340D02*
X029985Y008340D01*
X029985Y008182D02*
X026765Y008182D01*
X026606Y008023D02*
X029985Y008023D01*
X029985Y007865D02*
X026448Y007865D01*
X026289Y007706D02*
X029985Y007706D01*
X029985Y007548D02*
X026131Y007548D01*
X025972Y007389D02*
X029985Y007389D01*
X029985Y007231D02*
X025814Y007231D01*
X025655Y007072D02*
X029985Y007072D01*
X029985Y006914D02*
X025497Y006914D01*
X025338Y006755D02*
X029985Y006755D01*
X029985Y006597D02*
X025180Y006597D01*
X025021Y006438D02*
X029985Y006438D01*
X029985Y006280D02*
X024863Y006280D01*
X023668Y006873D02*
X024987Y008192D01*
X024987Y008448D01*
X024987Y009432D01*
X024318Y008448D02*
X024318Y008310D01*
X023176Y007168D01*
X020716Y007168D01*
X020263Y007621D01*
X020263Y008369D01*
X019291Y006121D02*
X029985Y006121D01*
X029985Y005963D02*
X019132Y005963D01*
X018974Y005804D02*
X029985Y005804D01*
X029985Y005646D02*
X018815Y005646D01*
X018657Y005487D02*
X029985Y005487D01*
X029985Y005329D02*
X018498Y005329D01*
X018340Y005170D02*
X029985Y005170D01*
X029985Y005012D02*
X018181Y005012D01*
X018009Y005150D02*
X018009Y014944D01*
X017749Y014839D02*
X017737Y014839D01*
X017737Y014680D02*
X017789Y014680D01*
X017789Y014522D02*
X017737Y014522D01*
X017737Y014363D02*
X017789Y014363D01*
X017789Y014205D02*
X017737Y014205D01*
X017737Y014046D02*
X017789Y014046D01*
X017789Y013888D02*
X017737Y013888D01*
X017737Y013729D02*
X017789Y013729D01*
X017789Y013571D02*
X017737Y013571D01*
X017737Y013412D02*
X017789Y013412D01*
X017789Y013254D02*
X017737Y013254D01*
X017737Y013095D02*
X017789Y013095D01*
X017789Y012937D02*
X017737Y012937D01*
X017737Y012778D02*
X017789Y012778D01*
X017789Y012620D02*
X017737Y012620D01*
X017737Y012461D02*
X017789Y012461D01*
X017789Y012303D02*
X017737Y012303D01*
X017737Y012144D02*
X017789Y012144D01*
X017789Y011986D02*
X017737Y011986D01*
X017737Y011827D02*
X017789Y011827D01*
X017789Y011669D02*
X017737Y011669D01*
X017737Y011510D02*
X017789Y011510D01*
X017789Y011352D02*
X017737Y011352D01*
X017737Y011193D02*
X017789Y011193D01*
X017789Y011035D02*
X017737Y011035D01*
X017737Y010876D02*
X017789Y010876D01*
X017789Y010718D02*
X017737Y010718D01*
X017737Y010559D02*
X017789Y010559D01*
X017789Y010401D02*
X017737Y010401D01*
X017737Y010242D02*
X017789Y010242D01*
X017789Y010084D02*
X017737Y010084D01*
X017737Y009925D02*
X017789Y009925D01*
X017789Y009767D02*
X017737Y009767D01*
X017737Y009608D02*
X017789Y009608D01*
X017789Y009450D02*
X017737Y009450D01*
X017737Y009291D02*
X017789Y009291D01*
X017789Y009133D02*
X017737Y009133D01*
X017737Y008974D02*
X017789Y008974D01*
X017789Y008816D02*
X017737Y008816D01*
X017737Y008657D02*
X017789Y008657D01*
X017789Y008499D02*
X017737Y008499D01*
X017737Y008340D02*
X017789Y008340D01*
X017789Y008182D02*
X017737Y008182D01*
X017737Y008023D02*
X017789Y008023D01*
X017789Y007865D02*
X017737Y007865D01*
X017737Y007706D02*
X017789Y007706D01*
X017789Y007548D02*
X017737Y007548D01*
X017737Y007389D02*
X017789Y007389D01*
X017789Y007231D02*
X017737Y007231D01*
X017737Y007072D02*
X017789Y007072D01*
X017789Y006914D02*
X017737Y006914D01*
X017789Y006755D02*
X017669Y006755D01*
X017789Y006597D02*
X017511Y006597D01*
X017352Y006438D02*
X017789Y006438D01*
X017789Y006280D02*
X017194Y006280D01*
X017035Y006121D02*
X017789Y006121D01*
X017789Y005963D02*
X016877Y005963D01*
X016841Y005804D02*
X017789Y005804D01*
X017789Y005646D02*
X016841Y005646D01*
X016712Y005487D02*
X017789Y005487D01*
X017789Y005329D02*
X016181Y005329D01*
X015901Y005298D02*
X016401Y004798D01*
X016841Y004853D02*
X017401Y004853D01*
X017559Y005012D02*
X016809Y005012D01*
X016651Y005170D02*
X017718Y005170D01*
X018023Y004853D02*
X029985Y004853D01*
X029985Y004695D02*
X017864Y004695D01*
X017706Y004536D02*
X029985Y004536D01*
X029985Y004378D02*
X017547Y004378D01*
X017389Y004219D02*
X029985Y004219D01*
X029985Y004061D02*
X017230Y004061D01*
X017072Y003902D02*
X029985Y003902D01*
X029985Y003744D02*
X000817Y003744D01*
X000817Y003902D02*
X015797Y003902D01*
X015638Y004061D02*
X000817Y004061D01*
X000817Y004219D02*
X015480Y004219D01*
X015785Y004536D02*
X016040Y004536D01*
X015961Y004695D02*
X015841Y004695D01*
X015841Y004853D02*
X015961Y004853D01*
X015876Y005012D02*
X015809Y005012D01*
X015710Y005170D02*
X015651Y005170D01*
X015673Y005329D02*
X000817Y005329D01*
X000817Y005487D02*
X014089Y005487D01*
X013961Y005646D02*
X000817Y005646D01*
X000817Y005804D02*
X013961Y005804D01*
X013961Y005963D02*
X000817Y005963D01*
X000817Y006121D02*
X014102Y006121D01*
X014181Y006280D02*
X000817Y006280D01*
X000817Y006438D02*
X014181Y006438D01*
X014181Y006597D02*
X000817Y006597D01*
X000817Y006755D02*
X014181Y006755D01*
X014181Y006914D02*
X000817Y006914D01*
X000817Y007072D02*
X014181Y007072D01*
X014181Y007231D02*
X000817Y007231D01*
X000817Y007389D02*
X014181Y007389D01*
X014181Y007548D02*
X011466Y007548D01*
X011466Y007706D02*
X014181Y007706D01*
X014181Y007865D02*
X011466Y007865D01*
X011466Y008023D02*
X014181Y008023D01*
X014181Y008182D02*
X011973Y008182D01*
X012131Y008340D02*
X014181Y008340D01*
X014181Y008499D02*
X012290Y008499D01*
X012448Y008657D02*
X014181Y008657D01*
X014181Y008816D02*
X012607Y008816D01*
X012765Y008974D02*
X014181Y008974D01*
X014181Y009133D02*
X012924Y009133D01*
X012943Y009291D02*
X014181Y009291D01*
X014181Y009450D02*
X012943Y009450D01*
X012943Y009608D02*
X014181Y009608D01*
X014181Y009767D02*
X012943Y009767D01*
X012943Y009925D02*
X014181Y009925D01*
X014181Y010084D02*
X012943Y010084D01*
X012943Y010242D02*
X014181Y010242D01*
X014181Y010401D02*
X012943Y010401D01*
X012943Y010559D02*
X014181Y010559D01*
X014181Y010718D02*
X012943Y010718D01*
X012943Y010876D02*
X014181Y010876D01*
X014181Y011035D02*
X012943Y011035D01*
X012943Y011193D02*
X014181Y011193D01*
X014181Y011352D02*
X012943Y011352D01*
X012943Y011510D02*
X014181Y011510D01*
X014181Y011669D02*
X012943Y011669D01*
X012943Y011827D02*
X014072Y011827D01*
X013914Y011986D02*
X012943Y011986D01*
X012943Y012144D02*
X013755Y012144D01*
X013597Y012303D02*
X012943Y012303D01*
X012943Y012461D02*
X013438Y012461D01*
X013280Y012620D02*
X012943Y012620D01*
X012943Y012778D02*
X013121Y012778D01*
X012963Y012937D02*
X012943Y012937D01*
X013137Y013074D02*
X014401Y011810D01*
X014401Y005798D01*
X014381Y005170D02*
X014421Y005170D01*
X014421Y005012D02*
X014381Y005012D01*
X014381Y004853D02*
X014421Y004853D01*
X014401Y004798D02*
X014326Y004798D01*
X013826Y005298D01*
X014094Y005170D02*
X000817Y005170D01*
X000817Y005012D02*
X013936Y005012D01*
X013921Y004853D02*
X000817Y004853D01*
X000817Y004695D02*
X013921Y004695D01*
X013921Y004778D02*
X013921Y004599D01*
X014202Y004318D01*
X014381Y004318D01*
X014381Y004778D01*
X013921Y004778D01*
X013984Y004536D02*
X000817Y004536D01*
X000817Y004378D02*
X014142Y004378D01*
X014381Y004378D02*
X014421Y004378D01*
X014421Y004536D02*
X014381Y004536D01*
X014381Y004695D02*
X014421Y004695D01*
X015401Y004609D02*
X015401Y004798D01*
X015943Y004378D02*
X016199Y004378D01*
X016603Y004378D02*
X016925Y004378D01*
X017084Y004536D02*
X016761Y004536D01*
X016841Y004695D02*
X017242Y004695D01*
X016401Y005798D02*
X017517Y006914D01*
X017517Y014944D01*
X018206Y015633D01*
X018206Y016076D01*
X017861Y016420D01*
X017110Y016420D01*
X017091Y016440D01*
X017091Y017027D01*
X017763Y017700D01*
X018023Y017692D02*
X018326Y017692D01*
X018326Y017850D02*
X017980Y017850D01*
X017964Y017533D02*
X018326Y017533D01*
X018326Y017375D02*
X017749Y017375D01*
X017591Y017216D02*
X018326Y017216D01*
X018326Y017058D02*
X017432Y017058D01*
X017311Y016899D02*
X018326Y016899D01*
X018326Y016741D02*
X017311Y016741D01*
X016871Y016741D02*
X016753Y016741D01*
X016753Y016899D02*
X016871Y016899D01*
X016871Y017058D02*
X016753Y017058D01*
X016753Y017216D02*
X016968Y017216D01*
X017127Y017375D02*
X016714Y017375D01*
X016408Y017533D02*
X017285Y017533D01*
X017444Y017692D02*
X016448Y017692D01*
X016405Y017850D02*
X017546Y017850D01*
X018326Y018009D02*
X016111Y018009D01*
X016120Y018024D02*
X016132Y018070D01*
X016132Y018272D01*
X015754Y018272D01*
X015754Y017913D01*
X015976Y017913D01*
X016021Y017926D01*
X016062Y017949D01*
X016096Y017983D01*
X016120Y018024D01*
X016132Y018167D02*
X018326Y018167D01*
X018326Y018326D02*
X016132Y018326D01*
X016132Y018309D02*
X016132Y018511D01*
X016120Y018557D01*
X016096Y018598D01*
X016062Y018631D01*
X016021Y018655D01*
X015976Y018667D01*
X015754Y018667D01*
X015754Y018309D01*
X016132Y018309D01*
X016188Y018290D02*
X015735Y018290D01*
X015735Y017837D01*
X015243Y017345D01*
X015243Y017027D01*
X015253Y017018D01*
X015253Y014452D01*
X014824Y014522D02*
X015968Y014522D01*
X015968Y014680D02*
X014802Y014680D01*
X014564Y014550D02*
X014249Y014235D01*
X013711Y014235D01*
X014101Y014522D02*
X014225Y014522D01*
X014327Y014680D02*
X014101Y014680D01*
X014101Y014839D02*
X015968Y014839D01*
X015968Y014997D02*
X014101Y014997D01*
X014101Y015156D02*
X015968Y015156D01*
X015968Y015314D02*
X014101Y015314D01*
X014101Y015473D02*
X015968Y015473D01*
X015968Y015631D02*
X014101Y015631D01*
X014101Y015790D02*
X015968Y015790D01*
X015968Y015948D02*
X014101Y015948D01*
X014101Y016107D02*
X015968Y016107D01*
X015968Y016265D02*
X014101Y016265D01*
X014101Y016424D02*
X015968Y016424D01*
X015968Y016582D02*
X014101Y016582D01*
X014048Y016741D02*
X013239Y016741D01*
X013239Y016899D02*
X014048Y016899D01*
X014048Y017058D02*
X013239Y017058D01*
X013239Y017216D02*
X014048Y017216D01*
X014088Y017375D02*
X013239Y017375D01*
X013239Y017533D02*
X013342Y017533D01*
X013273Y017692D02*
X013239Y017692D01*
X013239Y017850D02*
X013273Y017850D01*
X013273Y018009D02*
X013239Y018009D01*
X013297Y018167D02*
X013328Y018167D01*
X013629Y017857D02*
X014016Y017857D01*
X014252Y018093D01*
X014252Y018061D01*
X014613Y017700D01*
X014873Y017692D02*
X015928Y017692D01*
X015968Y017533D02*
X014815Y017533D01*
X014831Y017850D02*
X015971Y017850D01*
X016188Y017700D02*
X016188Y017027D01*
X016188Y014402D01*
X015873Y014087D01*
X015873Y013647D01*
X015873Y012975D01*
X015676Y013172D01*
X015401Y013172D01*
X015243Y013330D01*
X015243Y013647D01*
X015141Y014046D02*
X015346Y014046D01*
X015782Y014307D02*
X015782Y014307D01*
X015838Y014363D02*
X014745Y014363D01*
X014048Y013888D02*
X013357Y013888D01*
X013357Y013729D02*
X014048Y013729D01*
X014048Y013571D02*
X013357Y013571D01*
X013357Y013412D02*
X014048Y013412D01*
X014078Y013254D02*
X013357Y013254D01*
X013427Y013095D02*
X014078Y013095D01*
X014078Y012937D02*
X013585Y012937D01*
X013744Y012778D02*
X014078Y012778D01*
X014078Y012620D02*
X013902Y012620D01*
X014061Y012461D02*
X014169Y012461D01*
X014219Y012303D02*
X014689Y012303D01*
X014664Y012461D02*
X014670Y012461D01*
X014417Y012582D02*
X014298Y012700D01*
X014298Y013647D01*
X014518Y012937D02*
X014764Y012937D01*
X014670Y012778D02*
X014588Y012778D01*
X015735Y012582D02*
X015893Y012424D01*
X015893Y005298D01*
X015901Y005298D01*
X016976Y007414D02*
X016976Y013763D01*
X016503Y014235D01*
X016503Y017027D01*
X017091Y016125D02*
X017566Y016125D01*
X017684Y015810D02*
X017763Y015731D01*
X017684Y015810D02*
X017091Y015810D01*
X018010Y016582D02*
X018326Y016582D01*
X018326Y016424D02*
X018169Y016424D01*
X018081Y016511D02*
X018081Y016511D01*
X019397Y016125D02*
X019436Y016125D01*
X019436Y017946D01*
X019953Y018462D01*
X019412Y018462D01*
X019387Y018487D01*
X019953Y018462D02*
X022512Y018462D01*
X023472Y017503D01*
X024653Y017503D01*
X024987Y017837D01*
X024987Y019274D01*
X024987Y020259D01*
X024987Y021243D01*
X024987Y022227D01*
X025324Y022288D02*
X029985Y022288D01*
X029985Y022130D02*
X025324Y022130D01*
X025324Y021971D02*
X029985Y021971D01*
X029985Y021813D02*
X025207Y021813D01*
X025207Y021654D02*
X029985Y021654D01*
X029985Y021496D02*
X025324Y021496D01*
X025324Y021337D02*
X029985Y021337D01*
X029985Y021179D02*
X025324Y021179D01*
X025324Y021020D02*
X029985Y021020D01*
X029985Y020862D02*
X025207Y020862D01*
X025207Y020703D02*
X029985Y020703D01*
X029985Y020545D02*
X025313Y020545D01*
X025324Y020386D02*
X029985Y020386D01*
X029985Y020228D02*
X025324Y020228D01*
X025324Y020069D02*
X029985Y020069D01*
X029985Y019911D02*
X025251Y019911D01*
X025207Y019752D02*
X029985Y019752D01*
X029985Y019594D02*
X025280Y019594D01*
X025324Y019435D02*
X029985Y019435D01*
X029985Y019277D02*
X025324Y019277D01*
X025324Y019118D02*
X029985Y019118D01*
X029985Y018960D02*
X025284Y018960D01*
X025207Y018801D02*
X029985Y018801D01*
X029985Y018643D02*
X025207Y018643D01*
X025207Y018484D02*
X027038Y018484D01*
X026952Y018326D02*
X025207Y018326D01*
X025207Y018167D02*
X026967Y018167D01*
X027072Y018009D02*
X025207Y018009D01*
X025207Y017850D02*
X027072Y017850D01*
X027072Y017692D02*
X025153Y017692D01*
X024994Y017533D02*
X027072Y017533D01*
X027072Y017375D02*
X024836Y017375D01*
X024062Y018290D02*
X024318Y018546D01*
X024318Y019274D01*
X024357Y019274D01*
X024948Y019274D02*
X024987Y019274D01*
X024318Y020259D02*
X024062Y020259D01*
X023570Y019767D01*
X023570Y019274D01*
X023176Y018881D01*
X020716Y018881D01*
X020263Y019334D01*
X020263Y020180D01*
X018326Y019594D02*
X016925Y019594D01*
X016923Y019752D02*
X018183Y019752D01*
X018025Y019911D02*
X016925Y019911D01*
X016919Y020069D02*
X017866Y020069D01*
X017708Y020228D02*
X016925Y020228D01*
X016550Y020174D02*
X016550Y019918D01*
X016550Y019662D01*
X016550Y019406D01*
X016550Y019150D01*
X016550Y018652D01*
X016188Y018290D01*
X016132Y018484D02*
X018326Y018484D01*
X018326Y018643D02*
X016042Y018643D01*
X015754Y018643D02*
X015717Y018643D01*
X015717Y018484D02*
X015754Y018484D01*
X015754Y018326D02*
X015717Y018326D01*
X015717Y018167D02*
X015754Y018167D01*
X015754Y018009D02*
X015717Y018009D01*
X015106Y018251D02*
X015066Y018290D01*
X014613Y018290D01*
X014252Y018652D01*
X014252Y018093D01*
X014615Y018009D02*
X014736Y018009D01*
X015066Y018290D02*
X015007Y018349D01*
X015428Y018643D02*
X014572Y018643D01*
X014472Y018801D02*
X018326Y018801D01*
X018326Y018960D02*
X016868Y018960D01*
X016925Y019118D02*
X018326Y019118D01*
X018326Y019277D02*
X016913Y019277D01*
X016925Y019435D02*
X018326Y019435D01*
X019810Y018009D02*
X020773Y018009D01*
X020773Y017375D02*
X019656Y017375D01*
X019656Y017533D02*
X019727Y017533D01*
X019668Y017692D02*
X019656Y017692D01*
X019656Y017850D02*
X019711Y017850D01*
X019928Y017700D02*
X021503Y017700D01*
X021503Y016912D02*
X021356Y016765D01*
X020716Y016765D01*
X020530Y016582D02*
X019656Y016582D01*
X019656Y016741D02*
X020456Y016741D01*
X020483Y016899D02*
X019656Y016899D01*
X019656Y017058D02*
X020773Y017058D01*
X020773Y017216D02*
X019656Y017216D01*
X019709Y016424D02*
X019754Y016424D01*
X020066Y016125D02*
X021503Y016125D01*
X020773Y016424D02*
X020379Y016424D01*
X019969Y018167D02*
X022496Y018167D01*
X022655Y018009D02*
X022234Y018009D01*
X022234Y017850D02*
X022813Y017850D01*
X022972Y017692D02*
X022234Y017692D01*
X022234Y017533D02*
X023130Y017533D01*
X023289Y017375D02*
X022234Y017375D01*
X022234Y015948D02*
X027072Y015948D01*
X027072Y015790D02*
X022234Y015790D01*
X022234Y015631D02*
X027072Y015631D01*
X027072Y015473D02*
X022234Y015473D01*
X022234Y015314D02*
X027072Y015314D01*
X027072Y015156D02*
X022234Y015156D01*
X022234Y014997D02*
X027072Y014997D01*
X027032Y014839D02*
X022234Y014839D01*
X022234Y014680D02*
X027032Y014680D01*
X027032Y014363D02*
X022234Y014363D01*
X022234Y014205D02*
X027039Y014205D01*
X026621Y014550D02*
X027802Y014550D01*
X027735Y014522D02*
X022234Y014522D01*
X021503Y014550D02*
X020519Y014550D01*
X020066Y013763D02*
X021503Y013763D01*
X020773Y013412D02*
X020327Y013412D01*
X020733Y013254D02*
X019558Y013254D01*
X019558Y013095D02*
X020733Y013095D01*
X020733Y012778D02*
X019558Y012778D01*
X019558Y012937D02*
X021435Y012937D01*
X021435Y012778D02*
X021571Y012778D01*
X021571Y012620D02*
X021435Y012620D01*
X020742Y012620D02*
X019598Y012620D01*
X019585Y012461D02*
X025206Y012461D01*
X025364Y012620D02*
X022264Y012620D01*
X024300Y011669D02*
X024337Y011669D01*
X024826Y011827D02*
X019144Y011827D01*
X019144Y011986D02*
X024826Y011986D01*
X024889Y012144D02*
X019144Y012144D01*
X019144Y012303D02*
X025047Y012303D01*
X027802Y012582D02*
X027802Y012975D01*
X028533Y017058D02*
X029985Y017058D01*
X029985Y017216D02*
X028533Y017216D01*
X028533Y017375D02*
X029985Y017375D01*
X029985Y017533D02*
X028533Y017533D01*
X028533Y017692D02*
X029985Y017692D01*
X029985Y017850D02*
X028533Y017850D01*
X028533Y018009D02*
X029985Y018009D01*
X029985Y018167D02*
X027646Y018167D01*
X027487Y018326D02*
X029985Y018326D01*
X029985Y018484D02*
X027386Y018484D01*
X027212Y018290D02*
X027802Y017700D01*
X024318Y021243D02*
X023413Y021243D01*
X022350Y020180D01*
X022428Y022227D02*
X022350Y022306D01*
X022428Y022227D02*
X024318Y022227D01*
X025324Y022447D02*
X029985Y022447D01*
X029985Y022605D02*
X023277Y022605D01*
X023277Y022764D02*
X029985Y022764D01*
X029985Y022922D02*
X023277Y022922D01*
X023277Y023081D02*
X029985Y023081D01*
X029985Y023239D02*
X015770Y023239D01*
X015724Y023188D02*
X015829Y023305D01*
X015820Y023463D01*
X015583Y023674D01*
X015583Y023700D01*
X015733Y023567D01*
X015785Y023515D01*
X015791Y023515D01*
X015796Y023511D01*
X015869Y023515D01*
X015942Y023515D01*
X015947Y023519D01*
X015953Y023520D01*
X016002Y023574D01*
X016053Y023626D01*
X016053Y023633D01*
X016058Y023637D01*
X016053Y023710D01*
X016053Y025168D01*
X016054Y025169D01*
X016054Y025174D01*
X016057Y025178D01*
X016053Y025251D01*
X016053Y025324D01*
X016052Y025325D01*
X016048Y025698D01*
X015936Y025808D01*
X015779Y025806D01*
X015669Y025694D01*
X015669Y025673D01*
X015322Y025982D01*
X015270Y026034D01*
X015263Y026034D01*
X015259Y026038D01*
X015186Y026034D01*
X015113Y026034D01*
X015108Y026030D01*
X015102Y026029D01*
X015053Y025975D01*
X015001Y025923D01*
X015001Y025917D01*
X014997Y025912D01*
X015001Y025839D01*
X015001Y025465D01*
X015013Y025452D01*
X015002Y025442D01*
X014990Y025302D01*
X014979Y025291D01*
X014983Y025226D01*
X014978Y025161D01*
X014988Y025149D01*
X014989Y025134D01*
X014999Y024957D01*
X015007Y024950D01*
X014988Y024932D01*
X014988Y024925D01*
X014983Y024919D01*
X014987Y024847D01*
X014986Y024659D01*
X014981Y024654D01*
X014985Y024581D01*
X014984Y024509D01*
X014989Y024504D01*
X014990Y024497D01*
X015019Y024471D01*
X014960Y024405D01*
X014969Y024247D01*
X015016Y024205D01*
X015014Y024202D01*
X014962Y024152D01*
X014962Y024144D01*
X014957Y024139D01*
X014962Y024067D01*
X014960Y023879D01*
X014955Y023873D01*
X014959Y023801D01*
X014959Y023728D01*
X014964Y023723D01*
X014964Y023716D01*
X014997Y023687D01*
X014955Y023645D01*
X014955Y023346D01*
X014950Y023342D01*
X014954Y023269D01*
X014954Y023195D01*
X014959Y023191D01*
X014959Y023184D01*
X015014Y023136D01*
X015065Y023084D01*
X015072Y023084D01*
X015183Y022985D01*
X015183Y022985D01*
X015185Y022984D01*
X015525Y022681D01*
X015682Y022690D01*
X015787Y022807D01*
X015778Y022964D01*
X015554Y023164D01*
X015554Y023164D01*
X015554Y023164D01*
X015552Y023192D01*
X015567Y023179D01*
X015724Y023188D01*
X015647Y023081D02*
X019336Y023081D01*
X019336Y022922D02*
X015780Y022922D01*
X015748Y022764D02*
X019336Y022764D01*
X019336Y022605D02*
X016913Y022605D01*
X016925Y022447D02*
X019336Y022447D01*
X019336Y022288D02*
X016885Y022288D01*
X016550Y022477D02*
X016550Y022477D01*
X016550Y022717D01*
X016331Y022717D01*
X016285Y022705D01*
X016244Y022681D01*
X016210Y022648D01*
X016187Y022607D01*
X016175Y022561D01*
X016175Y022477D01*
X016550Y022477D01*
X016550Y022605D02*
X016550Y022605D01*
X016186Y022605D02*
X014577Y022605D01*
X014587Y022595D02*
X014505Y022677D01*
X012517Y022677D01*
X011466Y021626D01*
X011466Y023151D01*
X011384Y023233D01*
X010759Y023233D01*
X010759Y023440D01*
X010503Y023696D01*
X010374Y023825D01*
X007042Y023825D01*
X006913Y023696D01*
X006263Y023047D01*
X006263Y022584D01*
X006229Y022584D01*
X006149Y022504D01*
X006069Y022584D01*
X005559Y022584D01*
X005477Y022502D01*
X005477Y021953D01*
X005559Y021871D01*
X005594Y021871D01*
X005594Y021600D01*
X005559Y021600D01*
X005477Y021518D01*
X005477Y020968D01*
X005559Y020886D01*
X005594Y020886D01*
X005594Y020615D01*
X005559Y020615D01*
X005477Y020533D01*
X005477Y019984D01*
X005559Y019902D01*
X005594Y019902D01*
X005594Y016433D01*
X005584Y016422D01*
X005067Y016422D01*
X004985Y016340D01*
X004985Y016109D01*
X002219Y016109D01*
X002169Y016058D01*
X001937Y016058D01*
X001855Y015976D01*
X001855Y015722D01*
X001856Y015721D01*
X001855Y015720D01*
X001855Y015466D01*
X001856Y015465D01*
X001855Y015464D01*
X001855Y015211D01*
X001856Y015210D01*
X001855Y015208D01*
X001855Y015009D01*
X001851Y015005D01*
X001828Y014964D01*
X001815Y014918D01*
X001815Y014826D01*
X002271Y014826D01*
X002271Y014826D01*
X002726Y014826D01*
X002726Y014733D01*
X002714Y014687D01*
X002690Y014646D01*
X002657Y014613D01*
X002616Y014589D01*
X002570Y014577D01*
X002271Y014577D01*
X002271Y014826D01*
X002271Y014826D01*
X001815Y014826D01*
X001815Y014733D01*
X001828Y014687D01*
X001851Y014646D01*
X001885Y014613D01*
X001926Y014589D01*
X001972Y014577D01*
X002271Y014577D01*
X002271Y014826D01*
X002271Y014680D02*
X002271Y014680D01*
X002710Y014680D02*
X004945Y014680D01*
X004945Y014522D02*
X000817Y014522D01*
X000817Y014680D02*
X001832Y014680D01*
X001815Y014839D02*
X000817Y014839D01*
X000817Y014997D02*
X001847Y014997D01*
X001855Y015156D02*
X000817Y015156D01*
X000817Y015314D02*
X001855Y015314D01*
X001855Y015473D02*
X000817Y015473D01*
X000817Y015631D02*
X001855Y015631D01*
X001855Y015790D02*
X000817Y015790D01*
X000817Y015948D02*
X001855Y015948D01*
X002217Y016107D02*
X000817Y016107D01*
X000817Y016265D02*
X004985Y016265D01*
X005361Y015889D02*
X005814Y016341D01*
X005814Y020259D01*
X005814Y021243D01*
X005814Y022227D01*
X005477Y022288D02*
X000817Y022288D01*
X000817Y022130D02*
X005477Y022130D01*
X005477Y021971D02*
X000817Y021971D01*
X000817Y021813D02*
X005594Y021813D01*
X005594Y021654D02*
X000817Y021654D01*
X000817Y021496D02*
X005477Y021496D01*
X005477Y021337D02*
X000817Y021337D01*
X000817Y021179D02*
X005477Y021179D01*
X005477Y021020D02*
X000817Y021020D01*
X000817Y020862D02*
X005594Y020862D01*
X005594Y020703D02*
X000817Y020703D01*
X000817Y020545D02*
X005489Y020545D01*
X005477Y020386D02*
X000817Y020386D01*
X000817Y020228D02*
X005477Y020228D01*
X005477Y020069D02*
X000817Y020069D01*
X000817Y019911D02*
X005551Y019911D01*
X005594Y019752D02*
X000817Y019752D01*
X000817Y019594D02*
X005594Y019594D01*
X005594Y019435D02*
X000817Y019435D01*
X000817Y019277D02*
X005594Y019277D01*
X005594Y019118D02*
X000817Y019118D01*
X000817Y018960D02*
X005594Y018960D01*
X005594Y018801D02*
X000817Y018801D01*
X000817Y018643D02*
X005594Y018643D01*
X005594Y018484D02*
X000817Y018484D01*
X000817Y018326D02*
X005594Y018326D01*
X005594Y018167D02*
X000817Y018167D01*
X000817Y018009D02*
X005594Y018009D01*
X005594Y017850D02*
X000817Y017850D01*
X000817Y017692D02*
X005594Y017692D01*
X005594Y017533D02*
X000817Y017533D01*
X000817Y017407D02*
X000817Y029921D01*
X029985Y029921D01*
X029985Y000754D01*
X000817Y000754D01*
X000817Y013268D01*
X001660Y013268D01*
X001742Y013350D01*
X001742Y014175D01*
X001660Y014257D01*
X000817Y014257D01*
X000817Y016418D01*
X001660Y016418D01*
X001742Y016500D01*
X001742Y017325D01*
X001660Y017407D01*
X000817Y017407D01*
X001691Y017375D02*
X005594Y017375D01*
X005594Y017216D02*
X001742Y017216D01*
X001742Y017058D02*
X005594Y017058D01*
X005594Y016899D02*
X001742Y016899D01*
X001742Y016741D02*
X005594Y016741D01*
X005594Y016582D02*
X001742Y016582D01*
X001665Y016424D02*
X005585Y016424D01*
X005361Y015889D02*
X002310Y015889D01*
X002271Y015849D01*
X002686Y015631D02*
X004985Y015631D01*
X004985Y015473D02*
X002686Y015473D01*
X002686Y015314D02*
X005005Y015314D01*
X004945Y015156D02*
X002686Y015156D01*
X002695Y014997D02*
X004945Y014997D01*
X004945Y014839D02*
X002726Y014839D01*
X001712Y014205D02*
X006427Y014205D01*
X006269Y014046D02*
X001742Y014046D01*
X001742Y013888D02*
X006110Y013888D01*
X005952Y013729D02*
X001742Y013729D01*
X001742Y013571D02*
X005793Y013571D01*
X005635Y013412D02*
X001742Y013412D01*
X000817Y013254D02*
X005594Y013254D01*
X005594Y013095D02*
X000817Y013095D01*
X000817Y012937D02*
X005594Y012937D01*
X005594Y012778D02*
X000817Y012778D01*
X000817Y012620D02*
X005594Y012620D01*
X005594Y012461D02*
X000817Y012461D01*
X000817Y012303D02*
X005594Y012303D01*
X005594Y012144D02*
X000817Y012144D01*
X000817Y011986D02*
X005594Y011986D01*
X005594Y011827D02*
X000817Y011827D01*
X000817Y011669D02*
X005594Y011669D01*
X005594Y011510D02*
X000817Y011510D01*
X000817Y011352D02*
X005594Y011352D01*
X005594Y011193D02*
X000817Y011193D01*
X000817Y011035D02*
X005594Y011035D01*
X005594Y010876D02*
X000817Y010876D01*
X000817Y010718D02*
X005504Y010718D01*
X005477Y010559D02*
X000817Y010559D01*
X000817Y010401D02*
X005477Y010401D01*
X005477Y010242D02*
X000817Y010242D01*
X000817Y010084D02*
X005535Y010084D01*
X005594Y009925D02*
X000817Y009925D01*
X000817Y009767D02*
X005538Y009767D01*
X005477Y009608D02*
X000817Y009608D01*
X000817Y009450D02*
X005477Y009450D01*
X005477Y009291D02*
X000817Y009291D01*
X000817Y009133D02*
X005502Y009133D01*
X005594Y008974D02*
X000817Y008974D01*
X000817Y008816D02*
X005594Y008816D01*
X005477Y008657D02*
X000817Y008657D01*
X000817Y008499D02*
X005477Y008499D01*
X005477Y008340D02*
X000817Y008340D01*
X000817Y008182D02*
X005477Y008182D01*
X005814Y008448D02*
X005814Y009432D01*
X005814Y010416D01*
X005814Y013280D01*
X006985Y014452D01*
X006985Y015239D01*
X007330Y015239D01*
X008413Y016322D01*
X010676Y016322D01*
X012350Y016322D02*
X012350Y015672D01*
X012350Y016322D02*
X012350Y017070D01*
X013239Y016582D02*
X013321Y016582D01*
X013321Y016424D02*
X013239Y016424D01*
X013239Y016265D02*
X013321Y016265D01*
X013275Y015180D02*
X013137Y015042D01*
X013137Y014215D01*
X012350Y015003D01*
X013137Y014215D02*
X013137Y013074D01*
X013275Y015180D02*
X013711Y015180D01*
X015243Y016741D02*
X015243Y016741D01*
X015243Y016899D02*
X015243Y016899D01*
X015243Y017027D02*
X015243Y017457D01*
X015243Y017027D01*
X015243Y017027D01*
X015243Y017058D02*
X015243Y017058D01*
X015243Y017216D02*
X015243Y017216D01*
X015243Y017375D02*
X015243Y017375D01*
X014412Y017533D02*
X013917Y017533D01*
X014162Y017692D02*
X014310Y017692D01*
X014252Y018652D02*
X014252Y019150D01*
X014514Y018960D02*
X016231Y018960D01*
X016175Y019118D02*
X014587Y019118D01*
X014579Y019277D02*
X016186Y019277D01*
X016175Y019150D02*
X016550Y019150D01*
X016175Y019150D01*
X016175Y019406D02*
X016550Y019406D01*
X016550Y019406D01*
X016175Y019406D01*
X016175Y019435D02*
X014587Y019435D01*
X014587Y019594D02*
X016175Y019594D01*
X016175Y019662D02*
X016550Y019662D01*
X016550Y019662D01*
X016175Y019662D01*
X016176Y019752D02*
X014594Y019752D01*
X014627Y019911D02*
X016175Y019911D01*
X016175Y019918D02*
X016550Y019918D01*
X016550Y019918D01*
X016175Y019918D01*
X016180Y020069D02*
X014621Y020069D01*
X014627Y020174D02*
X014627Y020258D01*
X014615Y020302D01*
X014627Y020346D01*
X014627Y020430D01*
X014627Y020514D01*
X014615Y020559D01*
X014591Y020601D01*
X014587Y020605D01*
X014587Y020804D01*
X014577Y020814D01*
X014587Y020824D01*
X014587Y021060D01*
X014577Y021070D01*
X014587Y021080D01*
X014587Y021316D01*
X014577Y021326D01*
X014587Y021336D01*
X014587Y021572D01*
X014577Y021582D01*
X014587Y021592D01*
X014587Y021828D01*
X014577Y021837D01*
X014587Y021847D01*
X014587Y022083D01*
X014577Y022093D01*
X014587Y022103D01*
X014587Y022339D01*
X014577Y022349D01*
X014587Y022359D01*
X014587Y022595D01*
X014587Y022447D02*
X016175Y022447D01*
X016215Y022288D02*
X014587Y022288D01*
X014587Y022130D02*
X016215Y022130D01*
X016215Y021971D02*
X014587Y021971D01*
X014587Y021813D02*
X016215Y021813D01*
X016215Y021654D02*
X014587Y021654D01*
X014587Y021496D02*
X016215Y021496D01*
X016215Y021337D02*
X014587Y021337D01*
X014587Y021179D02*
X016215Y021179D01*
X016215Y021020D02*
X014587Y021020D01*
X014587Y020862D02*
X016215Y020862D01*
X016215Y020703D02*
X014587Y020703D01*
X014619Y020545D02*
X016215Y020545D01*
X016215Y020386D02*
X014627Y020386D01*
X014627Y020430D02*
X014252Y020430D01*
X014627Y020430D01*
X014627Y020228D02*
X016175Y020228D01*
X016175Y020174D02*
X016550Y020174D01*
X016076Y020174D01*
X015991Y020259D01*
X015991Y020652D01*
X016175Y020174D02*
X016550Y020174D01*
X016550Y020174D01*
X016550Y019150D02*
X016550Y019150D01*
X016550Y019118D02*
X016550Y019118D01*
X016550Y018960D02*
X016550Y018960D01*
X014627Y020174D02*
X014252Y020174D01*
X014252Y020430D02*
X014252Y020430D01*
X013877Y020386D02*
X013252Y020386D01*
X013094Y020228D02*
X013877Y020228D01*
X013883Y020069D02*
X012935Y020069D01*
X012777Y019911D02*
X013877Y019911D01*
X013885Y020545D02*
X013411Y020545D01*
X013569Y020703D02*
X013917Y020703D01*
X013233Y019752D02*
X012648Y019752D01*
X012648Y019594D02*
X013075Y019594D01*
X012916Y019435D02*
X012648Y019435D01*
X012648Y019277D02*
X012758Y019277D01*
X011494Y021654D02*
X011466Y021654D01*
X011466Y021813D02*
X011652Y021813D01*
X011811Y021971D02*
X011466Y021971D01*
X011466Y022130D02*
X011969Y022130D01*
X012128Y022288D02*
X011466Y022288D01*
X011466Y022447D02*
X012286Y022447D01*
X012445Y022605D02*
X011466Y022605D01*
X011466Y022764D02*
X015431Y022764D01*
X015254Y022922D02*
X011466Y022922D01*
X011466Y023081D02*
X015076Y023081D01*
X014954Y023239D02*
X010759Y023239D01*
X010759Y023398D02*
X014955Y023398D01*
X014955Y023556D02*
X010643Y023556D01*
X010484Y023715D02*
X014965Y023715D01*
X014955Y023873D02*
X000817Y023873D01*
X000817Y023715D02*
X006931Y023715D01*
X006773Y023556D02*
X000817Y023556D01*
X000817Y023398D02*
X006614Y023398D01*
X006456Y023239D02*
X000817Y023239D01*
X000817Y023081D02*
X006297Y023081D01*
X006263Y022922D02*
X000817Y022922D01*
X000817Y022764D02*
X006263Y022764D01*
X006263Y022605D02*
X000817Y022605D01*
X000817Y022447D02*
X005477Y022447D01*
X006483Y022227D02*
X006483Y022956D01*
X007133Y023605D01*
X010283Y023605D01*
X010539Y023349D01*
X010539Y022306D01*
X008452Y022306D02*
X007389Y021243D01*
X006483Y021243D01*
X006483Y020259D02*
X008373Y020259D01*
X008452Y020180D01*
X006326Y015889D02*
X005361Y015889D01*
X005738Y015631D02*
X006206Y015631D01*
X006206Y015473D02*
X005738Y015473D01*
X005718Y015314D02*
X006193Y015314D01*
X006166Y015156D02*
X005778Y015156D01*
X005778Y014997D02*
X006524Y014997D01*
X006543Y015003D02*
X006326Y014786D01*
X005361Y014786D01*
X005323Y014680D02*
X005400Y014680D01*
X005400Y014522D02*
X005323Y014522D01*
X005323Y014363D02*
X005400Y014363D01*
X005776Y014363D02*
X006586Y014363D01*
X006744Y014522D02*
X005778Y014522D01*
X005778Y014680D02*
X006199Y014680D01*
X006166Y014839D02*
X005778Y014839D01*
X004947Y014363D02*
X000817Y014363D01*
X006326Y015889D02*
X006543Y015672D01*
X006976Y015239D01*
X006985Y015239D01*
X006561Y014839D02*
X006524Y014839D01*
X006524Y014680D02*
X006561Y014680D01*
X007428Y011893D02*
X010086Y011893D01*
X010539Y011440D01*
X010539Y010495D01*
X008452Y010495D02*
X007389Y009432D01*
X006483Y009432D01*
X006483Y010416D02*
X006483Y010948D01*
X007428Y011893D01*
X006483Y008448D02*
X008373Y008448D01*
X008452Y008369D01*
X007525Y008182D02*
X006820Y008182D01*
X007525Y008023D02*
X000817Y008023D01*
X000817Y007865D02*
X007525Y007865D01*
X007525Y007706D02*
X000817Y007706D01*
X000817Y007548D02*
X007525Y007548D01*
X003183Y003110D02*
X027618Y003110D01*
X027509Y003001D02*
X027386Y002703D01*
X027386Y002381D01*
X027509Y002083D01*
X027737Y001856D01*
X028035Y001732D01*
X028357Y001732D01*
X028655Y001856D01*
X028883Y002083D01*
X029006Y002381D01*
X029006Y002703D01*
X028883Y003001D01*
X028655Y003229D01*
X028357Y003352D01*
X028035Y003352D01*
X027737Y003229D01*
X027509Y003001D01*
X027489Y002951D02*
X003313Y002951D01*
X003292Y003001D02*
X003064Y003229D01*
X002767Y003352D01*
X002444Y003352D01*
X002147Y003229D01*
X001919Y003001D01*
X001796Y002703D01*
X001796Y002381D01*
X001919Y002083D01*
X002147Y001856D01*
X002444Y001732D01*
X002767Y001732D01*
X003064Y001856D01*
X003292Y002083D01*
X003415Y002381D01*
X003415Y002703D01*
X003292Y003001D01*
X003378Y002793D02*
X027423Y002793D01*
X027386Y002634D02*
X003415Y002634D01*
X003415Y002476D02*
X027386Y002476D01*
X027413Y002317D02*
X003389Y002317D01*
X003323Y002159D02*
X027478Y002159D01*
X027593Y002000D02*
X003209Y002000D01*
X003031Y001842D02*
X027771Y001842D01*
X028621Y001842D02*
X029985Y001842D01*
X029985Y002000D02*
X028799Y002000D01*
X028914Y002159D02*
X029985Y002159D01*
X029985Y002317D02*
X028980Y002317D01*
X029006Y002476D02*
X029985Y002476D01*
X029985Y002634D02*
X029006Y002634D01*
X028969Y002793D02*
X029985Y002793D01*
X029985Y002951D02*
X028903Y002951D01*
X028774Y003110D02*
X029985Y003110D01*
X029985Y003268D02*
X028560Y003268D01*
X027832Y003268D02*
X002969Y003268D01*
X002242Y003268D02*
X000817Y003268D01*
X000817Y003110D02*
X002028Y003110D01*
X001898Y002951D02*
X000817Y002951D01*
X000817Y002793D02*
X001833Y002793D01*
X001796Y002634D02*
X000817Y002634D01*
X000817Y002476D02*
X001796Y002476D01*
X001822Y002317D02*
X000817Y002317D01*
X000817Y002159D02*
X001888Y002159D01*
X002002Y002000D02*
X000817Y002000D01*
X000817Y001842D02*
X002180Y001842D01*
X000817Y001683D02*
X029985Y001683D01*
X029985Y001525D02*
X000817Y001525D01*
X000817Y001366D02*
X029985Y001366D01*
X029985Y001208D02*
X000817Y001208D01*
X000817Y001049D02*
X029985Y001049D01*
X029985Y000891D02*
X000817Y000891D01*
X000817Y003427D02*
X029985Y003427D01*
X029985Y003585D02*
X000817Y003585D01*
X015735Y012582D02*
X015844Y012473D01*
X015735Y012582D02*
X015873Y012719D01*
X015873Y012975D01*
X016188Y013172D02*
X016385Y012975D01*
X016188Y013172D02*
X016188Y013647D01*
X019338Y013704D02*
X019338Y012582D01*
X019658Y013412D02*
X019805Y013412D01*
X019397Y013763D02*
X019338Y013704D01*
X015823Y023398D02*
X029985Y023398D01*
X029985Y023556D02*
X015985Y023556D01*
X016053Y023715D02*
X029985Y023715D01*
X029985Y023873D02*
X016053Y023873D01*
X016053Y024032D02*
X029985Y024032D01*
X029985Y024190D02*
X016053Y024190D01*
X016053Y024349D02*
X029985Y024349D01*
X029985Y024507D02*
X016053Y024507D01*
X016053Y024666D02*
X029985Y024666D01*
X029985Y024824D02*
X016053Y024824D01*
X016053Y024983D02*
X029985Y024983D01*
X029985Y025141D02*
X016053Y025141D01*
X016053Y025300D02*
X029985Y025300D01*
X029985Y025458D02*
X016051Y025458D01*
X016049Y025617D02*
X029985Y025617D01*
X029985Y025775D02*
X015969Y025775D01*
X015748Y025775D02*
X015554Y025775D01*
X015376Y025934D02*
X029985Y025934D01*
X029985Y026092D02*
X000817Y026092D01*
X000817Y025934D02*
X015012Y025934D01*
X015001Y025775D02*
X000817Y025775D01*
X000817Y025617D02*
X015001Y025617D01*
X015007Y025458D02*
X000817Y025458D01*
X000817Y025300D02*
X014987Y025300D01*
X014988Y025141D02*
X000817Y025141D01*
X000817Y024983D02*
X014997Y024983D01*
X014989Y025134D02*
X014989Y025134D01*
X014987Y024824D02*
X000817Y024824D01*
X000817Y024666D02*
X014986Y024666D01*
X014986Y024507D02*
X000817Y024507D01*
X000817Y024349D02*
X014963Y024349D01*
X015002Y024190D02*
X000817Y024190D01*
X000817Y024032D02*
X014961Y024032D01*
X015715Y023556D02*
X015743Y023556D01*
X027386Y027972D02*
X027509Y027674D01*
X027737Y027446D01*
X028035Y027323D01*
X028357Y027323D01*
X028655Y027446D01*
X028883Y027674D01*
X029006Y027972D01*
X029006Y028294D01*
X028883Y028592D01*
X028655Y028819D01*
X028357Y028943D01*
X028035Y028943D01*
X027737Y028819D01*
X027509Y028592D01*
X027386Y028294D01*
X027386Y027972D01*
X027386Y027994D02*
X003415Y027994D01*
X003415Y027972D02*
X003292Y027674D01*
X003064Y027446D01*
X002767Y027323D01*
X002444Y027323D01*
X002147Y027446D01*
X001919Y027674D01*
X001796Y027972D01*
X001796Y028294D01*
X001919Y028592D01*
X002147Y028819D01*
X002444Y028943D01*
X002767Y028943D01*
X003064Y028819D01*
X003292Y028592D01*
X003415Y028294D01*
X003415Y027972D01*
X003359Y027836D02*
X027442Y027836D01*
X027508Y027677D02*
X003293Y027677D01*
X003137Y027519D02*
X027665Y027519D01*
X027945Y027360D02*
X002857Y027360D01*
X002354Y027360D02*
X000817Y027360D01*
X000817Y027202D02*
X029985Y027202D01*
X029985Y027360D02*
X028447Y027360D01*
X028727Y027519D02*
X029985Y027519D01*
X029985Y027677D02*
X028884Y027677D01*
X028950Y027836D02*
X029985Y027836D01*
X029985Y027994D02*
X029006Y027994D01*
X029006Y028153D02*
X029985Y028153D01*
X029985Y028311D02*
X028999Y028311D01*
X028933Y028470D02*
X029985Y028470D01*
X029985Y028628D02*
X028846Y028628D01*
X028687Y028787D02*
X029985Y028787D01*
X029985Y028945D02*
X000817Y028945D01*
X000817Y028787D02*
X002114Y028787D01*
X001956Y028628D02*
X000817Y028628D01*
X000817Y028470D02*
X001868Y028470D01*
X001803Y028311D02*
X000817Y028311D01*
X000817Y028153D02*
X001796Y028153D01*
X001796Y027994D02*
X000817Y027994D01*
X000817Y027836D02*
X001852Y027836D01*
X001918Y027677D02*
X000817Y027677D01*
X000817Y027519D02*
X002074Y027519D01*
X000817Y027043D02*
X029985Y027043D01*
X029985Y026885D02*
X000817Y026885D01*
X000817Y026726D02*
X029985Y026726D01*
X029985Y026568D02*
X000817Y026568D01*
X000817Y026409D02*
X029985Y026409D01*
X029985Y026251D02*
X000817Y026251D01*
X003343Y028470D02*
X027459Y028470D01*
X027393Y028311D02*
X003408Y028311D01*
X003415Y028153D02*
X027386Y028153D01*
X027546Y028628D02*
X003255Y028628D01*
X003097Y028787D02*
X027705Y028787D01*
X029985Y029104D02*
X000817Y029104D01*
X000817Y029262D02*
X029985Y029262D01*
X029985Y029421D02*
X000817Y029421D01*
X000817Y029579D02*
X029985Y029579D01*
X029985Y029738D02*
X000817Y029738D01*
X000817Y029896D02*
X029985Y029896D01*
D25*
X019387Y018487D03*
X019928Y017700D03*
X020716Y016765D03*
X020519Y014550D03*
X020125Y012975D03*
X019338Y012582D03*
X018009Y014944D03*
X017763Y015731D03*
X017566Y016125D03*
X017763Y017700D03*
X016188Y017700D03*
X014613Y017700D03*
X015401Y015337D03*
X014564Y014550D03*
X014417Y012582D03*
X016385Y012975D03*
X012350Y016322D03*
X010676Y016322D03*
X015401Y021046D03*
X024062Y018290D03*
X026474Y016912D03*
X027212Y018290D03*
X016976Y007414D03*
X023668Y006873D03*
X003983Y015141D03*
D26*
X027802Y012582D02*
X027802Y011400D01*
D27*
X021306Y010495D02*
X021306Y009629D01*
X021208Y009530D01*
X019239Y009530D01*
X018747Y010023D01*
X018747Y019865D01*
X017926Y020686D01*
X016550Y020686D01*
X016550Y020942D02*
X018064Y020942D01*
X018944Y020062D01*
X018944Y011007D01*
X019456Y010495D01*
X020263Y010495D01*
X021208Y009334D02*
X019141Y009334D01*
X018526Y009949D01*
X018526Y019693D01*
X017789Y020430D01*
X016550Y020430D01*
X016550Y021454D02*
X017946Y021454D01*
X018255Y021145D01*
X021208Y021145D01*
X021306Y021046D01*
X021306Y020180D01*
X021208Y021341D02*
X018354Y021341D01*
X017985Y021710D01*
X016550Y021710D01*
X016550Y021965D02*
X019922Y021965D01*
X020263Y022306D01*
X021208Y021341D02*
X021306Y021440D01*
X021306Y022306D01*
X014252Y022221D02*
X012737Y022221D01*
X011661Y021145D01*
X009594Y021145D01*
X009495Y021046D01*
X009495Y020180D01*
X010539Y020180D02*
X010617Y020259D01*
X011464Y020259D01*
X013170Y021965D01*
X014252Y021965D01*
X014252Y021454D02*
X013249Y021454D01*
X011661Y019865D01*
X011661Y019274D01*
X011168Y018782D01*
X011168Y013664D01*
X012153Y012680D01*
X012153Y010219D01*
X011464Y009530D01*
X009594Y009530D01*
X009495Y009629D01*
X009495Y010495D01*
X009594Y009334D02*
X009495Y009235D01*
X009495Y008369D01*
X009594Y009334D02*
X011661Y009334D01*
X012448Y010121D01*
X012448Y012778D01*
X011464Y013763D01*
X011464Y018684D01*
X012054Y019274D01*
X012054Y019865D01*
X013387Y021198D01*
X014252Y021198D01*
X014252Y020942D02*
X013525Y020942D01*
X012448Y019865D01*
X012448Y019176D01*
X011759Y018487D01*
X011759Y013861D01*
X012743Y012877D01*
X012743Y009235D01*
X011877Y008369D01*
X010539Y008369D01*
X013275Y015495D02*
X012842Y015928D01*
X012842Y019078D01*
X012350Y018586D01*
X012350Y017739D01*
X013039Y018192D02*
X013373Y018526D01*
X013629Y018526D01*
X013039Y018192D02*
X013039Y016125D01*
X013354Y015810D01*
X013711Y015810D01*
X013711Y015495D02*
X013275Y015495D01*
X013039Y018192D02*
X013039Y018881D01*
X013564Y019406D01*
X014252Y019406D01*
X014252Y019662D02*
X014246Y019668D01*
X013432Y019668D01*
X012842Y019078D01*
X011464Y021341D02*
X012600Y022477D01*
X014252Y022477D01*
X011464Y021341D02*
X009594Y021341D01*
X009495Y021440D01*
X009495Y022306D01*
X021208Y009334D02*
X021306Y009235D01*
X021306Y008369D01*
D28*
X015592Y022875D02*
X015368Y023074D01*
X015352Y023357D01*
X015144Y023274D02*
X015145Y023566D01*
X015149Y023805D02*
X015152Y024071D01*
X015394Y023855D01*
X015392Y023589D01*
X015635Y023373D01*
X015392Y023589D02*
X015149Y023805D01*
X015660Y024154D02*
X015418Y024370D01*
X015420Y024636D01*
X015177Y024852D01*
X015175Y024586D01*
X015418Y024370D01*
X015154Y024337D02*
X015863Y023705D01*
X015863Y025245D01*
X015859Y025617D01*
X015863Y025245D02*
X015191Y025844D01*
X015191Y025543D01*
X015184Y025348D02*
X015174Y025223D01*
X015659Y024791D01*
X015659Y024490D02*
X015660Y024154D01*
X015184Y025047D02*
X015174Y025223D01*
X015144Y023274D02*
X015368Y023074D01*
M02*
