%
M48
M72
T01C0.0120
T02C0.0400
T03C0.0520
T04C0.1260
%
T01
X14417Y12582
X14564Y14550
X15401Y15337
X17566Y16125
X17763Y15731
X18009Y14944
X16385Y12975
X19338Y12582
X20125Y12975
X20519Y14550
X20716Y16765
X19928Y17700
X19387Y18487
X17763Y17700
X16188Y17700
X14613Y17700
X12350Y16322
X10676Y16322
X15401Y21046
X24062Y18290
X26474Y16912
X27212Y18290
X16976Y7414
X23668Y6873
X3983Y15141
T02
X14401Y5798
X14401Y4798
X15401Y4798
X16401Y4798
X16401Y5798
X15401Y5798
T03
X27802Y11400
T04
X2606Y2542
X28196Y2542
X28196Y28133
X2606Y28133
M30
