G75*
G70*
%OFA0B0*%
%FSLAX24Y24*%
%IPPOS*%
%LPD*%
%AMOC8*
5,1,8,0,0,1.08239X$1,22.5*
%
%ADD10C,0.0000*%
%ADD11C,0.0060*%
%ADD12C,0.0100*%
%ADD13C,0.0050*%
%ADD14R,0.0200X0.0200*%
%ADD15C,0.0040*%
%ADD16R,0.0374X0.0197*%
%ADD17R,0.0180X0.0390*%
%ADD18R,0.0390X0.0180*%
%ADD19C,0.0030*%
%ADD20C,0.0020*%
%ADD21R,0.0160X0.0340*%
%ADD22R,0.0340X0.0160*%
%ADD23R,0.0197X0.0374*%
%ADD24C,0.0080*%
%ADD25R,0.0440X0.0080*%
%ADD26R,0.0276X0.0108*%
%ADD27R,0.0197X0.0098*%
%ADD28R,0.0276X0.0089*%
%ADD29R,0.0197X0.0089*%
%ADD30R,0.0098X0.0098*%
D10*
X000637Y000574D02*
X030165Y000574D01*
X030165Y030101D01*
X000637Y030101D01*
X000637Y000574D01*
X001976Y002542D02*
X001978Y002592D01*
X001984Y002642D01*
X001994Y002691D01*
X002008Y002739D01*
X002025Y002786D01*
X002046Y002831D01*
X002071Y002875D01*
X002099Y002916D01*
X002131Y002955D01*
X002165Y002992D01*
X002202Y003026D01*
X002242Y003056D01*
X002284Y003083D01*
X002328Y003107D01*
X002374Y003128D01*
X002421Y003144D01*
X002469Y003157D01*
X002519Y003166D01*
X002568Y003171D01*
X002619Y003172D01*
X002669Y003169D01*
X002718Y003162D01*
X002767Y003151D01*
X002815Y003136D01*
X002861Y003118D01*
X002906Y003096D01*
X002949Y003070D01*
X002990Y003041D01*
X003029Y003009D01*
X003065Y002974D01*
X003097Y002936D01*
X003127Y002896D01*
X003154Y002853D01*
X003177Y002809D01*
X003196Y002763D01*
X003212Y002715D01*
X003224Y002666D01*
X003232Y002617D01*
X003236Y002567D01*
X003236Y002517D01*
X003232Y002467D01*
X003224Y002418D01*
X003212Y002369D01*
X003196Y002321D01*
X003177Y002275D01*
X003154Y002231D01*
X003127Y002188D01*
X003097Y002148D01*
X003065Y002110D01*
X003029Y002075D01*
X002990Y002043D01*
X002949Y002014D01*
X002906Y001988D01*
X002861Y001966D01*
X002815Y001948D01*
X002767Y001933D01*
X002718Y001922D01*
X002669Y001915D01*
X002619Y001912D01*
X002568Y001913D01*
X002519Y001918D01*
X002469Y001927D01*
X002421Y001940D01*
X002374Y001956D01*
X002328Y001977D01*
X002284Y002001D01*
X002242Y002028D01*
X002202Y002058D01*
X002165Y002092D01*
X002131Y002129D01*
X002099Y002168D01*
X002071Y002209D01*
X002046Y002253D01*
X002025Y002298D01*
X002008Y002345D01*
X001994Y002393D01*
X001984Y002442D01*
X001978Y002492D01*
X001976Y002542D01*
X001976Y028133D02*
X001978Y028183D01*
X001984Y028233D01*
X001994Y028282D01*
X002008Y028330D01*
X002025Y028377D01*
X002046Y028422D01*
X002071Y028466D01*
X002099Y028507D01*
X002131Y028546D01*
X002165Y028583D01*
X002202Y028617D01*
X002242Y028647D01*
X002284Y028674D01*
X002328Y028698D01*
X002374Y028719D01*
X002421Y028735D01*
X002469Y028748D01*
X002519Y028757D01*
X002568Y028762D01*
X002619Y028763D01*
X002669Y028760D01*
X002718Y028753D01*
X002767Y028742D01*
X002815Y028727D01*
X002861Y028709D01*
X002906Y028687D01*
X002949Y028661D01*
X002990Y028632D01*
X003029Y028600D01*
X003065Y028565D01*
X003097Y028527D01*
X003127Y028487D01*
X003154Y028444D01*
X003177Y028400D01*
X003196Y028354D01*
X003212Y028306D01*
X003224Y028257D01*
X003232Y028208D01*
X003236Y028158D01*
X003236Y028108D01*
X003232Y028058D01*
X003224Y028009D01*
X003212Y027960D01*
X003196Y027912D01*
X003177Y027866D01*
X003154Y027822D01*
X003127Y027779D01*
X003097Y027739D01*
X003065Y027701D01*
X003029Y027666D01*
X002990Y027634D01*
X002949Y027605D01*
X002906Y027579D01*
X002861Y027557D01*
X002815Y027539D01*
X002767Y027524D01*
X002718Y027513D01*
X002669Y027506D01*
X002619Y027503D01*
X002568Y027504D01*
X002519Y027509D01*
X002469Y027518D01*
X002421Y027531D01*
X002374Y027547D01*
X002328Y027568D01*
X002284Y027592D01*
X002242Y027619D01*
X002202Y027649D01*
X002165Y027683D01*
X002131Y027720D01*
X002099Y027759D01*
X002071Y027800D01*
X002046Y027844D01*
X002025Y027889D01*
X002008Y027936D01*
X001994Y027984D01*
X001984Y028033D01*
X001978Y028083D01*
X001976Y028133D01*
X027566Y028133D02*
X027568Y028183D01*
X027574Y028233D01*
X027584Y028282D01*
X027598Y028330D01*
X027615Y028377D01*
X027636Y028422D01*
X027661Y028466D01*
X027689Y028507D01*
X027721Y028546D01*
X027755Y028583D01*
X027792Y028617D01*
X027832Y028647D01*
X027874Y028674D01*
X027918Y028698D01*
X027964Y028719D01*
X028011Y028735D01*
X028059Y028748D01*
X028109Y028757D01*
X028158Y028762D01*
X028209Y028763D01*
X028259Y028760D01*
X028308Y028753D01*
X028357Y028742D01*
X028405Y028727D01*
X028451Y028709D01*
X028496Y028687D01*
X028539Y028661D01*
X028580Y028632D01*
X028619Y028600D01*
X028655Y028565D01*
X028687Y028527D01*
X028717Y028487D01*
X028744Y028444D01*
X028767Y028400D01*
X028786Y028354D01*
X028802Y028306D01*
X028814Y028257D01*
X028822Y028208D01*
X028826Y028158D01*
X028826Y028108D01*
X028822Y028058D01*
X028814Y028009D01*
X028802Y027960D01*
X028786Y027912D01*
X028767Y027866D01*
X028744Y027822D01*
X028717Y027779D01*
X028687Y027739D01*
X028655Y027701D01*
X028619Y027666D01*
X028580Y027634D01*
X028539Y027605D01*
X028496Y027579D01*
X028451Y027557D01*
X028405Y027539D01*
X028357Y027524D01*
X028308Y027513D01*
X028259Y027506D01*
X028209Y027503D01*
X028158Y027504D01*
X028109Y027509D01*
X028059Y027518D01*
X028011Y027531D01*
X027964Y027547D01*
X027918Y027568D01*
X027874Y027592D01*
X027832Y027619D01*
X027792Y027649D01*
X027755Y027683D01*
X027721Y027720D01*
X027689Y027759D01*
X027661Y027800D01*
X027636Y027844D01*
X027615Y027889D01*
X027598Y027936D01*
X027584Y027984D01*
X027574Y028033D01*
X027568Y028083D01*
X027566Y028133D01*
X027566Y002542D02*
X027568Y002592D01*
X027574Y002642D01*
X027584Y002691D01*
X027598Y002739D01*
X027615Y002786D01*
X027636Y002831D01*
X027661Y002875D01*
X027689Y002916D01*
X027721Y002955D01*
X027755Y002992D01*
X027792Y003026D01*
X027832Y003056D01*
X027874Y003083D01*
X027918Y003107D01*
X027964Y003128D01*
X028011Y003144D01*
X028059Y003157D01*
X028109Y003166D01*
X028158Y003171D01*
X028209Y003172D01*
X028259Y003169D01*
X028308Y003162D01*
X028357Y003151D01*
X028405Y003136D01*
X028451Y003118D01*
X028496Y003096D01*
X028539Y003070D01*
X028580Y003041D01*
X028619Y003009D01*
X028655Y002974D01*
X028687Y002936D01*
X028717Y002896D01*
X028744Y002853D01*
X028767Y002809D01*
X028786Y002763D01*
X028802Y002715D01*
X028814Y002666D01*
X028822Y002617D01*
X028826Y002567D01*
X028826Y002517D01*
X028822Y002467D01*
X028814Y002418D01*
X028802Y002369D01*
X028786Y002321D01*
X028767Y002275D01*
X028744Y002231D01*
X028717Y002188D01*
X028687Y002148D01*
X028655Y002110D01*
X028619Y002075D01*
X028580Y002043D01*
X028539Y002014D01*
X028496Y001988D01*
X028451Y001966D01*
X028405Y001948D01*
X028357Y001933D01*
X028308Y001922D01*
X028259Y001915D01*
X028209Y001912D01*
X028158Y001913D01*
X028109Y001918D01*
X028059Y001927D01*
X028011Y001940D01*
X027964Y001956D01*
X027918Y001977D01*
X027874Y002001D01*
X027832Y002028D01*
X027792Y002058D01*
X027755Y002092D01*
X027721Y002129D01*
X027689Y002168D01*
X027661Y002209D01*
X027636Y002253D01*
X027615Y002298D01*
X027598Y002345D01*
X027584Y002393D01*
X027574Y002442D01*
X027568Y002492D01*
X027566Y002542D01*
D11*
X025329Y002405D02*
X025329Y002179D01*
X025329Y002349D02*
X025102Y002349D01*
X025102Y002405D02*
X025215Y002519D01*
X025329Y002405D01*
X025102Y002405D02*
X025102Y002179D01*
X024592Y002292D02*
X024592Y002519D01*
X024365Y002519D02*
X024365Y002292D01*
X024479Y002179D01*
X024592Y002292D01*
X024224Y002179D02*
X023997Y002179D01*
X023997Y002519D01*
X024224Y002519D01*
X024110Y002349D02*
X023997Y002349D01*
X023855Y002349D02*
X023855Y002462D01*
X023799Y002519D01*
X023629Y002519D01*
X023629Y002179D01*
X023629Y002292D02*
X023799Y002292D01*
X023855Y002349D01*
X023742Y002292D02*
X023855Y002179D01*
X023119Y002292D02*
X022892Y002292D01*
X022892Y002349D02*
X022949Y002405D01*
X023062Y002405D01*
X023119Y002349D01*
X023119Y002292D01*
X023062Y002179D02*
X022949Y002179D01*
X022892Y002235D01*
X022892Y002349D01*
X022755Y002405D02*
X022698Y002405D01*
X022585Y002292D01*
X022585Y002179D02*
X022585Y002405D01*
X022444Y002349D02*
X022444Y002179D01*
X022273Y002179D01*
X022217Y002235D01*
X022273Y002292D01*
X022444Y002292D01*
X022444Y002349D02*
X022387Y002405D01*
X022273Y002405D01*
X022075Y002405D02*
X022075Y002179D01*
X021905Y002179D01*
X021848Y002235D01*
X021848Y002405D01*
X021707Y002405D02*
X021707Y002065D01*
X021707Y002179D02*
X021537Y002179D01*
X021480Y002235D01*
X021480Y002349D01*
X021537Y002405D01*
X021707Y002405D01*
X021339Y002405D02*
X021168Y002405D01*
X021112Y002349D01*
X021168Y002292D01*
X021282Y002292D01*
X021339Y002235D01*
X021282Y002179D01*
X021112Y002179D01*
X020970Y002179D02*
X020743Y002179D01*
X020970Y002405D01*
X020970Y002462D01*
X020914Y002519D01*
X020800Y002519D01*
X020743Y002462D01*
X020489Y002519D02*
X020489Y002179D01*
X020602Y002179D02*
X020375Y002179D01*
X020234Y002179D02*
X020234Y002349D01*
X020177Y002405D01*
X020120Y002349D01*
X020120Y002179D01*
X020007Y002179D02*
X020007Y002405D01*
X020064Y002405D01*
X020120Y002349D01*
X019875Y002349D02*
X019761Y002349D01*
X019818Y002462D02*
X019818Y002179D01*
X019818Y002462D02*
X019875Y002519D01*
X019624Y002405D02*
X019568Y002405D01*
X019454Y002292D01*
X019454Y002179D02*
X019454Y002405D01*
X020375Y002405D02*
X020489Y002519D01*
X016901Y004548D02*
X016651Y004298D01*
X016151Y004298D01*
X015901Y004548D01*
X015901Y006048D01*
X015651Y006298D01*
X015151Y006298D01*
X014901Y006048D01*
X014651Y006298D01*
X014151Y006298D01*
X013901Y006048D01*
X013901Y004548D01*
X014151Y004298D01*
X014651Y004298D01*
X014901Y004548D01*
X014901Y006048D01*
X015901Y006048D02*
X016151Y006298D01*
X016651Y006298D01*
X016901Y006048D01*
X016901Y004548D01*
X015901Y004548D02*
X015651Y004298D01*
X015151Y004298D01*
X014901Y004548D01*
X011155Y002462D02*
X011155Y002405D01*
X011099Y002349D01*
X010985Y002349D01*
X010929Y002405D01*
X010929Y002462D01*
X010985Y002519D01*
X011099Y002519D01*
X011155Y002462D01*
X011099Y002349D02*
X011155Y002292D01*
X011155Y002235D01*
X011099Y002179D01*
X010985Y002179D01*
X010929Y002235D01*
X010929Y002292D01*
X010985Y002349D01*
X010787Y002179D02*
X010560Y002179D01*
X010674Y002179D02*
X010674Y002519D01*
X010560Y002405D01*
X010419Y002462D02*
X010192Y002235D01*
X010249Y002179D01*
X010362Y002179D01*
X010419Y002235D01*
X010419Y002462D01*
X010362Y002519D01*
X010249Y002519D01*
X010192Y002462D01*
X010192Y002235D01*
X010051Y002349D02*
X009824Y002349D01*
X009994Y002519D01*
X009994Y002179D01*
X009682Y002235D02*
X009625Y002179D01*
X009512Y002179D01*
X009455Y002235D01*
X009455Y002349D02*
X009569Y002405D01*
X009625Y002405D01*
X009682Y002349D01*
X009682Y002235D01*
X009455Y002349D02*
X009455Y002519D01*
X009682Y002519D01*
X008960Y002405D02*
X008960Y002349D01*
X008903Y002349D01*
X008903Y002405D01*
X008960Y002405D01*
X008960Y002235D02*
X008960Y002179D01*
X008903Y002179D01*
X008903Y002235D01*
X008960Y002235D01*
X008766Y002405D02*
X008709Y002405D01*
X008596Y002292D01*
X008596Y002179D02*
X008596Y002405D01*
X008454Y002349D02*
X008454Y002292D01*
X008228Y002292D01*
X008228Y002349D02*
X008284Y002405D01*
X008398Y002405D01*
X008454Y002349D01*
X008398Y002179D02*
X008284Y002179D01*
X008228Y002235D01*
X008228Y002349D01*
X008086Y002405D02*
X007916Y002405D01*
X007859Y002349D01*
X007859Y002235D01*
X007916Y002179D01*
X008086Y002179D01*
X008086Y002519D01*
X007723Y002405D02*
X007666Y002405D01*
X007552Y002292D01*
X007552Y002179D02*
X007552Y002405D01*
X007411Y002462D02*
X007411Y002235D01*
X007354Y002179D01*
X007241Y002179D01*
X007184Y002235D01*
X007184Y002462D01*
X007241Y002519D01*
X007354Y002519D01*
X007411Y002462D01*
X006319Y008308D02*
X005979Y008308D01*
X005979Y008588D02*
X006319Y008588D01*
X006319Y009292D02*
X005979Y009292D01*
X005979Y009572D02*
X006319Y009572D01*
X006319Y010276D02*
X005979Y010276D01*
X005979Y010556D02*
X006319Y010556D01*
X005581Y014687D02*
X005141Y014687D01*
X005141Y015987D02*
X005581Y015987D01*
X005979Y020119D02*
X006319Y020119D01*
X006319Y020399D02*
X005979Y020399D01*
X005979Y021103D02*
X006319Y021103D01*
X006319Y021383D02*
X005979Y021383D01*
X005979Y022087D02*
X006319Y022087D01*
X006319Y022367D02*
X005979Y022367D01*
X012209Y017574D02*
X012209Y017234D01*
X012490Y017234D02*
X012490Y017574D01*
X013489Y018022D02*
X013489Y018362D01*
X013769Y018362D02*
X013769Y018022D01*
X014541Y019086D02*
X016260Y019086D01*
X016260Y022542D01*
X014541Y022542D01*
X014541Y019086D01*
X015701Y019436D02*
X015703Y019462D01*
X015709Y019488D01*
X015718Y019512D01*
X015731Y019535D01*
X015747Y019556D01*
X015766Y019574D01*
X015787Y019590D01*
X015811Y019602D01*
X015835Y019610D01*
X015861Y019615D01*
X015888Y019616D01*
X015914Y019613D01*
X015939Y019606D01*
X015963Y019596D01*
X015986Y019582D01*
X016006Y019566D01*
X016023Y019546D01*
X016038Y019524D01*
X016049Y019500D01*
X016057Y019475D01*
X016061Y019449D01*
X016061Y019423D01*
X016057Y019397D01*
X016049Y019372D01*
X016038Y019348D01*
X016023Y019326D01*
X016006Y019306D01*
X015986Y019290D01*
X015963Y019276D01*
X015939Y019266D01*
X015914Y019259D01*
X015888Y019256D01*
X015861Y019257D01*
X015835Y019262D01*
X015811Y019270D01*
X015787Y019282D01*
X015766Y019298D01*
X015747Y019316D01*
X015731Y019337D01*
X015718Y019360D01*
X015709Y019384D01*
X015703Y019410D01*
X015701Y019436D01*
X016781Y016717D02*
X014021Y016717D01*
X014021Y014097D01*
X014161Y013958D01*
X016781Y013958D01*
X016781Y016717D01*
X014180Y014257D02*
X014182Y014280D01*
X014188Y014303D01*
X014197Y014324D01*
X014210Y014344D01*
X014226Y014361D01*
X014244Y014375D01*
X014264Y014386D01*
X014286Y014394D01*
X014309Y014398D01*
X014333Y014398D01*
X014356Y014394D01*
X014378Y014386D01*
X014398Y014375D01*
X014416Y014361D01*
X014432Y014344D01*
X014445Y014324D01*
X014454Y014303D01*
X014460Y014280D01*
X014462Y014257D01*
X014460Y014234D01*
X014454Y014211D01*
X014445Y014190D01*
X014432Y014170D01*
X014416Y014153D01*
X014398Y014139D01*
X014378Y014128D01*
X014356Y014120D01*
X014333Y014116D01*
X014309Y014116D01*
X014286Y014120D01*
X014264Y014128D01*
X014244Y014139D01*
X014226Y014153D01*
X014210Y014170D01*
X014197Y014190D01*
X014188Y014211D01*
X014182Y014234D01*
X014180Y014257D01*
X012490Y015167D02*
X012490Y015508D01*
X012209Y015508D02*
X012209Y015167D01*
X019561Y015985D02*
X019902Y015985D01*
X019902Y016265D02*
X019561Y016265D01*
X019561Y013903D02*
X019902Y013903D01*
X019902Y013623D02*
X019561Y013623D01*
X024483Y010556D02*
X024823Y010556D01*
X024823Y010276D02*
X024483Y010276D01*
X024483Y009572D02*
X024823Y009572D01*
X024823Y009292D02*
X024483Y009292D01*
X024483Y008588D02*
X024823Y008588D01*
X024823Y008308D02*
X024483Y008308D01*
X027202Y010800D02*
X027202Y011000D01*
X027202Y010800D02*
X027402Y010800D01*
X027302Y011400D02*
X027304Y011444D01*
X027310Y011488D01*
X027320Y011531D01*
X027333Y011573D01*
X027350Y011614D01*
X027371Y011653D01*
X027395Y011690D01*
X027422Y011725D01*
X027452Y011757D01*
X027485Y011787D01*
X027521Y011813D01*
X027558Y011837D01*
X027598Y011856D01*
X027639Y011873D01*
X027682Y011885D01*
X027725Y011894D01*
X027769Y011899D01*
X027813Y011900D01*
X027857Y011897D01*
X027901Y011890D01*
X027944Y011879D01*
X027986Y011865D01*
X028026Y011847D01*
X028065Y011825D01*
X028101Y011801D01*
X028135Y011773D01*
X028167Y011742D01*
X028196Y011708D01*
X028222Y011672D01*
X028244Y011634D01*
X028263Y011594D01*
X028278Y011552D01*
X028290Y011510D01*
X028298Y011466D01*
X028302Y011422D01*
X028302Y011378D01*
X028298Y011334D01*
X028290Y011290D01*
X028278Y011248D01*
X028263Y011206D01*
X028244Y011166D01*
X028222Y011128D01*
X028196Y011092D01*
X028167Y011058D01*
X028135Y011027D01*
X028101Y010999D01*
X028065Y010975D01*
X028026Y010953D01*
X027986Y010935D01*
X027944Y010921D01*
X027901Y010910D01*
X027857Y010903D01*
X027813Y010900D01*
X027769Y010901D01*
X027725Y010906D01*
X027682Y010915D01*
X027639Y010927D01*
X027598Y010944D01*
X027558Y010963D01*
X027521Y010987D01*
X027485Y011013D01*
X027452Y011043D01*
X027422Y011075D01*
X027395Y011110D01*
X027371Y011147D01*
X027350Y011186D01*
X027333Y011227D01*
X027320Y011269D01*
X027310Y011312D01*
X027304Y011356D01*
X027302Y011400D01*
X027202Y011800D02*
X027202Y012000D01*
X027402Y012000D01*
X028202Y012000D02*
X028402Y012000D01*
X028402Y011800D01*
X028402Y011000D02*
X028402Y010800D01*
X028202Y010800D01*
X024823Y019134D02*
X024483Y019134D01*
X024483Y019415D02*
X024823Y019415D01*
X024823Y020119D02*
X024483Y020119D01*
X024483Y020399D02*
X024823Y020399D01*
X024823Y021103D02*
X024483Y021103D01*
X024483Y021383D02*
X024823Y021383D01*
X024823Y022087D02*
X024483Y022087D01*
X024483Y022367D02*
X024823Y022367D01*
X024913Y001788D02*
X024913Y001731D01*
X024913Y001618D02*
X024913Y001391D01*
X024856Y001391D02*
X024970Y001391D01*
X025102Y001448D02*
X025159Y001391D01*
X025329Y001391D01*
X025329Y001618D01*
X025102Y001618D02*
X025102Y001448D01*
X024913Y001618D02*
X024856Y001618D01*
X024720Y001618D02*
X024549Y001505D01*
X024720Y001391D01*
X024549Y001391D02*
X024549Y001731D01*
D12*
X027015Y001361D02*
X027015Y003723D01*
X029377Y003723D01*
X029377Y001361D01*
X027015Y001361D01*
X026228Y004511D02*
X018354Y004511D01*
X016385Y004511D01*
X016385Y014353D01*
X026228Y014353D01*
X026228Y010613D01*
X026228Y004511D01*
X026228Y010613D02*
X028983Y010613D01*
X028983Y020062D01*
X026228Y020062D01*
X026228Y016322D01*
X016385Y016322D01*
X016385Y026164D01*
X026228Y026164D01*
X026228Y020062D01*
X027015Y026952D02*
X027015Y029314D01*
X029377Y029314D01*
X029377Y026952D01*
X027015Y026952D01*
X014417Y026164D02*
X014417Y016322D01*
X004574Y016322D01*
X004574Y026164D01*
X014417Y026164D01*
X003787Y026952D02*
X001424Y026952D01*
X001424Y029314D01*
X003787Y029314D01*
X003787Y026952D01*
X002999Y017503D02*
X000637Y017503D01*
X002999Y017503D02*
X002999Y013172D01*
X000637Y013172D01*
X004574Y014353D02*
X014417Y014353D01*
X014417Y004511D01*
X012448Y004511D01*
X004574Y004511D01*
X004574Y014353D01*
X012448Y004511D02*
X012448Y000574D01*
X018354Y000574D02*
X018354Y004511D01*
X003787Y003723D02*
X003787Y001361D01*
X001424Y001361D01*
X001424Y003723D01*
X003787Y003723D01*
D13*
X002350Y013999D02*
X000657Y013999D01*
X000657Y016676D01*
X002350Y016676D01*
X002350Y016204D01*
X001798Y016204D01*
X001798Y014471D01*
X002350Y014471D01*
X002350Y013999D01*
X000657Y013999D02*
X000381Y013999D01*
X000381Y014156D01*
X000204Y014156D01*
X000187Y014160D01*
X000172Y014168D01*
X000158Y014178D01*
X000146Y014190D01*
X000136Y014205D01*
X000129Y014221D01*
X000126Y014238D01*
X000125Y014255D01*
X000125Y016440D01*
X000129Y016457D01*
X000137Y016472D01*
X000147Y016486D01*
X000159Y016498D01*
X000174Y016508D01*
X000190Y016515D01*
X000207Y016518D01*
X000224Y016519D01*
X000381Y016519D01*
X000381Y016676D01*
X000657Y016676D01*
X015698Y004023D02*
X015848Y004023D01*
X015773Y004023D02*
X015773Y003573D01*
X015698Y003573D02*
X015848Y003573D01*
X016005Y003648D02*
X016080Y003573D01*
X016230Y003573D01*
X016305Y003648D01*
X016305Y003723D01*
X016230Y003798D01*
X016080Y003798D01*
X016005Y003873D01*
X016005Y003948D01*
X016080Y004023D01*
X016230Y004023D01*
X016305Y003948D01*
X016465Y004023D02*
X016465Y003573D01*
X016465Y003723D02*
X016691Y003723D01*
X016766Y003798D01*
X016766Y003948D01*
X016691Y004023D01*
X016465Y004023D01*
X021503Y012188D02*
X021503Y018487D01*
X027802Y018487D01*
X027802Y012188D01*
X021503Y012188D01*
X023078Y013323D02*
X023078Y017456D01*
X023080Y017497D01*
X023085Y017537D01*
X023095Y017576D01*
X023108Y017615D01*
X023124Y017652D01*
X023144Y017688D01*
X023167Y017721D01*
X023193Y017752D01*
X023222Y017781D01*
X023253Y017807D01*
X023286Y017830D01*
X023322Y017850D01*
X023359Y017866D01*
X023398Y017879D01*
X023437Y017889D01*
X023477Y017894D01*
X023518Y017896D01*
X023518Y017897D02*
X023622Y017897D01*
X023622Y017896D02*
X023663Y017894D01*
X023703Y017889D01*
X023742Y017879D01*
X023781Y017866D01*
X023818Y017850D01*
X023854Y017830D01*
X023887Y017807D01*
X023918Y017781D01*
X023947Y017752D01*
X023973Y017721D01*
X023996Y017688D01*
X024016Y017652D01*
X024032Y017615D01*
X024045Y017576D01*
X024055Y017537D01*
X024060Y017497D01*
X024062Y017456D01*
X024062Y013219D01*
X024060Y013178D01*
X024055Y013138D01*
X024045Y013099D01*
X024032Y013060D01*
X024016Y013023D01*
X023996Y012987D01*
X023973Y012954D01*
X023947Y012923D01*
X023918Y012894D01*
X023887Y012868D01*
X023854Y012845D01*
X023818Y012825D01*
X023781Y012809D01*
X023742Y012796D01*
X023703Y012786D01*
X023663Y012781D01*
X023622Y012779D01*
X023577Y012781D01*
X023532Y012786D01*
X023488Y012796D01*
X023445Y012808D01*
X023403Y012825D01*
X023363Y012845D01*
X023324Y012868D01*
X023288Y012894D01*
X023254Y012923D01*
X023222Y012955D01*
X023193Y012989D01*
X023167Y013025D01*
X023144Y013064D01*
X023124Y013104D01*
X023107Y013146D01*
X023095Y013189D01*
X023085Y013233D01*
X023080Y013278D01*
X023078Y013323D01*
X024850Y013566D02*
X024850Y012778D01*
X025243Y012778D01*
X025243Y013566D01*
X024850Y013566D01*
X025440Y013960D02*
X025440Y014353D01*
X026031Y014353D01*
X026031Y013960D01*
X025440Y013960D01*
X025637Y013566D02*
X026228Y013566D01*
X026228Y013172D01*
X025637Y013172D01*
X025637Y013566D01*
X026510Y011964D02*
X026510Y011664D01*
X026510Y011814D02*
X026960Y011814D01*
X026960Y011503D02*
X026510Y011503D01*
X026510Y011203D02*
X026960Y011503D01*
X026960Y011203D02*
X026510Y011203D01*
X026660Y011043D02*
X026960Y011043D01*
X026735Y011043D02*
X026735Y010743D01*
X026660Y010743D02*
X026510Y010893D01*
X026660Y011043D01*
X026660Y010743D02*
X026960Y010743D01*
X024206Y015928D02*
X024208Y015990D01*
X024214Y016053D01*
X024224Y016114D01*
X024238Y016175D01*
X024255Y016235D01*
X024276Y016294D01*
X024302Y016351D01*
X024330Y016406D01*
X024362Y016460D01*
X024398Y016511D01*
X024436Y016561D01*
X024478Y016607D01*
X024522Y016651D01*
X024570Y016692D01*
X024619Y016730D01*
X024671Y016764D01*
X024725Y016795D01*
X024781Y016823D01*
X024839Y016847D01*
X024898Y016868D01*
X024958Y016884D01*
X025019Y016897D01*
X025081Y016906D01*
X025143Y016911D01*
X025206Y016912D01*
X025268Y016909D01*
X025330Y016902D01*
X025392Y016891D01*
X025452Y016876D01*
X025512Y016858D01*
X025570Y016836D01*
X025627Y016810D01*
X025682Y016780D01*
X025735Y016747D01*
X025786Y016711D01*
X025834Y016672D01*
X025880Y016629D01*
X025923Y016584D01*
X025963Y016536D01*
X026000Y016486D01*
X026034Y016433D01*
X026065Y016379D01*
X026091Y016323D01*
X026115Y016265D01*
X026134Y016205D01*
X026150Y016145D01*
X026162Y016083D01*
X026170Y016022D01*
X026174Y015959D01*
X026174Y015897D01*
X026170Y015834D01*
X026162Y015773D01*
X026150Y015711D01*
X026134Y015651D01*
X026115Y015591D01*
X026091Y015533D01*
X026065Y015477D01*
X026034Y015423D01*
X026000Y015370D01*
X025963Y015320D01*
X025923Y015272D01*
X025880Y015227D01*
X025834Y015184D01*
X025786Y015145D01*
X025735Y015109D01*
X025682Y015076D01*
X025627Y015046D01*
X025570Y015020D01*
X025512Y014998D01*
X025452Y014980D01*
X025392Y014965D01*
X025330Y014954D01*
X025268Y014947D01*
X025206Y014944D01*
X025143Y014945D01*
X025081Y014950D01*
X025019Y014959D01*
X024958Y014972D01*
X024898Y014988D01*
X024839Y015009D01*
X024781Y015033D01*
X024725Y015061D01*
X024671Y015092D01*
X024619Y015126D01*
X024570Y015164D01*
X024522Y015205D01*
X024478Y015249D01*
X024436Y015295D01*
X024398Y015345D01*
X024362Y015396D01*
X024330Y015450D01*
X024302Y015505D01*
X024276Y015562D01*
X024255Y015621D01*
X024238Y015681D01*
X024224Y015742D01*
X024214Y015803D01*
X024208Y015866D01*
X024206Y015928D01*
D14*
X016401Y005798D03*
X016401Y004798D03*
X015401Y004798D03*
X015401Y005798D03*
X014401Y005798D03*
X014401Y004798D03*
D15*
X010889Y006850D02*
X010889Y007310D01*
X010659Y007080D01*
X010966Y007080D01*
X010506Y007233D02*
X010506Y006926D01*
X010429Y006850D01*
X010199Y006850D01*
X010199Y007310D01*
X010429Y007310D01*
X010506Y007233D01*
X010045Y007310D02*
X009738Y007310D01*
X009738Y006850D01*
X010045Y006850D01*
X009892Y007080D02*
X009738Y007080D01*
X009585Y006850D02*
X009278Y006850D01*
X009278Y007310D01*
X008826Y008822D02*
X008826Y010042D01*
X009987Y010042D01*
X010165Y009865D01*
X010066Y009963D01*
X010076Y010042D02*
X010165Y010042D01*
X010165Y009865D01*
X010165Y008822D01*
X008826Y008822D01*
X009023Y009117D02*
X009023Y009747D01*
X009025Y009769D01*
X009029Y009791D01*
X009037Y009812D01*
X009048Y009832D01*
X009061Y009850D01*
X009077Y009866D01*
X009095Y009879D01*
X009115Y009890D01*
X009136Y009898D01*
X009158Y009902D01*
X009180Y009904D01*
X009810Y009904D01*
X009832Y009902D01*
X009854Y009898D01*
X009875Y009890D01*
X009895Y009879D01*
X009913Y009866D01*
X009929Y009850D01*
X009942Y009832D01*
X009953Y009812D01*
X009961Y009791D01*
X009965Y009769D01*
X009967Y009747D01*
X009968Y009747D02*
X009968Y009117D01*
X009967Y009117D02*
X009965Y009095D01*
X009961Y009073D01*
X009953Y009052D01*
X009942Y009032D01*
X009929Y009014D01*
X009913Y008998D01*
X009895Y008985D01*
X009875Y008974D01*
X009854Y008966D01*
X009832Y008962D01*
X009810Y008960D01*
X009180Y008960D01*
X009158Y008962D01*
X009136Y008966D01*
X009115Y008974D01*
X009095Y008985D01*
X009077Y008998D01*
X009061Y009014D01*
X009048Y009032D01*
X009037Y009052D01*
X009029Y009073D01*
X009025Y009095D01*
X009023Y009117D01*
X009190Y009225D02*
X009190Y009639D01*
X009192Y009659D01*
X009197Y009679D01*
X009206Y009698D01*
X009218Y009715D01*
X009232Y009729D01*
X009249Y009741D01*
X009268Y009750D01*
X009288Y009755D01*
X009308Y009757D01*
X009682Y009757D01*
X009702Y009755D01*
X009722Y009750D01*
X009741Y009741D01*
X009758Y009729D01*
X009772Y009715D01*
X009784Y009698D01*
X009793Y009679D01*
X009798Y009659D01*
X009800Y009639D01*
X009800Y009225D01*
X009798Y009205D01*
X009793Y009185D01*
X009784Y009166D01*
X009772Y009149D01*
X009758Y009135D01*
X009741Y009123D01*
X009722Y009114D01*
X009702Y009109D01*
X009682Y009107D01*
X009308Y009107D01*
X009288Y009109D01*
X009268Y009114D01*
X009249Y009123D01*
X009232Y009135D01*
X009218Y009149D01*
X009206Y009166D01*
X009197Y009185D01*
X009192Y009205D01*
X009190Y009225D01*
X009987Y010042D02*
X010165Y010042D01*
X007984Y009806D02*
X007984Y009729D01*
X007677Y009422D01*
X007677Y009346D01*
X007523Y009346D02*
X007217Y009346D01*
X007370Y009346D02*
X007370Y009806D01*
X007217Y009653D01*
X007063Y009729D02*
X007063Y009576D01*
X006986Y009499D01*
X006756Y009499D01*
X006756Y009346D02*
X006756Y009806D01*
X006986Y009806D01*
X007063Y009729D01*
X006910Y009499D02*
X007063Y009346D01*
X006986Y008822D02*
X006756Y008822D01*
X006756Y008361D01*
X006756Y008515D02*
X006986Y008515D01*
X007063Y008592D01*
X007063Y008745D01*
X006986Y008822D01*
X007217Y008668D02*
X007370Y008822D01*
X007370Y008361D01*
X007217Y008361D02*
X007523Y008361D01*
X007677Y008438D02*
X007754Y008361D01*
X007907Y008361D01*
X007984Y008438D01*
X007984Y008515D01*
X007907Y008592D01*
X007677Y008592D01*
X007677Y008438D01*
X007677Y008592D02*
X007830Y008745D01*
X007984Y008822D01*
X007984Y009806D02*
X007677Y009806D01*
X007754Y010330D02*
X007677Y010407D01*
X007677Y010483D01*
X007754Y010560D01*
X007907Y010560D01*
X007984Y010483D01*
X007984Y010407D01*
X007907Y010330D01*
X007754Y010330D01*
X007754Y010560D02*
X007677Y010637D01*
X007677Y010714D01*
X007754Y010790D01*
X007907Y010790D01*
X007984Y010714D01*
X007984Y010637D01*
X007907Y010560D01*
X007523Y010330D02*
X007217Y010330D01*
X007370Y010330D02*
X007370Y010790D01*
X007217Y010637D01*
X007063Y010714D02*
X006986Y010790D01*
X006756Y010790D01*
X006756Y010330D01*
X006756Y010483D02*
X006986Y010483D01*
X007063Y010560D01*
X007063Y010714D01*
X006910Y010483D02*
X007063Y010330D01*
X006910Y008515D02*
X007063Y008361D01*
X006803Y013480D02*
X006496Y013480D01*
X006649Y013480D02*
X006649Y013940D01*
X006496Y013786D01*
X006342Y013863D02*
X006266Y013940D01*
X006112Y013940D01*
X006035Y013863D01*
X006035Y013556D01*
X006112Y013480D01*
X006266Y013480D01*
X006342Y013556D01*
X005622Y013480D02*
X005315Y013480D01*
X005622Y013786D01*
X005622Y013863D01*
X005545Y013940D01*
X005391Y013940D01*
X005315Y013863D01*
X005161Y013863D02*
X005085Y013940D01*
X004931Y013940D01*
X004854Y013863D01*
X004854Y013556D01*
X004931Y013480D01*
X005085Y013480D01*
X005161Y013556D01*
X006378Y015197D02*
X006378Y015478D01*
X006713Y015478D02*
X006713Y015197D01*
X009278Y018661D02*
X009585Y018661D01*
X009738Y018661D02*
X010045Y018661D01*
X010199Y018661D02*
X010429Y018661D01*
X010506Y018737D01*
X010506Y019044D01*
X010429Y019121D01*
X010199Y019121D01*
X010199Y018661D01*
X009892Y018891D02*
X009738Y018891D01*
X009738Y019121D02*
X009738Y018661D01*
X009278Y018661D02*
X009278Y019121D01*
X009738Y019121D02*
X010045Y019121D01*
X010659Y018968D02*
X010813Y019121D01*
X010813Y018661D01*
X010966Y018661D02*
X010659Y018661D01*
X011363Y017665D02*
X011440Y017665D01*
X011517Y017588D01*
X011593Y017665D01*
X011670Y017665D01*
X011747Y017588D01*
X011747Y017434D01*
X011670Y017358D01*
X011747Y017204D02*
X011593Y017051D01*
X011593Y017128D02*
X011593Y016897D01*
X011747Y016897D02*
X011287Y016897D01*
X011287Y017128D01*
X011363Y017204D01*
X011517Y017204D01*
X011593Y017128D01*
X011363Y017358D02*
X011287Y017434D01*
X011287Y017588D01*
X011363Y017665D01*
X011517Y017588D02*
X011517Y017511D01*
X012566Y018275D02*
X012566Y018505D01*
X012643Y018582D01*
X012796Y018582D01*
X012873Y018505D01*
X012873Y018275D01*
X013026Y018275D02*
X012566Y018275D01*
X012873Y018429D02*
X013026Y018582D01*
X013026Y018736D02*
X012720Y019043D01*
X012643Y019043D01*
X012566Y018966D01*
X012566Y018812D01*
X012643Y018736D01*
X013026Y018736D02*
X013026Y019043D01*
X014894Y017800D02*
X014894Y017493D01*
X014970Y017417D01*
X015124Y017417D01*
X015201Y017493D01*
X015354Y017493D02*
X015431Y017417D01*
X015584Y017417D01*
X015661Y017493D01*
X015661Y017647D01*
X015584Y017723D01*
X015508Y017723D01*
X015354Y017647D01*
X015354Y017877D01*
X015661Y017877D01*
X015541Y018120D02*
X015261Y018120D01*
X015124Y017877D02*
X014970Y017877D01*
X014894Y017800D01*
X015124Y017877D02*
X015201Y017800D01*
X015261Y018455D02*
X015541Y018455D01*
X011747Y015696D02*
X011747Y015389D01*
X011747Y015236D02*
X011593Y015082D01*
X011593Y015159D02*
X011593Y014929D01*
X011747Y014929D02*
X011287Y014929D01*
X011287Y015159D01*
X011363Y015236D01*
X011517Y015236D01*
X011593Y015159D01*
X011440Y015389D02*
X011287Y015543D01*
X011747Y015543D01*
X015261Y012747D02*
X015541Y012747D01*
X015541Y012411D02*
X015261Y012411D01*
X015386Y012115D02*
X015309Y012038D01*
X015386Y012115D02*
X015539Y012115D01*
X015616Y012038D01*
X015616Y011962D01*
X015539Y011885D01*
X015616Y011808D01*
X015616Y011731D01*
X015539Y011655D01*
X015386Y011655D01*
X015309Y011731D01*
X015155Y011731D02*
X015079Y011655D01*
X014925Y011655D01*
X014848Y011731D01*
X014848Y012038D01*
X014925Y012115D01*
X015079Y012115D01*
X015155Y012038D01*
X015462Y011885D02*
X015539Y011885D01*
X019403Y014230D02*
X019403Y014690D01*
X019633Y014690D01*
X019710Y014613D01*
X019710Y014460D01*
X019633Y014383D01*
X019403Y014383D01*
X019557Y014383D02*
X019710Y014230D01*
X019863Y014306D02*
X019940Y014230D01*
X020094Y014230D01*
X020170Y014306D01*
X020170Y014383D01*
X020094Y014460D01*
X019863Y014460D01*
X019863Y014306D01*
X019863Y014460D02*
X020017Y014613D01*
X020170Y014690D01*
X020094Y016592D02*
X020094Y017052D01*
X019863Y016822D01*
X020170Y016822D01*
X019710Y016822D02*
X019710Y016975D01*
X019633Y017052D01*
X019403Y017052D01*
X019403Y016592D01*
X019403Y016745D02*
X019633Y016745D01*
X019710Y016822D01*
X019557Y016745D02*
X019710Y016592D01*
X022704Y018999D02*
X022704Y019460D01*
X022934Y019460D01*
X023011Y019383D01*
X023011Y019229D01*
X022934Y019153D01*
X022704Y019153D01*
X022858Y019153D02*
X023011Y018999D01*
X023165Y019076D02*
X023241Y018999D01*
X023395Y018999D01*
X023472Y019076D01*
X023472Y019229D01*
X023395Y019306D01*
X023318Y019306D01*
X023165Y019229D01*
X023165Y019460D01*
X023472Y019460D01*
X023472Y020082D02*
X023165Y020082D01*
X023318Y020082D02*
X023318Y020542D01*
X023165Y020389D01*
X023011Y020466D02*
X023011Y020312D01*
X022934Y020235D01*
X022704Y020235D01*
X022704Y020082D02*
X022704Y020542D01*
X022934Y020542D01*
X023011Y020466D01*
X022858Y020235D02*
X023011Y020082D01*
X023625Y020159D02*
X023932Y020466D01*
X023932Y020159D01*
X023855Y020082D01*
X023702Y020082D01*
X023625Y020159D01*
X023625Y020466D01*
X023702Y020542D01*
X023855Y020542D01*
X023932Y020466D01*
X023932Y021066D02*
X023625Y021066D01*
X023472Y021066D02*
X023165Y021066D01*
X023318Y021066D02*
X023318Y021527D01*
X023165Y021373D01*
X023011Y021296D02*
X022934Y021220D01*
X022704Y021220D01*
X022858Y021220D02*
X023011Y021066D01*
X023011Y021296D02*
X023011Y021450D01*
X022934Y021527D01*
X022704Y021527D01*
X022704Y021066D01*
X021976Y020633D02*
X020814Y020633D01*
X020637Y020810D01*
X020735Y020711D01*
X020726Y020633D02*
X020637Y020633D01*
X020637Y020810D01*
X020637Y021853D01*
X021976Y021853D01*
X021976Y020633D01*
X021779Y020928D02*
X021779Y021558D01*
X021778Y021558D02*
X021776Y021580D01*
X021772Y021602D01*
X021764Y021623D01*
X021753Y021643D01*
X021740Y021661D01*
X021724Y021677D01*
X021706Y021690D01*
X021686Y021701D01*
X021665Y021709D01*
X021643Y021713D01*
X021621Y021715D01*
X020991Y021715D01*
X020969Y021713D01*
X020947Y021709D01*
X020926Y021701D01*
X020906Y021690D01*
X020888Y021677D01*
X020872Y021661D01*
X020859Y021643D01*
X020848Y021623D01*
X020840Y021602D01*
X020836Y021580D01*
X020834Y021558D01*
X020834Y020928D01*
X020836Y020906D01*
X020840Y020884D01*
X020848Y020863D01*
X020859Y020843D01*
X020872Y020825D01*
X020888Y020809D01*
X020906Y020796D01*
X020926Y020785D01*
X020947Y020777D01*
X020969Y020773D01*
X020991Y020771D01*
X021621Y020771D01*
X021643Y020773D01*
X021665Y020777D01*
X021686Y020785D01*
X021706Y020796D01*
X021724Y020809D01*
X021740Y020825D01*
X021753Y020843D01*
X021764Y020863D01*
X021772Y020884D01*
X021776Y020906D01*
X021778Y020928D01*
X021611Y021036D02*
X021611Y021450D01*
X021609Y021470D01*
X021604Y021490D01*
X021595Y021509D01*
X021583Y021526D01*
X021569Y021540D01*
X021552Y021552D01*
X021533Y021561D01*
X021513Y021566D01*
X021493Y021568D01*
X021119Y021568D01*
X021099Y021566D01*
X021079Y021561D01*
X021060Y021552D01*
X021043Y021540D01*
X021029Y021526D01*
X021017Y021509D01*
X021008Y021490D01*
X021003Y021470D01*
X021001Y021450D01*
X021001Y021036D01*
X021003Y021016D01*
X021008Y020996D01*
X021017Y020977D01*
X021029Y020960D01*
X021043Y020946D01*
X021060Y020934D01*
X021079Y020925D01*
X021099Y020920D01*
X021119Y020918D01*
X021493Y020918D01*
X021513Y020920D01*
X021533Y020925D01*
X021552Y020934D01*
X021569Y020946D01*
X021583Y020960D01*
X021595Y020977D01*
X021604Y020996D01*
X021609Y021016D01*
X021611Y021036D01*
X020814Y020633D02*
X020637Y020633D01*
X022704Y022050D02*
X022704Y022511D01*
X022934Y022511D01*
X023011Y022434D01*
X023011Y022281D01*
X022934Y022204D01*
X022704Y022204D01*
X022858Y022204D02*
X023011Y022050D01*
X023165Y022050D02*
X023472Y022050D01*
X023625Y022050D02*
X023932Y022357D01*
X023932Y022434D01*
X023855Y022511D01*
X023702Y022511D01*
X023625Y022434D01*
X023318Y022511D02*
X023165Y022357D01*
X023318Y022511D02*
X023318Y022050D01*
X023625Y022050D02*
X023932Y022050D01*
X023778Y021527D02*
X023778Y021066D01*
X023625Y021373D02*
X023778Y021527D01*
X021410Y023365D02*
X021103Y023365D01*
X021410Y023672D01*
X021410Y023749D01*
X021333Y023826D01*
X021180Y023826D01*
X021103Y023749D01*
X020950Y023749D02*
X020873Y023826D01*
X020643Y023826D01*
X020643Y023365D01*
X020873Y023365D01*
X020950Y023442D01*
X020950Y023749D01*
X020489Y023826D02*
X020182Y023826D01*
X020182Y023365D01*
X020489Y023365D01*
X020336Y023596D02*
X020182Y023596D01*
X020029Y023365D02*
X019722Y023365D01*
X019722Y023826D01*
X015719Y023157D02*
X015659Y023217D01*
X015539Y023217D01*
X015479Y023157D01*
X015351Y023157D02*
X015291Y023217D01*
X015170Y023217D01*
X015110Y023157D01*
X015110Y022917D01*
X015170Y022857D01*
X015291Y022857D01*
X015351Y022917D01*
X015479Y022857D02*
X015719Y023097D01*
X015719Y023157D01*
X015719Y022857D02*
X015479Y022857D01*
X014985Y022857D02*
X014865Y022857D01*
X014925Y022857D02*
X014925Y023217D01*
X014865Y023217D02*
X014985Y023217D01*
X010165Y021853D02*
X010165Y021676D01*
X010066Y021774D01*
X010076Y021853D02*
X010165Y021853D01*
X009987Y021853D01*
X010165Y021676D01*
X010165Y020633D01*
X008826Y020633D01*
X008826Y021853D01*
X009987Y021853D01*
X009810Y021715D02*
X009180Y021715D01*
X009158Y021713D01*
X009136Y021709D01*
X009115Y021701D01*
X009095Y021690D01*
X009077Y021677D01*
X009061Y021661D01*
X009048Y021643D01*
X009037Y021623D01*
X009029Y021602D01*
X009025Y021580D01*
X009023Y021558D01*
X009023Y020928D01*
X009025Y020906D01*
X009029Y020884D01*
X009037Y020863D01*
X009048Y020843D01*
X009061Y020825D01*
X009077Y020809D01*
X009095Y020796D01*
X009115Y020785D01*
X009136Y020777D01*
X009158Y020773D01*
X009180Y020771D01*
X009810Y020771D01*
X009832Y020773D01*
X009854Y020777D01*
X009875Y020785D01*
X009895Y020796D01*
X009913Y020809D01*
X009929Y020825D01*
X009942Y020843D01*
X009953Y020863D01*
X009961Y020884D01*
X009965Y020906D01*
X009967Y020928D01*
X009968Y020928D02*
X009968Y021558D01*
X009967Y021558D02*
X009965Y021580D01*
X009961Y021602D01*
X009953Y021623D01*
X009942Y021643D01*
X009929Y021661D01*
X009913Y021677D01*
X009895Y021690D01*
X009875Y021701D01*
X009854Y021709D01*
X009832Y021713D01*
X009810Y021715D01*
X009682Y021568D02*
X009308Y021568D01*
X009288Y021566D01*
X009268Y021561D01*
X009249Y021552D01*
X009232Y021540D01*
X009218Y021526D01*
X009206Y021509D01*
X009197Y021490D01*
X009192Y021470D01*
X009190Y021450D01*
X009190Y021036D01*
X009192Y021016D01*
X009197Y020996D01*
X009206Y020977D01*
X009218Y020960D01*
X009232Y020946D01*
X009249Y020934D01*
X009268Y020925D01*
X009288Y020920D01*
X009308Y020918D01*
X009682Y020918D01*
X009702Y020920D01*
X009722Y020925D01*
X009741Y020934D01*
X009758Y020946D01*
X009772Y020960D01*
X009784Y020977D01*
X009793Y020996D01*
X009798Y021016D01*
X009800Y021036D01*
X009800Y021450D01*
X009798Y021470D01*
X009793Y021490D01*
X009784Y021509D01*
X009772Y021526D01*
X009758Y021540D01*
X009741Y021552D01*
X009722Y021561D01*
X009702Y021566D01*
X009682Y021568D01*
X007840Y021968D02*
X007763Y021891D01*
X007610Y021891D01*
X007533Y021968D01*
X007533Y022121D02*
X007687Y022198D01*
X007763Y022198D01*
X007840Y022121D01*
X007840Y021968D01*
X007533Y022121D02*
X007533Y022351D01*
X007840Y022351D01*
X007380Y021891D02*
X007073Y021891D01*
X007226Y021891D02*
X007226Y022351D01*
X007073Y022198D01*
X006919Y022275D02*
X006919Y022121D01*
X006843Y022044D01*
X006612Y022044D01*
X006612Y021891D02*
X006612Y022351D01*
X006843Y022351D01*
X006919Y022275D01*
X006766Y022044D02*
X006919Y021891D01*
X006843Y021367D02*
X006612Y021367D01*
X006612Y020907D01*
X006612Y021060D02*
X006843Y021060D01*
X006919Y021137D01*
X006919Y021290D01*
X006843Y021367D01*
X007073Y021214D02*
X007226Y021367D01*
X007226Y020907D01*
X007073Y020907D02*
X007380Y020907D01*
X007533Y021137D02*
X007840Y021137D01*
X007763Y020907D02*
X007763Y021367D01*
X007533Y021137D01*
X006919Y020907D02*
X006766Y021060D01*
X006843Y020383D02*
X006612Y020383D01*
X006612Y019922D01*
X006612Y020076D02*
X006843Y020076D01*
X006919Y020153D01*
X006919Y020306D01*
X006843Y020383D01*
X007073Y020229D02*
X007226Y020383D01*
X007226Y019922D01*
X007073Y019922D02*
X007380Y019922D01*
X007533Y019999D02*
X007610Y019922D01*
X007763Y019922D01*
X007840Y019999D01*
X007840Y020076D01*
X007763Y020153D01*
X007687Y020153D01*
X007763Y020153D02*
X007840Y020229D01*
X007840Y020306D01*
X007763Y020383D01*
X007610Y020383D01*
X007533Y020306D01*
X006919Y019922D02*
X006766Y020076D01*
X019722Y012015D02*
X019722Y011554D01*
X020029Y011554D01*
X020182Y011554D02*
X020489Y011554D01*
X020643Y011554D02*
X020873Y011554D01*
X020950Y011631D01*
X020950Y011938D01*
X020873Y012015D01*
X020643Y012015D01*
X020643Y011554D01*
X020336Y011785D02*
X020182Y011785D01*
X020182Y012015D02*
X020182Y011554D01*
X020182Y012015D02*
X020489Y012015D01*
X021103Y011938D02*
X021180Y012015D01*
X021333Y012015D01*
X021410Y011938D01*
X021410Y011861D01*
X021333Y011785D01*
X021410Y011708D01*
X021410Y011631D01*
X021333Y011554D01*
X021180Y011554D01*
X021103Y011631D01*
X021257Y011785D02*
X021333Y011785D01*
X022901Y011607D02*
X022901Y011300D01*
X022978Y011224D01*
X023131Y011224D01*
X023208Y011300D01*
X023361Y011454D02*
X023668Y011454D01*
X023592Y011684D02*
X023361Y011454D01*
X023208Y011607D02*
X023131Y011684D01*
X022978Y011684D01*
X022901Y011607D01*
X023592Y011684D02*
X023592Y011224D01*
X023592Y010700D02*
X023438Y010700D01*
X023361Y010623D01*
X023361Y010546D01*
X023438Y010470D01*
X023668Y010470D01*
X023668Y010623D02*
X023592Y010700D01*
X023668Y010623D02*
X023668Y010316D01*
X023592Y010239D01*
X023438Y010239D01*
X023361Y010316D01*
X023208Y010239D02*
X023055Y010393D01*
X023131Y010393D02*
X022901Y010393D01*
X022901Y010239D02*
X022901Y010700D01*
X023131Y010700D01*
X023208Y010623D01*
X023208Y010470D01*
X023131Y010393D01*
X023131Y009716D02*
X022901Y009716D01*
X022901Y009255D01*
X022901Y009409D02*
X023131Y009409D01*
X023208Y009485D01*
X023208Y009639D01*
X023131Y009716D01*
X023361Y009639D02*
X023361Y009562D01*
X023438Y009485D01*
X023592Y009485D01*
X023668Y009409D01*
X023668Y009332D01*
X023592Y009255D01*
X023438Y009255D01*
X023361Y009332D01*
X023361Y009409D01*
X023438Y009485D01*
X023592Y009485D02*
X023668Y009562D01*
X023668Y009639D01*
X023592Y009716D01*
X023438Y009716D01*
X023361Y009639D01*
X023055Y009409D02*
X023208Y009255D01*
X023131Y008731D02*
X022901Y008731D01*
X022901Y008271D01*
X022901Y008424D02*
X023131Y008424D01*
X023208Y008501D01*
X023208Y008655D01*
X023131Y008731D01*
X023361Y008731D02*
X023668Y008731D01*
X023668Y008655D01*
X023361Y008348D01*
X023361Y008271D01*
X023208Y008271D02*
X023055Y008424D01*
X021976Y008822D02*
X020814Y008822D01*
X020637Y008999D01*
X020735Y008900D01*
X020726Y008822D02*
X020637Y008822D01*
X020637Y008999D01*
X020637Y010042D01*
X021976Y010042D01*
X021976Y008822D01*
X021779Y009117D02*
X021779Y009747D01*
X021778Y009747D02*
X021776Y009769D01*
X021772Y009791D01*
X021764Y009812D01*
X021753Y009832D01*
X021740Y009850D01*
X021724Y009866D01*
X021706Y009879D01*
X021686Y009890D01*
X021665Y009898D01*
X021643Y009902D01*
X021621Y009904D01*
X020991Y009904D01*
X020969Y009902D01*
X020947Y009898D01*
X020926Y009890D01*
X020906Y009879D01*
X020888Y009866D01*
X020872Y009850D01*
X020859Y009832D01*
X020848Y009812D01*
X020840Y009791D01*
X020836Y009769D01*
X020834Y009747D01*
X020834Y009117D01*
X020836Y009095D01*
X020840Y009073D01*
X020848Y009052D01*
X020859Y009032D01*
X020872Y009014D01*
X020888Y008998D01*
X020906Y008985D01*
X020926Y008974D01*
X020947Y008966D01*
X020969Y008962D01*
X020991Y008960D01*
X021621Y008960D01*
X021643Y008962D01*
X021665Y008966D01*
X021686Y008974D01*
X021706Y008985D01*
X021724Y008998D01*
X021740Y009014D01*
X021753Y009032D01*
X021764Y009052D01*
X021772Y009073D01*
X021776Y009095D01*
X021778Y009117D01*
X021611Y009225D02*
X021611Y009639D01*
X021609Y009659D01*
X021604Y009679D01*
X021595Y009698D01*
X021583Y009715D01*
X021569Y009729D01*
X021552Y009741D01*
X021533Y009750D01*
X021513Y009755D01*
X021493Y009757D01*
X021119Y009757D01*
X021099Y009755D01*
X021079Y009750D01*
X021060Y009741D01*
X021043Y009729D01*
X021029Y009715D01*
X021017Y009698D01*
X021008Y009679D01*
X021003Y009659D01*
X021001Y009639D01*
X021001Y009225D01*
X021003Y009205D01*
X021008Y009185D01*
X021017Y009166D01*
X021029Y009149D01*
X021043Y009135D01*
X021060Y009123D01*
X021079Y009114D01*
X021099Y009109D01*
X021119Y009107D01*
X021493Y009107D01*
X021513Y009109D01*
X021533Y009114D01*
X021552Y009123D01*
X021569Y009135D01*
X021583Y009149D01*
X021595Y009166D01*
X021604Y009185D01*
X021609Y009205D01*
X021611Y009225D01*
X020814Y008822D02*
X020637Y008822D01*
X024513Y011230D02*
X024793Y011230D01*
X024793Y011565D02*
X024513Y011565D01*
X023845Y014176D02*
X023385Y014176D01*
X023385Y014407D01*
X023462Y014483D01*
X023615Y014483D01*
X023692Y014407D01*
X023692Y014176D01*
X023692Y014330D02*
X023845Y014483D01*
X023845Y014637D02*
X023385Y014637D01*
X023385Y014944D01*
X023385Y015097D02*
X023538Y015251D01*
X023385Y015404D01*
X023845Y015404D01*
X023845Y015558D02*
X023845Y015864D01*
X023845Y015711D02*
X023385Y015711D01*
X023538Y015558D01*
X023385Y015097D02*
X023845Y015097D01*
X023615Y014790D02*
X023615Y014637D01*
X023462Y016018D02*
X023385Y016095D01*
X023385Y016248D01*
X023462Y016325D01*
X023538Y016325D01*
X023845Y016018D01*
X023845Y016325D01*
D16*
X006545Y015569D03*
X006545Y015109D03*
D17*
X014298Y013742D03*
X014613Y013742D03*
X014928Y013742D03*
X015243Y013742D03*
X015558Y013742D03*
X015873Y013742D03*
X016188Y013742D03*
X016503Y013742D03*
X016503Y016932D03*
X016188Y016932D03*
X015873Y016932D03*
X015558Y016932D03*
X015243Y016932D03*
X014928Y016932D03*
X014613Y016932D03*
X014298Y016932D03*
D18*
X013806Y016440D03*
X013806Y016125D03*
X013806Y015810D03*
X013806Y015495D03*
X013806Y015180D03*
X013806Y014865D03*
X013806Y014550D03*
X013806Y014235D03*
X016996Y014235D03*
X016996Y014550D03*
X016996Y014865D03*
X016996Y015180D03*
X016996Y015495D03*
X016996Y015810D03*
X016996Y016125D03*
X016996Y016440D03*
D19*
X014035Y013871D02*
X014035Y013581D01*
X013938Y013581D02*
X014132Y013581D01*
X013938Y013774D02*
X014035Y013871D01*
X013837Y013823D02*
X013789Y013871D01*
X013692Y013871D01*
X013644Y013823D01*
X013644Y013629D01*
X013692Y013581D01*
X013789Y013581D01*
X013837Y013629D01*
X013544Y013581D02*
X013447Y013581D01*
X013496Y013581D02*
X013496Y013871D01*
X013544Y013871D02*
X013447Y013871D01*
D20*
X014631Y019176D02*
X016170Y019176D01*
X016170Y022452D01*
X014631Y022452D01*
X014631Y019176D01*
X022210Y017696D02*
X022210Y017660D01*
X022247Y017623D01*
X022320Y017623D01*
X022357Y017586D01*
X022357Y017550D01*
X022320Y017513D01*
X022247Y017513D01*
X022210Y017550D01*
X022210Y017696D02*
X022247Y017733D01*
X022320Y017733D01*
X022357Y017696D01*
X022431Y017733D02*
X022541Y017733D01*
X022578Y017696D01*
X022578Y017550D01*
X022541Y017513D01*
X022431Y017513D01*
X022431Y017733D01*
X022652Y017696D02*
X022652Y017550D01*
X022689Y017513D01*
X022762Y017513D01*
X022799Y017550D01*
X022799Y017696D01*
X022762Y017733D01*
X022689Y017733D01*
X022652Y017696D01*
X022688Y017142D02*
X022725Y017106D01*
X022725Y017032D01*
X022688Y016996D01*
X022578Y016996D01*
X022652Y016996D02*
X022725Y016922D01*
X022799Y016959D02*
X022836Y016922D01*
X022909Y016922D01*
X022946Y016959D01*
X022946Y017106D01*
X022909Y017142D01*
X022836Y017142D01*
X022799Y017106D01*
X022799Y016959D01*
X022873Y016996D02*
X022946Y016922D01*
X022688Y017142D02*
X022578Y017142D01*
X022578Y016922D01*
X022504Y016922D02*
X022431Y016922D01*
X022468Y016922D02*
X022468Y017142D01*
X022504Y017142D02*
X022431Y017142D01*
X022357Y017032D02*
X022357Y016922D01*
X022357Y017032D02*
X022320Y017069D01*
X022210Y017069D01*
X022210Y016922D01*
X022210Y016158D02*
X022357Y016158D01*
X022431Y016122D02*
X022431Y016085D01*
X022468Y016048D01*
X022541Y016048D01*
X022578Y016011D01*
X022578Y015975D01*
X022541Y015938D01*
X022468Y015938D01*
X022431Y015975D01*
X022431Y016122D02*
X022468Y016158D01*
X022541Y016158D01*
X022578Y016122D01*
X022652Y016158D02*
X022652Y015938D01*
X022652Y016011D02*
X022799Y016158D01*
X022689Y016048D02*
X022799Y015938D01*
X022873Y015371D02*
X022873Y015151D01*
X022873Y015224D02*
X023020Y015371D01*
X022910Y015261D02*
X023020Y015151D01*
X022799Y015151D02*
X022652Y015151D01*
X022652Y015371D01*
X022578Y015334D02*
X022541Y015371D01*
X022468Y015371D01*
X022431Y015334D01*
X022431Y015187D01*
X022468Y015151D01*
X022541Y015151D01*
X022578Y015187D01*
X022357Y015187D02*
X022357Y015334D01*
X022320Y015371D01*
X022210Y015371D01*
X022210Y015151D01*
X022320Y015151D01*
X022357Y015187D01*
X022320Y014583D02*
X022247Y014583D01*
X022210Y014547D01*
X022210Y014400D01*
X022247Y014363D01*
X022320Y014363D01*
X022357Y014400D01*
X022431Y014363D02*
X022578Y014363D01*
X022652Y014363D02*
X022652Y014583D01*
X022689Y014473D02*
X022799Y014363D01*
X022652Y014437D02*
X022799Y014583D01*
X022431Y014583D02*
X022431Y014363D01*
X022357Y014547D02*
X022320Y014583D01*
X022431Y013993D02*
X022541Y013993D01*
X022578Y013956D01*
X022578Y013883D01*
X022541Y013846D01*
X022431Y013846D01*
X022431Y013773D02*
X022431Y013993D01*
X022357Y013883D02*
X022357Y013773D01*
X022357Y013883D02*
X022320Y013919D01*
X022210Y013919D01*
X022210Y013773D01*
X022504Y013846D02*
X022578Y013773D01*
X022652Y013773D02*
X022799Y013773D01*
X022873Y013809D02*
X022910Y013773D01*
X022983Y013773D01*
X023020Y013809D01*
X023020Y013846D01*
X022983Y013883D01*
X022910Y013883D01*
X022873Y013919D01*
X022873Y013956D01*
X022910Y013993D01*
X022983Y013993D01*
X023020Y013956D01*
X022799Y013993D02*
X022652Y013993D01*
X022652Y013773D01*
X022652Y013883D02*
X022725Y013883D01*
X022762Y013009D02*
X022652Y013009D01*
X022652Y012788D01*
X022762Y012788D01*
X022799Y012825D01*
X022799Y012972D01*
X022762Y013009D01*
X022578Y013009D02*
X022578Y012788D01*
X022431Y013009D01*
X022431Y012788D01*
X022357Y012825D02*
X022357Y012899D01*
X022283Y012899D01*
X022210Y012972D02*
X022210Y012825D01*
X022247Y012788D01*
X022320Y012788D01*
X022357Y012825D01*
X022357Y012972D02*
X022320Y013009D01*
X022247Y013009D01*
X022210Y012972D01*
X022210Y015938D02*
X022210Y016158D01*
X022210Y016048D02*
X022283Y016048D01*
X026381Y015297D02*
X026491Y015297D01*
X026528Y015261D01*
X026528Y015151D01*
X026602Y015151D02*
X026676Y015151D01*
X026639Y015151D02*
X026639Y015371D01*
X026602Y015371D02*
X026676Y015371D01*
X026750Y015371D02*
X026896Y015151D01*
X026896Y015371D01*
X026971Y015371D02*
X027117Y015371D01*
X027044Y015371D02*
X027044Y015151D01*
X026750Y015151D02*
X026750Y015371D01*
X026799Y015938D02*
X026909Y015938D01*
X026946Y015975D01*
X026946Y016122D01*
X026909Y016158D01*
X026799Y016158D01*
X026799Y015938D01*
X026725Y015975D02*
X026688Y015938D01*
X026615Y015938D01*
X026578Y015975D01*
X026615Y016048D02*
X026688Y016048D01*
X026725Y016011D01*
X026725Y015975D01*
X026615Y016048D02*
X026578Y016085D01*
X026578Y016122D01*
X026615Y016158D01*
X026688Y016158D01*
X026725Y016122D01*
X027020Y016158D02*
X027093Y016158D01*
X027057Y016158D02*
X027057Y015938D01*
X027093Y015938D02*
X027020Y015938D01*
X026381Y015297D02*
X026381Y015151D01*
X026615Y014583D02*
X026578Y014547D01*
X026578Y014400D01*
X026615Y014363D01*
X026688Y014363D01*
X026725Y014400D01*
X026725Y014473D01*
X026651Y014473D01*
X026725Y014547D02*
X026688Y014583D01*
X026615Y014583D01*
X026799Y014583D02*
X026946Y014363D01*
X026946Y014583D01*
X027020Y014583D02*
X027130Y014583D01*
X027167Y014547D01*
X027167Y014400D01*
X027130Y014363D01*
X027020Y014363D01*
X027020Y014583D01*
X026799Y014583D02*
X026799Y014363D01*
X026725Y013796D02*
X026725Y013649D01*
X026651Y013576D01*
X026578Y013649D01*
X026578Y013796D01*
X026799Y013686D02*
X026836Y013723D01*
X026946Y013723D01*
X026946Y013796D02*
X026946Y013576D01*
X026836Y013576D01*
X026799Y013613D01*
X026799Y013686D01*
X027020Y013686D02*
X027057Y013723D01*
X027167Y013723D01*
X027167Y013796D02*
X027167Y013576D01*
X027057Y013576D01*
X027020Y013613D01*
X027020Y013686D01*
X027020Y013009D02*
X027167Y013009D01*
X027093Y013009D02*
X027093Y012788D01*
X026946Y012788D02*
X026946Y013009D01*
X026799Y013009D02*
X026946Y012788D01*
X026799Y012788D02*
X026799Y013009D01*
X026725Y012935D02*
X026725Y012788D01*
X026725Y012899D02*
X026578Y012899D01*
X026578Y012935D02*
X026651Y013009D01*
X026725Y012935D01*
X026578Y012935D02*
X026578Y012788D01*
X026615Y016725D02*
X026578Y016762D01*
X026615Y016725D02*
X026688Y016725D01*
X026725Y016762D01*
X026725Y016799D01*
X026688Y016836D01*
X026615Y016836D01*
X026578Y016872D01*
X026578Y016909D01*
X026615Y016946D01*
X026688Y016946D01*
X026725Y016909D01*
X026799Y016909D02*
X026799Y016762D01*
X026836Y016725D01*
X026909Y016725D01*
X026946Y016762D01*
X027020Y016725D02*
X027020Y016946D01*
X026946Y016909D02*
X026909Y016946D01*
X026836Y016946D01*
X026799Y016909D01*
X027020Y016799D02*
X027167Y016946D01*
X027057Y016836D02*
X027167Y016725D01*
X027191Y017513D02*
X027044Y017513D01*
X027044Y017733D01*
X026970Y017733D02*
X026823Y017733D01*
X026823Y017513D01*
X026970Y017513D01*
X026897Y017623D02*
X026823Y017623D01*
X026749Y017586D02*
X026749Y017550D01*
X026712Y017513D01*
X026639Y017513D01*
X026602Y017550D01*
X026639Y017623D02*
X026712Y017623D01*
X026749Y017586D01*
X026749Y017696D02*
X026712Y017733D01*
X026639Y017733D01*
X026602Y017696D01*
X026602Y017660D01*
X026639Y017623D01*
X026528Y017623D02*
X026528Y017513D01*
X026528Y017623D02*
X026491Y017660D01*
X026381Y017660D01*
X026381Y017513D01*
X002449Y016981D02*
X002262Y016981D01*
X002172Y016981D02*
X001986Y017262D01*
X002172Y017262D02*
X001986Y016981D01*
X002262Y017168D02*
X002355Y017262D01*
X002355Y016981D01*
D21*
X005899Y020259D03*
X006399Y020259D03*
X006399Y021243D03*
X005899Y021243D03*
X005899Y022227D03*
X006399Y022227D03*
X006399Y010416D03*
X005899Y010416D03*
X005899Y009432D03*
X006399Y009432D03*
X006399Y008448D03*
X005899Y008448D03*
X019481Y013763D03*
X019981Y013763D03*
X019981Y016125D03*
X019481Y016125D03*
X024403Y019274D03*
X024903Y019274D03*
X024903Y020259D03*
X024403Y020259D03*
X024403Y021243D03*
X024903Y021243D03*
X024903Y022227D03*
X024403Y022227D03*
X024403Y010416D03*
X024903Y010416D03*
X024903Y009432D03*
X024403Y009432D03*
X024403Y008448D03*
X024903Y008448D03*
D22*
X013629Y017942D03*
X013629Y018442D03*
X012350Y017654D03*
X012350Y017154D03*
X012350Y015587D03*
X012350Y015087D03*
D23*
X015172Y012580D03*
X015632Y012580D03*
X015632Y018288D03*
X015172Y018288D03*
X024424Y011398D03*
X024884Y011398D03*
D24*
X005676Y014733D02*
X005676Y015942D01*
X005047Y015942D01*
X005047Y014733D01*
X005676Y014733D01*
X005361Y015613D02*
X005361Y015834D01*
X005464Y015719D02*
X005243Y015719D01*
X002350Y016204D02*
X001798Y016204D01*
X001798Y014471D01*
X002350Y014471D01*
X002350Y013999D01*
X001720Y013999D01*
X000657Y013999D02*
X000657Y016676D01*
X000381Y016676D02*
X000145Y016912D01*
X001720Y016676D02*
X002350Y016676D01*
X002350Y016204D01*
X000381Y013999D02*
X000145Y013763D01*
D25*
X014321Y019150D03*
X014321Y019406D03*
X014321Y019662D03*
X014321Y019918D03*
X014321Y020174D03*
X014321Y020430D03*
X014321Y020686D03*
X014321Y020942D03*
X014321Y021198D03*
X014321Y021454D03*
X014321Y021710D03*
X014321Y021965D03*
X014321Y022221D03*
X014321Y022477D03*
X016480Y022477D03*
X016480Y022221D03*
X016480Y021965D03*
X016480Y021710D03*
X016480Y021454D03*
X016480Y021198D03*
X016480Y020942D03*
X016480Y020686D03*
X016480Y020430D03*
X016480Y020174D03*
X016480Y019918D03*
X016480Y019662D03*
X016480Y019406D03*
X016480Y019150D03*
D26*
X020893Y021898D03*
X009909Y020588D03*
X020893Y010086D03*
X009909Y008777D03*
D27*
X009495Y008773D03*
X009495Y020584D03*
X021306Y021902D03*
X021306Y010091D03*
D28*
X021720Y010096D03*
X021720Y008768D03*
X020893Y008768D03*
X009909Y010096D03*
X009082Y010096D03*
X009082Y008768D03*
X009082Y020579D03*
X009082Y021907D03*
X009909Y021907D03*
X020893Y020579D03*
X021720Y020579D03*
X021720Y021907D03*
D29*
X021306Y020579D03*
X021306Y008768D03*
X009495Y010096D03*
X009495Y021907D03*
D30*
X009397Y021361D03*
X009594Y021243D03*
X009397Y021125D03*
X009397Y009550D03*
X009594Y009432D03*
X009397Y009314D03*
X021208Y009432D03*
X021405Y009550D03*
X021405Y009314D03*
X021405Y021125D03*
X021208Y021243D03*
X021405Y021361D03*
M02*
